<svg id="Layer_1" data-name="Layer 1" xmlns="http://www.w3.org/2000/svg" viewBox="0 0 104.88 195.66"><defs><style>.cls-1{fill:#fff;}</style></defs><path class="cls-1" d="M93.82,15.38s.59,16.73.46,18.1A24.81,24.81,0,0,1,82.35,12.2C88.4,13.58,93.82,15.38,93.82,15.38ZM74.22,6.15s6.63,32.62,6.69,34.59c-7.46-4-24.8-12.07-25.47-38.45,7,.69,15.18,1.83,15.18,1.83Zm77.39,48.61c-3-10-23.8-14.58-38.82-12.65-10.86,1.4-17.66,4.19-24.91,11.33-4.63,8.08,8,71.58,8,71.58s-38.28,24.33-45.08,29.59c-7.59,5.87-3,8.31,4.51,12.08,2.12,10.13,7.84,19.57,16.42,31.26,4.32-3.76,3.47-26.27,3.47-26.27L113.55,173l.67,21c22.82-13.88,31.61-37.53,28-65.72-2.12-16.46-25.26-52.07-25.26-52.07C156.85,68.4,151.61,54.76,151.61,54.76Zm-38.07,8.93-4.32-.9a5.89,5.89,0,0,0-.39-1.62,6.15,6.15,0,0,0-11.4,4.58,5.55,5.55,0,0,0,.56,1l-3.63,2.36a9.94,9.94,0,0,1-1-1.8,10.48,10.48,0,0,1,19.44-7.8A9.75,9.75,0,0,1,113.54,63.69Z" transform="translate(-46.95 -2.29)"/></svg>