<svg id="Capa_1" enable-background="new 0 0 512 512" height="512" viewBox="0 0 512 512" width="512" xmlns="http://www.w3.org/2000/svg"><g><g><path d="m465.842 183.501c-17.598-99.879-104.995-176.001-209.842-176.001s-192.244 76.122-209.842 176h419.684z" fill="#ff748f"/><path d="m271 8.026c-4.956-.346-9.957-.526-15-.526-104.847 0-192.244 76.122-209.842 176h30c16.752-95.074 96.751-168.619 194.842-175.474z" fill="#fd5f7e"/><path d="m456.722 200.359s59.222 183.23-92.005 218.128h-217.434c-151.226-34.898-92.005-218.128-92.005-218.128z" fill="#ff748f"/><path d="m85.278 200.359h-30s-59.222 183.23 92.005 218.128h30c-151.226-34.898-92.005-218.128-92.005-218.128z" fill="#fd5f7e"/><path d="m342.091 376.144s62.46 39.524 62.46 128.356h-297.101c0-88.832 62.46-128.356 62.46-128.356z" fill="#ffdcce"/><path d="m199.909 376.144h-30s-62.46 39.523-62.46 128.356h30c.001-88.833 62.46-128.356 62.46-128.356z" fill="#ffcabd"/><path d="m256 113.92c-68.318-73.76-148.097 8.295-148.097 8.295-18.748 28.17-29.681 61.988-29.681 98.364 0 98.184 79.594 177.778 177.778 177.778s177.778-79.594 177.778-177.778c0-36.376-10.934-70.195-29.682-98.365-.063-.065-79.804-82.026-148.096-8.294z" fill="#ffdcce"/><path d="m108.222 220.578c0-36.376 10.934-70.193 29.681-98.364 0 0 29.864-30.712 68.694-37.666-52.316-10.031-98.694 37.666-98.694 37.666-18.748 28.17-29.681 61.988-29.681 98.364 0 98.184 79.594 177.778 177.778 177.778 5.053 0 10.054-.222 15-.636-91.163-7.617-162.778-84.011-162.778-177.142z" fill="#ffcabd"/><path d="m461.334 104.66c-11.374-19.567-36.749-25.774-56.043-13.944l-149.291 91.528-149.291-91.529c-19.295-11.829-44.67-5.623-56.043 13.944-10.139 17.443-15.946 37.715-15.946 59.346 0 65.325 52.95 118.275 118.265 118.275 44.194 0 82.718-24.234 103.015-60.135 20.298 35.901 58.821 60.135 103.015 60.135 65.315 0 118.265-52.95 118.265-118.275 0-21.63-5.807-41.902-15.946-59.345z" fill="#77718c"/><path d="m435.206 147.617c-2.583-12.058-16.42-17.854-26.934-11.409l-96.38 59.089c-10.482 6.427-11.638 21.344-2.115 29.122.064.052.127.104.191.155 14 11.36 30.959 17.364 49.047 17.364 42.967 0 77.923-34.961 77.923-77.933 0-5.567-.589-11.056-1.732-16.388z" fill="#ffdcce"/><path d="m76.794 147.617c2.583-12.058 16.42-17.854 26.934-11.409l96.381 59.089c10.482 6.427 11.638 21.344 2.115 29.122-.064.052-.127.104-.191.155-14 11.36-30.959 17.364-49.047 17.364-42.967 0-77.923-34.961-77.923-77.933-.001-5.567.588-11.056 1.731-16.388z" fill="#ffdcce"/><path d="m105.062 174.006c0-5.568.589-11.057 1.731-16.389 1.329-6.205 5.642-10.745 10.945-12.819l-14.011-8.59c-10.513-6.445-24.35-.649-26.934 11.409-1.142 5.332-1.731 10.821-1.731 16.389 0 39.904 30.148 72.88 68.857 77.388-23.21-13.511-38.857-38.649-38.857-67.388z" fill="#ffcabd"/><path d="m329.419 442.778c-7.433 9.073-21.31 9.073-28.743 0l-8.543-10.429c-3.418-4.172-9.799-4.172-13.217 0l-8.543 10.429c-7.433 9.073-21.31 9.073-28.743 0l-8.543-10.429c-3.418-4.172-9.799-4.172-13.217 0l-8.543 10.429c-7.433 9.073-21.31 9.073-28.743 0-5.086-6.209-15.152-2.612-15.152 5.414v56.308h177.142v-56.308c-.003-8.026-10.069-11.622-15.155-5.414z" fill="#ff748f"/></g><g><path d="m305.241 230.406c15.351 12.456 33.944 19.04 53.771 19.04 47.101 0 85.42-38.324 85.42-85.431 0-9.268-1.443-15.103-1.898-17.959-3.728-17.403-23.517-25.225-38.186-16.231l-96.378 59.088c-7.039 4.315-11.574 11.816-12.131 20.064-.956 14.171 9.284 21.273 9.402 21.429zm5.564-20.419c.234-3.46 2.058-6.48 5.005-8.287l96.378-59.087c6.159-3.776 14.188-.375 15.68 6.585 9.426 44.006-24.267 85.248-68.856 85.248-16.346 0-31.672-5.425-44.317-15.685-.076-.1-4.283-2.952-3.89-8.774z"/><path d="m152.988 249.446c19.827 0 38.42-6.584 53.763-19.033l.218-.177c13.681-11.172 11.77-32.306-2.939-41.324l-96.378-59.087c-14.673-8.996-34.46-1.162-38.186 16.231-11.457 53.464 29.53 103.39 83.522 103.39zm-68.856-100.248c1.505-7.023 9.589-10.32 15.68-6.585l96.378 59.087c6.086 3.731 6.831 12.394 1.268 16.937-1.727.971-17.355 15.809-44.47 15.809-44.662 0-78.267-41.291-68.856-85.248z"/><path d="m158.447 225.644c4.142 0 7.5-3.358 7.5-7.5v-17.777c0-4.142-3.358-7.5-7.5-7.5s-7.5 3.358-7.5 7.5v17.777c.001 4.142 3.359 7.5 7.5 7.5z"/><path d="m353.552 225.644c4.142 0 7.5-3.358 7.5-7.5v-17.777c0-4.142-3.358-7.5-7.5-7.5s-7.5 3.358-7.5 7.5v17.777c.001 4.142 3.358 7.5 7.5 7.5z"/><path d="m279.29 273.846c-3.122-2.722-7.86-2.396-10.581.727-6.732 7.725-18.693 7.716-25.418 0-2.721-3.122-7.459-3.448-10.581-.727-3.123 2.721-3.448 7.459-.727 10.581 12.711 14.585 35.337 14.568 48.033 0 2.722-3.122 2.397-7.859-.726-10.581z"/><path d="m467.813 100.902c-9.366-16.112-26.719-24.658-44.279-23.593-63.744-74.47-165.962-96.244-251.925-60.506-3.825 1.59-5.636 5.979-4.046 9.804s5.981 5.636 9.804 4.046c77.534-32.233 169.785-14.358 229.708 50.681-4.208 1.854-6.042 3.245-24.503 14.522-44.073-27.818-89.417-28.307-126.572 7.371-37.174-35.695-82.522-35.173-126.572-7.371-18.143-11.083-20.304-12.664-24.503-14.522 13.813-14.99 29.682-27.791 47.299-38.142 3.571-2.098 4.765-6.694 2.667-10.265s-6.694-4.765-10.266-2.667c-21.258 12.489-40.135 28.309-56.174 47.048-17.192-1.039-34.719 7.172-44.264 23.594-11.096 19.09-16.961 40.914-16.961 63.113 0 21.333 5.345 41.439 14.756 59.06-5.258 26.572-9.31 65.04-.447 102.262 10.862 45.613 37.955 76.966 80.592 93.323-11.649 20.369-22.174 48.967-22.174 85.84 0 4.142 3.358 7.5 7.5 7.5h297.093c4.142 0 7.5-3.358 7.5-7.5 0-36.873-10.525-65.472-22.174-85.841 42.637-16.356 69.731-47.709 80.592-93.323 8.863-37.222 4.811-75.69-.447-102.262 20.667-38.693 19.346-85.098-2.204-122.172zm-217.315 18.125c2.966 3.201 8.036 3.205 11.005 0 21.177-22.864 56.45-42.923 106.675-14.346l-112.178 68.775-112.178-68.775c50.225-28.577 85.499-8.518 106.676 14.346zm-193.343-10.587c9.268-15.944 29.624-20.69 45.039-11.666 1.131.663 51.553 31.587 149.885 91.873 2.337 1.433 5.317 1.502 7.766.039.447-.262 142.504-87.361 149.362-91.565 15.735-9.648 36.383-4.601 45.637 11.32 38.453 66.156-.837 151.234-76.329 164.627-45.827 8.174-92.637-13.306-115.987-54.604-2.868-5.073-10.191-5.071-13.058 0-23.123 40.897-69.707 62.92-116.172 54.571-51.715-9.317-91.074-54.657-91.074-109.018.002-19.556 5.164-38.773 14.931-55.577zm73.207 297.279c-39.404-14.229-64.366-42.415-74.234-83.857-6.652-27.937-5.43-56.895-2.101-80.212 6.282 8.01 13.517 15.219 21.642 21.557 10.776 46.184 39.699 87.451 80.878 113.71-9.403 7.992-18.176 17.534-26.185 28.802zm204.857 41.814c.151-.185.464-.569 1.158-.321.692.248.692.744.692.982v48.806h-162.138v-48.807c0-.238 0-.735.692-.982s1.007.137 1.158.321c10.569 12.902 30.07 12.544 40.346 0l8.543-10.428c.416-.507 1.198-.507 1.614 0l8.543 10.428c10.424 12.724 29.903 12.749 40.346 0l8.543-10.428c.415-.507 1.198-.507 1.614 0l8.543 10.428c4.973 6.071 12.326 9.552 20.173 9.552 7.847.001 15.2-3.481 20.173-9.551zm16.849 49.467v-48.807c0-15.05-18.894-21.834-28.453-10.166-4.446 5.426-12.72 5.395-17.139 0l-8.543-10.428c-6.413-7.828-18.396-7.842-24.821 0l-8.543 10.428c-4.429 5.406-12.703 5.415-17.139 0l-8.543-10.428c-6.424-7.843-18.408-7.827-24.82 0l-8.543 10.428c-4.429 5.406-12.703 5.415-17.139 0-9.539-11.643-28.453-4.915-28.453 10.166v48.807h-44.824c1.314-31.766 11.07-60.205 28.911-84.574 10.507-14.339 21.157-23.403 26.461-27.46 52.965 27.59 117.501 28.064 171.116.053 12.252 9.388 52.457 45.156 55.292 111.982h-44.82zm29.568-91.281c-7.71-10.921-16.294-20.291-26.126-28.774 12.115-7.754 23.425-16.982 33.701-27.614 2.879-2.978 2.798-7.726-.181-10.605-3.036-2.934-7.779-2.761-10.613.171-89.035 92.107-242.76 55.98-283.591-63.323 54.548 28.572 124.218 13.267 161.173-39.391 36.953 52.654 106.623 67.97 161.182 39.386-4.805 14.127-11.678 28.069-20.731 41.259-2.347 3.419-1.475 8.089 1.948 10.436 3.414 2.344 8.083 1.476 10.427-1.938 12.791-18.631 22.02-39.335 27.294-61.263.069-.286.144-.569.212-.855 8.125-6.338 15.36-13.547 21.641-21.557 10.405 72.877-7.269 139.128-76.336 164.068z"/></g></g></svg>