<svg id="Capa_1" enable-background="new 0 0 512 512" height="512" viewBox="0 0 512 512" width="512" xmlns="http://www.w3.org/2000/svg"><g><g><path d="m151.402 421.419 23.049 41.541-23.049 41.54h-58.62c0-48.823 29.006-77.829 29.006-77.829z" fill="#76e6d5"/><path d="m153.731 425.617-2.329-4.198-29.614 5.252s-29.006 29.006-29.006 77.829h26c0-48.822 29.006-77.829 29.006-77.829z" fill="#00d6bc"/><path d="m419.218 504.5h-58.62l-21.288-41.541 21.288-41.541 29.613 5.253c.001 0 29.007 29.006 29.007 77.829z" fill="#76e6d5"/><path d="m360.598 421.419v83.081h-209.196v-83.081l104.598-18.562z" fill="#ff748f"/><path d="m79.061 362.233s-23.651-2.641-39.281-18.401c-4.092-4.126-11.098-1.326-11.105 4.485-.044 34.287 9.486 101.954 85.097 104.064 45.278-.943 66.974-43.391 66.974-43.391z" fill="#fccb88"/><path d="m432.939 362.233s23.651-2.641 39.281-18.401c4.092-4.126 11.098-1.326 11.105 4.485.044 34.287-9.486 101.954-85.097 104.064-45.278-.943-66.974-43.391-66.974-43.391z" fill="#fccb88"/><circle cx="256" cy="197.986" fill="#76e6d5" r="190.486"/><path d="m105.514 197.986c0-98.447 74.685-179.446 170.486-189.443-6.574-.686-13.245-1.043-20-1.043-105.203 0-190.486 85.284-190.486 190.486s85.283 190.487 190.486 190.487c6.755 0 13.426-.357 20-1.043-95.801-9.997-170.486-90.996-170.486-189.444z" fill="#00d6bc"/><g fill="#f9f097"><path d="m443.06 45.898c-.137-.167-.272-.33-.406-.49-2.859-3.429-7.769-4.292-11.622-2.037l-153.569 89.878c-13.257 7.759-29.67 7.759-42.927 0l-153.569-89.878c-3.853-2.255-8.763-1.392-11.622 2.037-.133.16-.269.323-.406.49-33.407 40.661-22.069 101.676 23.349 128.257l81.369 47.622c15.855 9.28 25.599 26.273 25.599 44.644 0 17.056 8.408 33.015 22.474 42.661l5.016 3.44c17.629 12.089 40.879 12.089 58.508 0l5.016-3.44c14.066-9.646 22.474-25.605 22.474-42.661 0-18.371 9.744-35.364 25.599-44.644l81.369-47.622c45.418-26.581 56.756-87.596 23.348-128.257z"/><path d="m256 371.258c60.317 0 86.612-51.033 94.359-70.195 1.258-3.111 5.51-3.414 7.237-.537 6.735 11.221 16.377 35.253-3.395 60.713 0 0 47.652 4.955 74.732-16.959 3.325-2.691 8.22.099 7.454 4.308-4.195 23.073-20.452 67.94-83.438 74.552-55.959 5.874-80.213 22.894-90.283 33.924-3.575 3.916-9.758 3.916-13.334 0-10.07-11.03-34.324-28.05-90.283-33.924-62.986-6.612-79.243-51.479-83.438-74.552-.765-4.209 4.129-6.999 7.454-4.308 27.08 21.915 74.732 16.959 74.732 16.959-19.771-25.46-10.13-49.492-3.395-60.713 1.727-2.877 5.979-2.574 7.237.537 7.749 19.162 34.044 70.195 94.361 70.195z"/></g></g><g><path d="m190.328 156.705-32.14-8.612c-4.002-1.072-8.113 1.303-9.186 5.303-1.072 4.001 1.303 8.114 5.304 9.186l10.894 2.919c-.192 1.208-.061.218-.103 19.077 0 4.143 3.358 7.5 7.5 7.5 4.143 0 7.5-3.357 7.5-7.5v-15.085c5.952 1.524 6.645 1.959 8.294 1.959 3.312 0 6.342-2.21 7.24-5.561 1.072-4.001-1.302-8.114-5.303-9.186z"/><path d="m353.812 148.093-32.14 8.612c-4.001 1.072-6.375 5.185-5.303 9.186.898 3.351 3.928 5.561 7.24 5.561.643 0 1.296-.083 1.946-.258l6.348-1.701v15.085c0 4.143 3.357 7.5 7.5 7.5 4.142 0 7.5-3.357 7.5-7.5-.041-18.758.091-17.858-.103-19.077l10.894-2.919c4.001-1.072 6.375-5.185 5.304-9.186-1.073-4-5.184-6.375-9.186-5.303z"/><path d="m277.591 212.283c-3.123-2.721-7.86-2.396-10.582.727-5.831 6.691-16.192 6.686-22.018 0-2.722-3.123-7.459-3.448-10.582-.727-3.123 2.722-3.448 7.459-.727 10.582 11.811 13.551 32.837 13.538 44.635 0 2.722-3.123 2.396-7.861-.726-10.582z"/><path d="m475.716 416.035c12.53-22.741 15.133-49.382 15.109-67.728-.016-12.477-15.136-18.625-23.931-9.756-7.132 7.192-16.383 11.305-23.556 13.592.153-.754.297-1.496.428-2.214 2.012-11.057-10.829-18.538-19.551-11.48-12.849 10.398-31.337 14.097-45.98 15.269 60.017-47.195 86.705-123.133 71.613-196.058 9.374-11.93 15.813-26.099 18.55-41.418 8.137-45.558-19.726-75.128-19.984-75.639-5.227-6.267-14.13-7.825-21.17-3.705l-33.045 19.34c-37.177-36.309-86.017-56.238-138.199-56.238s-101.022 19.929-138.199 56.238l-33.045-19.34c-7.04-4.12-15.943-2.562-21.175 3.711-.23.454-28.058 30.407-19.979 75.632 2.736 15.319 9.176 29.488 18.549 41.417-7.606 36.754-4.817 75.544 9.087 111.575 1.492 3.865 5.834 5.788 9.697 4.297 3.865-1.492 5.788-5.833 4.297-9.697-11.744-30.433-14.714-62.495-10.242-92.788 8.925 7.622 9.005 6.818 94.878 57.205 13.489 7.894 21.888 22.513 21.888 38.171 0 19.537 9.62 37.798 25.732 48.847 12.312 8.443 24.946 14.194 40.208 13.453 14.51-.705 28.391-6.736 39.76-15.607 14.408-11.24 22.788-28.469 22.788-46.692 0-15.597 8.348-30.246 21.888-38.171 82.521-48.411 85.407-49.296 94.183-56.639.229-.191.468-.372.695-.566 9.236 62.579-14.135 126.353-64.464 168.003 2.384-13.195-.035-27.912-8.518-42.383-4.919-8.192-17.052-7.243-20.621 1.585-22.293 55.138-70.263 75.191-113.865 61.36-29.802-9.455-49.366-32.715-60.948-61.36-3.581-8.857-15.718-9.755-20.621-1.585-7.463 12.423-11.209 27.584-8.519 42.38-16.707-13.828-30.937-30.578-41.853-49.397-2.079-3.583-6.667-4.803-10.25-2.725-3.583 2.079-4.803 6.668-2.725 10.251 12.64 21.791 29.393 41.012 49.137 56.542-14.643-1.172-33.131-4.871-45.979-15.268-8.735-7.068-21.559.444-19.551 11.479.13.718.274 1.46.428 2.215-7.173-2.286-16.424-6.401-23.556-13.592-8.788-8.862-23.915-2.731-23.931 9.756-.023 18.345 2.578 44.987 15.109 67.728 12.523 22.727 31.934 36.718 57.845 41.764-5.869 14.851-8.846 30.515-8.846 46.701 0 4.142 3.357 7.5 7.5 7.5h326.436c4.142 0 7.5-3.358 7.5-7.5 0-16.187-2.978-31.85-8.847-46.701 25.911-5.047 45.322-19.038 57.845-41.764zm-142.836-199.712c-17.155 10.826-27.637 29.875-27.637 50.099 0 11.514-4.502 22.839-12.974 31.296-4.19 4.183-7.507 5.925-11.257 8.619-14.961 10.259-35.064 10.259-50.025 0-1.573-1.548-24.231-12.362-24.231-39.915 0-20.784-11.077-40.432-29.311-51.117-82.154-48.309-81.997-47.486-88.787-52.554-35.549-26.6-42.187-77.69-13.915-112.101.1-.069.993-1.649 2.436-.806 164.763 96.018 154.162 91.143 162.679 94.044 13.439 4.577 28.608 3.318 41.394-4.167l62.756-36.729c3.575-2.092 4.777-6.686 2.685-10.261s-6.687-4.776-10.261-2.685l-62.756 36.729c-10.902 6.38-24.448 6.38-35.351 0l-107.067-62.662c33.969-31.744 77.901-49.113 124.742-49.113 46.84 0 90.772 17.369 124.742 49.113l-18.992 11.116c-3.575 2.092-4.777 6.686-2.685 10.261s6.687 4.777 10.261 2.685l65.494-38.331c1.445-.847 2.344.745 2.445.815 14.413 17.542 20.378 40.485 16.366 62.945-3.672 20.563-15.161 38.084-30.917 49.606-7.017 5.146-82.506 48.489-89.834 53.113zm-174.306 152.375c3.035-.31 5.813-2.552 6.536-5.861.891-4.103-1.473-6.053-3.82-9.574-8.951-13.42-10.024-28.177-3.668-42.669 20.62 44.035 59.04 72.705 109.511 67.604 40.548-4.096 70.274-31.369 87.247-67.605 11.734 26.753-5.781 45.036-6.098 46.041-.063.104-.83 1.04-1.247 2.438-1.39 4.6 1.814 9.137 6.392 9.625 1.929.201 44.561 4.37 73.959-14.119-.445 1.697-.96 3.449-1.538 5.231-9.806 28.139-28.807 46.805-60.608 53.771-15.383 3.378-77.875 5.327-108.112 38.424-.615.673-1.663.649-2.256 0-32.897-36.044-98.876-33.4-122.961-42.91-25.401-10.014-40.867-29.984-47.296-54.516 29.398 18.49 72.03 14.321 73.959 14.12zm-122.386-17.908c12.8 11.869 29.246 16.473 37.258 18.1 13.497 36.104 42.873 55.882 79.842 61.098-15.176 12.145-30.127 15.836-47.647 14.352-49.221-5.149-68.832-44.064-69.453-93.55zm73.381 108.913c10.736.651 22.871-1.388 34.332-6.473v43.77h-43.376c.843-12.924 3.873-25.424 9.044-37.297zm49.332-15.121c5.018-3.617 9.507-7.627 13.767-12.117 23.087 3.587 53.555 11.698 69.951 28.421 2.247 2.28 4.583 5.113 9.957 6.254 2.869.611 5.895.4 8.5-.441 4.33-1.409 6.216-3.684 8.294-5.803 16.555-16.822 46.728-24.827 69.961-28.433 3.973 4.241 8.772 8.518 13.767 12.118v52.419h-194.197zm243.529 15.119c5.172 11.875 8.202 24.374 9.045 37.299h-43.377v-43.77c11.693 5.186 24.36 7.21 34.332 6.471zm-.458-15.004c-15.75 1.016-30.994-4.897-43.261-14.71 37.931-5.352 65.996-25.096 79.858-61.139 8.393-1.68 24.554-6.282 37.242-18.058-.65 51.731-22.025 90.767-73.839 93.907z"/></g></g></svg>