<svg id="Capa_1" enable-background="new 0 0 512 512" height="512" viewBox="0 0 512 512" width="512" xmlns="http://www.w3.org/2000/svg"><g><g><path d="m139.525 399.597 14.836 59.549-14.836 45.354h-62.844c0-66.179 48.584-104.903 48.584-104.903z" fill="#ffdcce"/><path d="m139.525 399.597h-14.261s-48.584 38.724-48.584 104.903h30c0-44.097 21.569-75.999 35.964-92.382z" fill="#ffcabd"/><path d="m372.475 399.597-14.836 59.549 14.836 45.354h62.845c0-66.179-48.584-104.903-48.584-104.903z" fill="#ffdcce"/><path d="m139.525 399.597h232.949v104.903h-232.949z" fill="#c6ade3"/><path d="m470.893 330.341c-33.879-5.75-91.734-11.354-137.243 5.9l-64.933 24.618c-2.494.946-5.139 1.43-7.807 1.43h-9.819c-2.667 0-5.313-.485-7.807-1.43l-64.933-24.618c-45.509-17.254-103.364-11.651-137.243-5.9-15.16 2.573-23.156 19.512-15.377 32.777 30.608 52.193 82.082 82.355 104.735 93.71 6.792 3.404 14.861 3.035 21.337-.937l35.556-21.807c7.064-4.333 15.962-4.333 23.026 0l34.103 20.916c7.064 4.333 15.962 4.333 23.026 0l34.103-20.916c7.064-4.333 15.962-4.333 23.026 0l35.556 21.807c6.476 3.972 14.545 4.341 21.337.937 22.652-11.354 74.127-41.516 104.735-93.71 7.777-13.265-.218-30.204-15.378-32.777z" fill="#f9f097"/><path d="m161.03 447.223c-24.535-12.298-80.289-44.967-113.44-101.499-2.999-5.115-3.824-10.731-2.913-15.973-1.215.196-2.409.392-3.569.589-15.16 2.573-23.156 19.513-15.377 32.777 30.608 52.193 82.082 82.355 104.735 93.709 6.792 3.404 14.861 3.035 21.337-.937l12.14-7.446c-.99-.339-1.963-.744-2.913-1.22z" fill="#fccb88"/><circle cx="256" cy="216.138" fill="#ffdcce" r="173.744"/><path d="m476.412 7.5h-36.05c-10.818 0-19.588 8.77-19.588 19.588v123.547l27.605 89.776 30.99-23.678c12.499-9.55 19.831-24.38 19.831-40.109v-146.335c.001-12.586-10.202-22.789-22.788-22.789z" fill="#f9f097"/><path d="m35.588 7.5h36.05c10.818 0 19.588 8.77 19.588 19.588v123.547l-27.605 89.776-30.99-23.678c-12.499-9.55-19.831-24.38-19.831-40.109v-146.335c-.001-12.586 10.202-22.789 22.788-22.789z" fill="#f9f097"/><path d="m42.799 206.625v-176.336c0-12.586 10.203-22.789 22.789-22.789h-30c-12.586 0-22.789 10.203-22.789 22.789v146.336c0 15.729 7.333 30.56 19.831 40.11l15.044 11.494c-3.158-6.669-4.875-14.029-4.875-21.604z" fill="#fccb88"/><path d="m195.32 31.945c-77.358 25.46-133.203 98.306-133.203 184.194 0 55.11 22.993 104.852 59.914 140.152 7.423 7.09 19.75 1.732 19.75-8.54v-148.593h228.437v148.592c0 10.283 12.347 15.621 19.78 8.51 36.67-35.068 59.592-84.387 59.884-139.064.463-86.432-55.03-159.519-132.619-185.151l-60.972 26.401z" fill="#c6ade3"/><path d="m209.311 38.026s-13.991-6.081-13.991-6.081c-50.766 16.708-92.25 53.832-114.801 101.64-17.54 37.185-22.425 78.574-15.196 117.854 7.523 40.88 27.863 77.273 56.708 104.852 4.175 3.988 9.902 4.038 14.114 1.49 3.485-2.108 5.636-5.923 5.636-10.03v-2.035c-30.876-34.34-49.664-79.765-49.664-129.577.001-79.839 48.261-148.4 117.194-178.113z" fill="#b08bd7"/><path d="m374.414 152.253h-236.828c-16.577 0-29.835 13.937-28.819 30.482.017.282.036.565.056.847 2.919 40.628 36.438 72.869 77.147 74.225 29.359.978 55.307-13.865 70.029-36.643 14.721 22.778 40.67 37.621 70.029 36.643 40.71-1.356 74.228-33.598 77.147-74.225.02-.283.039-.565.056-.847 1.018-16.545-12.241-30.482-28.817-30.482z" fill="#f9f097"/><path d="m138.824 183.583c-.02-.283-.039-.565-.056-.847-1.016-16.545 12.242-30.482 28.819-30.482h-30c-16.577 0-29.835 13.937-28.819 30.482.017.282.036.564.056.847 2.919 40.627 36.437 72.869 77.147 74.226 6.096.203 12.042-.286 17.774-1.376-35.009-6.676-62.3-36.375-64.921-72.85z" fill="#fccb88"/><path d="m317.264 32.045v120.211h-121.944v-120.311c19.176-6.315 39.671-9.719 60.972-9.689 21.331.03 41.826 3.465 60.972 9.789z" fill="#ffa2e7"/><path d="m225.32 31.945c14.551-4.792 29.868-7.911 45.692-9.123-2.4-.2-4.826-.32-7.257-.411-2.486-.093-4.975-.151-7.464-.154-11.982-.017-23.708 1.053-35.089 3.116-8.766 1.591-17.421 3.786-25.883 6.573v12.791c9.557-5.067 19.582-9.363 30.001-12.792z" fill="#ff8ce2"/></g><g><path d="m178.351 215.305c4.142 0 7.5-3.357 7.5-7.5v-16.935c0-4.143-3.358-7.5-7.5-7.5s-7.5 3.357-7.5 7.5v16.935c0 4.143 3.357 7.5 7.5 7.5z"/><path d="m333.649 215.305c4.142 0 7.5-3.357 7.5-7.5v-16.935c0-4.143-3.358-7.5-7.5-7.5s-7.5 3.357-7.5 7.5v16.935c0 4.143 3.358 7.5 7.5 7.5z"/><path d="m278.384 260.807c-3.123-2.721-7.86-2.396-10.582.727-6.239 7.16-17.348 7.181-23.604 0-2.722-3.123-7.459-3.448-10.582-.727-3.123 2.722-3.448 7.459-.727 10.582 12.23 14.034 34.004 14.02 46.222 0 2.721-3.123 2.396-7.86-.727-10.582z"/><path d="m472.148 322.946c-14.359-2.437-28.518-4.112-42.255-5.009 13.223-22.481 21.88-47.336 25.522-73.462l28.508-21.781c14.263-10.897 22.778-28.119 22.778-46.069v-35.438c0-4.142-3.358-7.5-7.5-7.5s-7.5 3.358-7.5 7.5v35.438c0 13.306-6.312 26.072-16.885 34.15l-17.594 13.442c1.553-38.397-7.818-77.92-28.948-112.817v-84.312c0-6.666 5.423-12.088 12.088-12.088h36.05c8.43 0 15.289 6.858 15.289 15.289v80.897c0 4.142 3.358 7.5 7.5 7.5s7.5-3.358 7.5-7.5v-80.897c0-16.702-13.588-30.289-30.289-30.289h-36.05c-14.937 0-27.088 12.152-27.088 27.088v62.849c-53.892-67.313-142.943-90.589-220.297-65.117 0 0 0 0-.001 0-37.31 12.28-69.733 34.856-94.249 65.526v-63.258c-.001-14.936-12.152-27.088-27.089-27.088h-36.05c-16.701 0-30.289 13.587-30.289 30.289v27.421c0 4.142 3.358 7.5 7.5 7.5s7.5-3.358 7.5-7.5v-27.421c0-8.43 6.858-15.289 15.289-15.289h36.05c6.665 0 12.088 5.423 12.088 12.088v84.701c-20.91 34.38-30.504 73.327-28.945 112.43l-17.597-13.445c-10.573-8.078-16.885-20.844-16.885-34.149v-88.915c0-4.142-3.358-7.5-7.5-7.5s-7.5 3.358-7.5 7.5v88.914c0 17.949 8.515 35.172 22.778 46.069l28.524 21.794c3.577 25.469 12.067 50.356 25.595 73.444-13.766.896-27.955 2.572-42.344 5.014-20.295 3.445-31.03 26.167-20.592 43.965 18.282 31.176 43.856 54.745 66.469 71.256-10.973 20.935-16.549 43.214-16.549 66.333 0 4.142 3.358 7.5 7.5 7.5h358.639c4.142 0 7.5-3.358 7.5-7.5 0-23.12-5.576-45.399-16.549-66.333 22.613-16.512 48.187-40.081 66.469-71.256 10.459-17.834-.33-40.525-20.591-43.964zm-61.78-2.347c-10.861 16.013-24.477 29.64-26.228 30.779-2.503 1.627-6.421-.085-6.421-3.628 0-10.565 0-90.809 0-101.451 19.288-15.36 31.187-37.833 32.937-62.173 1.504-20.908-15.131-39.373-36.243-39.373h-49.65v-102.024c110.434 43.446 152.525 179.102 85.605 277.87zm-261.086 22.894v-87.555c35.678 18.11 80.211 9.822 106.718-22.112 26.12 31.51 70.514 40.503 106.719 22.112v87.554c-61.126 51.415-151.236 52.227-213.437.001zm-32.977-160.451c-.774-12.386 8.637-23.289 21.281-23.289 107.966.006 176.223.004 236.827 0 12.726-.001 22.111 11.096 21.281 23.297-4.992 69.393-95.69 92.39-133.396 34.044-2.947-4.56-9.642-4.574-12.598 0-8.164 12.63-19.868 22.392-33.611 27.959-46.31 18.784-96.793-14.156-99.784-62.011zm193.459-145.493v107.204h-106.943v-107.299c35.323-10.5 72.848-10.076 106.943.095zm-121.944 5.065v102.139c-52.357.143-50.946-.327-55.813.434-17.707 2.766-31.101 18.059-30.786 36.35.366 21.662 11.439 47.569 33.06 64.763 0 108.342.164 101.923-.295 103.08-.949 2.39-4.436 3.721-6.771 1.49-97.871-93.57-66.505-258.44 60.605-308.256zm-89.688 404.193c9.839 6.436 19.777 12.112 28.972 16.724h.001c1.522.763 3.369 1.482 4.919 1.94v31.529h-47.623c1.026-17.377 5.63-34.203 13.731-50.193zm48.893 19.06c7.703-1.828 8.838-4.094 44.254-25.391 4.683-2.872 10.501-2.872 15.184 0 34.386 20.732 34.62 22.063 40.988 24.004 7.96 2.427 16.654 1.407 23.983-3.088 37.028-22.651 35.462-22.349 39.73-22.936 7.226-1.004 7.451 1.069 45.112 23.826 2.524 1.548 5.662 2.88 8.698 3.6v31.118h-217.949zm266.844-19.06c8.101 15.989 12.705 32.815 13.73 50.193h-47.625v-31.533c7.418-2.165 27.272-14.327 33.895-18.66zm65.931-87.484c-22.543 38.441-60.803 69.899-99.744 89.844-5.13 2.627-10.82 3.468-15.937.329l-35.556-21.808c-9.345-5.731-21.238-5.907-30.869 0l-34.103 20.916c-4.683 2.872-10.501 2.873-15.184 0-35.28-21.528-34.447-21.379-37.772-22.832-8.858-3.869-18.947-3.145-27.2 1.916-.111.068-35.732 21.944-36.647 22.409-4.017 2.012-8.941 2.038-12.963.024-39.76-19.929-78.847-51.955-101.626-90.799-5.113-8.716.122-19.884 10.162-21.588 16.838-2.858 33.369-4.633 49.208-5.286 7.252 10.233 15.657 20.065 25.281 29.265 8.483 8.104 21.707 6.518 28.449-2.165 65.052 50.305 155.89 50.574 221.401-.001 4.299 5.525 11.844 8.613 19.195 7.069 5.897-1.245 8.875-4.44 12.777-8.36 8.051-8.07 15.322-16.704 21.796-25.806 15.826.654 32.343 2.428 49.168 5.284 10.023 1.701 15.287 12.855 10.164 21.589z"/></g></g></svg>