<svg id="Capa_1" enable-background="new 0 0 512 512" height="512" viewBox="0 0 512 512" width="512" xmlns="http://www.w3.org/2000/svg"><g><g><path d="m114.572 405.008c-10.019-1.657-16.569 10.184-9.842 17.791l37.857 42.811 28.368-51.277z" fill="#c7c5cb"/><path d="m397.428 405.008c10.019-1.657 16.569 10.184 9.842 17.791l-37.857 42.811-28.368-51.277z" fill="#c7c5cb"/><path d="m202.121 387.296 24.939 62.733-24.939 54.471h-77.153c0-77.408 54.8-117.204 54.8-117.204z" fill="#77718c"/><path d="m199.768 387.296h-20s-54.8 39.797-54.8 117.204h20c.001-77.407 54.8-117.204 54.8-117.204z" fill="#5c586f"/><path d="m387.031 504.5h-77.153l-18.325-58.602 18.325-58.602h22.353c.001 0 54.8 39.796 54.8 117.204z" fill="#77718c"/><circle cx="430.151" cy="250.284" fill="#ffbd86" r="40.649"/><path d="m202.121 387.296h107.757v117.204h-107.757z" fill="#ff748f"/><circle cx="256" cy="230.685" fill="#fed2a4" r="174.151"/><path d="m121.849 230.685c0-89.416 67.391-163.079 154.151-173.001-6.564-.75-13.235-1.15-20-1.15-89.066 0-162.505 66.865-172.884 153.133-.42-.014-.836-.033-1.266-.033-22.45 0-40.649 18.199-40.649 40.649s18.199 40.649 40.649 40.649c3.789 0 7.163-.529 10.17-1.499 24.104 67.273 88.417 115.402 163.98 115.402 6.765 0 13.436-.399 20-1.15-86.759-9.921-154.151-83.584-154.151-173z" fill="#ffbd86"/><path d="m362.657 140.331c-5.792-6.825-16.378-6.675-22.016.278-16.072 19.818-48.974 52.561-74.555 26.742-5.535-5.587-14.635-5.587-20.17 0-25.581 25.819-58.483-6.924-74.555-26.742-5.639-6.953-16.224-7.103-22.016-.278-20.699 24.39-33.194 55.943-33.194 90.357 0 30.403 9.753 58.572 26.295 81.538 6.842 9.499 21.592 7.271 25.232-3.855 13.429-41.047 47.906-70.245 88.324-70.245s74.895 29.198 88.324 70.245c3.64 11.126 18.39 13.354 25.232 3.855 16.542-22.966 26.295-51.135 26.295-81.538-.002-34.414-12.497-65.968-33.196-90.357z" fill="#77718c"/><path d="m89.143 279.446c-7.741 0-14.016 6.275-14.016 14.016v15.863c0 7.741 6.275 14.016 14.016 14.016 7.741 0 14.016-6.275 14.016-14.016v-15.863c-.001-7.741-6.276-14.016-14.016-14.016z" fill="#f9f097"/><path d="m273.204 21.106c-1.63-7.876-8.432-13.606-16.475-13.606h-.478c-8.043 0-14.846 5.729-16.475 13.606-5.154 24.906-22.825 39.825-22.825 39.825 15.53 5.651 25.208 16.73 31.099 26.853 3.747 6.438 13.134 6.438 16.881 0 5.891-10.123 15.569-21.201 31.099-26.853 0 0-17.672-14.919-22.826-39.825z" fill="#ff748f"/><path d="m239.776 21.105c-5.154 24.906-22.825 39.826-22.825 39.826 5.599 2.037 10.426 4.787 14.601 7.936.003-.001.005-.002.008-.004 26.046-13.01 24.691-61.363 24.691-61.363-8.043 0-14.846 5.729-16.475 13.605z" fill="#fd5f7e"/></g><g><path d="m337.196 310.703c5.543 16.945 28.026 20.372 38.446 5.906 39.995-55.526 35.949-130.211-7.267-181.131-8.762-10.325-24.903-10.267-33.56.407-22.905 28.242-38.91 33.085-46.412 33.458-6.28.31-11.834-2.066-16.991-7.271-8.478-8.556-22.349-8.557-30.826 0-5.157 5.205-10.712 7.585-16.991 7.271-7.502-.373-23.507-5.216-46.412-33.458-8.665-10.684-24.807-10.72-33.56-.407-43.199 50.9-47.277 125.584-7.268 181.131 10.439 14.492 32.913 11.008 38.447-5.906 19.814-60.568 83.918-84.95 130.759-47.019 14.465 11.711 25.403 27.97 31.635 47.019zm-140.199-58.677c-16.713 13.534-29.317 32.211-36.45 54.011-1.728 5.282-8.744 6.351-12.019 1.804-35.814-49.722-32.385-116.802 6.533-162.658 2.799-3.298 7.833-3.106 10.473.149 13.933 17.181 35.188 37.891 57.317 38.991 10.631.527 20.18-3.406 28.392-11.695 2.599-2.623 6.905-2.632 9.514 0 8.212 8.289 17.766 12.225 28.391 11.695 22.13-1.1 43.384-21.811 57.317-38.991 2.64-3.255 7.674-3.447 10.473-.149 38.864 45.792 42.399 112.865 6.533 162.658-3.281 4.555-10.295 3.469-12.019-1.803-23.273-71.137-99.899-98.191-154.455-54.012z"/><path d="m179.769 202.87c-4.142 0-7.5 3.357-7.5 7.5v16.608c0 4.142 3.358 7.5 7.5 7.5s7.5-3.358 7.5-7.5v-16.608c0-4.143-3.358-7.5-7.5-7.5z"/><path d="m332.231 234.478c4.142 0 7.5-3.358 7.5-7.5v-16.608c0-4.143-3.358-7.5-7.5-7.5s-7.5 3.357-7.5 7.5v16.608c0 4.142 3.358 7.5 7.5 7.5z"/><path d="m270.443 260.813c-7.635 8.761-21.23 8.786-28.887 0-2.721-3.123-7.459-3.448-10.582-.727s-3.448 7.458-.727 10.581c13.601 15.609 37.862 15.653 51.504 0 2.721-3.123 2.396-7.86-.727-10.582-3.122-2.72-7.859-2.395-10.581.728z"/><path d="m67.626 296.3v13.024c0 17.591 20.036 27.681 34.16 17.37 16.31 26.181 38.698 47.354 64.765 62.101-3.849 3.66-8.634 8.638-13.704 14.94l-37.053-6.128c-16.961-2.804-28.097 17.253-16.685 30.159l25.544 28.886c-4.312 13.893-7.186 29.881-7.186 47.847 0 4.142 3.358 7.5 7.5 7.5h262.063c4.142 0 7.5-3.358 7.5-7.5 0-17.924-2.777-33.9-7.11-47.934l25.468-28.8c11.41-12.903.277-32.963-16.685-30.158l-36.976 6.115c-5.07-6.286-9.866-11.265-13.731-14.923 15.791-8.94 30.106-20.182 42.715-33.561 2.841-3.015 2.7-7.762-.314-10.603s-7.762-2.699-10.602.314c-77.51 82.251-211.983 64.993-266.805-32.976.203-1.616.303-18.606-.016-21.178-.788-6.32-4.349-11.845-9.36-15.201-1.946-1.309-4.35-2.37-6.405-2.919-11.787-45.271-4.394-95.844 24.593-137.325 2.373-3.395 1.543-8.071-1.852-10.443-3.394-2.373-8.071-1.545-10.443 1.852-15.921 22.783-26.245 48.544-30.475 75.675-24.055 2.656-42.832 23.098-42.832 47.85 0 21.524 13.915 39.911 33.926 46.016zm62.905 144.355-20.183-22.825c-2.053-2.321-.102-5.934 3-5.423l29.684 4.909c-4.688 7.25-8.947 15.127-12.501 23.339zm50.312-44.568c4.71 2.144 9.961 4.231 13.779 5.605v95.308h-20.637v-35.661c0-4.142-3.358-7.5-7.5-7.5s-7.5 3.358-7.5 7.5v35.661h-26.337c1.957-40.829 21.209-77.592 48.195-100.913zm28.778 10.265c28.942 7.635 61.472 8.269 92.757.017v90.631h-92.757zm189.031 6.055c3.072-.508 5.07 3.083 3.001 5.423l-20.126 22.759c-3.77-8.719-8.064-16.482-12.469-23.288zm-67.489-16.315c27.502 23.767 46.249 60.435 48.189 100.908h-26.338v-35.661c0-4.142-3.358-7.5-7.5-7.5s-7.5 3.358-7.5 7.5v35.661h-20.637v-95.309c4.802-1.727 9.765-3.77 13.786-5.599zm-242.021-80.252c-3.593 0-6.516-2.923-6.516-6.516.054-17.24-.36-17.051.939-19.216 3.098-5.146 10.793-3.661 11.96 2.046.208 1.022.127 18.296.131 17.19-.012 3.595-2.934 6.496-6.514 6.496zm-14.342-97.951c-1.318 18.978.299 37.935 4.802 56.288-3.313 1.634-6.323 4.222-8.465 7.499-13.282-4.472-22.437-16.9-22.437-31.392 0-15.86 11.195-29.155 26.1-32.395z"/><path d="m401.258 334.253c2.431 0 4.815-1.18 6.259-3.358 6.881-10.383 12.625-21.366 17.194-32.785 28.937 3.267 53.589-19.491 53.589-47.827 0-24.77-18.803-45.224-42.885-47.856-11.556-73.043-65.664-130.633-135.407-148.012-3.336-3.15-15.505-15.722-19.459-34.831-2.349-11.347-12.367-19.584-23.82-19.584h-.478c-11.454 0-21.472 8.237-23.82 19.585-3.805 18.388-15.443 30.917-19.162 34.534-32.733 7.894-62.58 24.733-86.416 48.83-2.913 2.945-2.887 7.694.058 10.606 2.945 2.914 7.693 2.887 10.606-.058 21.781-22.019 49.019-37.454 78.892-44.731 10.481 4.557 18.643 11.59 25.158 22.789 6.637 11.404 23.201 11.419 29.845 0 5.839-10.035 14.012-18.067 24.806-22.634 111.051 27.547 162.451 157.625 98.794 253.687-3.323 5.017.339 11.645 6.246 11.645zm-154.139-311.628c.929-4.49 4.684-7.625 9.131-7.625h.478c4.447 0 8.202 3.136 9.131 7.625 3.35 16.191 11.437 28.498 17.584 35.935-9.692 5.595-18.43 14.172-24.997 25.451-.856 1.471-3.055 1.479-3.916 0-5.996-10.298-14.422-19.361-24.997-25.451 6.15-7.436 14.236-19.743 17.586-35.935zm190.079 195.264c14.905 3.24 26.102 16.535 26.102 32.396 0 18.375-14.997 33.322-33.437 33.148 6.36-20.815 8.889-43.371 7.335-65.544z"/></g></g></svg>