<svg id="Capa_1" enable-background="new 0 0 512 512" height="512" viewBox="0 0 512 512" width="512" xmlns="http://www.w3.org/2000/svg"><g><g><circle cx="256" cy="205.936" fill="#c7c5cb" r="184.429"/><path d="m101.571 205.936c0-96.807 74.588-176.184 169.429-183.819-4.948-.398-9.949-.609-15-.609-101.857 0-184.429 82.571-184.429 184.429 0 101.857 82.571 184.429 184.429 184.429 5.051 0 10.052-.211 15-.61-94.841-7.636-169.429-87.013-169.429-183.82z" fill="#b2b0bc"/><path d="m484.55 117.93-55.74 21.789 6.457-108.59c.478-8.034-9.082-12.549-14.984-7.078l-90.444 83.856-4.823-37.106c-.919-7.068-9.34-10.263-14.716-5.584l-27.119 23.603-18.728-75.267c-2.746-8.07-14.16-8.07-16.906 0l-18.728 75.267-27.118-23.603c-5.376-4.679-13.798-1.484-14.716 5.584l-4.823 37.106-90.445-83.855c-5.902-5.472-15.461-.956-14.984 7.078l6.457 108.59-55.74-21.79c-7.665-2.996-14.959 5.093-11.187 12.408l40.331 78.22c13.729 26.626 41.177 43.356 71.134 43.356h53.128 150.289 53.128c29.957 0 57.406-16.73 71.134-43.356l40.331-78.22c3.771-7.315-3.523-15.404-11.188-12.408z" fill="#f9f097"/><path d="m331.145 251.914c0 41.501-33.643 55.93-75.145 55.93s-75.145-14.428-75.145-55.93 33.643-45.816 75.145-45.816 75.145 4.315 75.145 45.816z" fill="#da9d81"/><path d="m452.576 299.488h-76.182c-14.739 0-28.388 7.427-36.72 19.586-32.493 47.416-83.674 57.47-83.674 57.47s-51.181-10.054-83.674-57.471c-8.332-12.158-21.981-19.586-36.72-19.586h-76.182c-12.963 0-20.025 15.177-11.637 25.06 16.788 19.782 46.472 49.571 94.854 83.101 0 0-45.493 38.175-45.493 96.851h120.949l37.903-13.826 37.903 13.827h120.949c0-58.676-45.493-96.851-45.493-96.851 48.382-33.531 78.066-63.319 94.854-83.101 8.388-9.884 1.326-25.06-11.637-25.06z" fill="#fccb88"/><path d="m150.732 391.794c-35.684-26.995-58.856-50.644-72.945-67.246-8.388-9.883-1.326-25.06 11.637-25.06h-30c-12.967 0-20.023 15.179-11.633 25.065 16.789 19.782 46.472 49.569 94.85 83.097 0 0-45.493 38.175-45.493 96.851h30c0-34.136 15.398-61.333 28.277-78.112 8.312-10.829 6.194-26.36-4.693-34.595z" fill="#fab659"/><path d="m293.903 504.5 22.888-49.941-43.923 13.452-16.868-42.728-16.868 42.728-43.923-13.452 22.888 49.941z" fill="#f9f097"/></g><g><path d="m168.652 200.728v-19.237c0-4.142-3.358-7.5-7.5-7.5s-7.5 3.358-7.5 7.5v19.237c0 4.142 3.358 7.5 7.5 7.5s7.5-3.358 7.5-7.5z"/><path d="m358.346 200.728v-19.237c0-4.142-3.358-7.5-7.5-7.5s-7.5 3.358-7.5 7.5v19.237c0 4.142 3.358 7.5 7.5 7.5s7.5-3.358 7.5-7.5z"/><path d="m273.907 237.34c-9.465 10.861-26.323 10.893-35.815 0-2.721-3.123-7.459-3.448-10.582-.727-3.123 2.722-3.448 7.459-.727 10.582 15.462 17.741 42.985 17.724 58.432 0 2.722-3.123 2.396-7.86-.727-10.582-3.122-2.721-7.86-2.395-10.581.727z"/><path d="m481.818 110.945-44.827 17.523 5.762-96.895c.877-14.762-16.724-23.078-27.57-13.022l-39.926 37.018c-29.692-23.618-64.994-37.649-102.785-40.846-.745-2.963-.748-3.087-.92-3.586-2.302-6.765-8.407-11.137-15.553-11.137-8.101 0-14.224 5.683-15.731 11.742l-.742 2.981c-37.791 3.197-73.093 17.228-102.785 40.846l-39.926-37.018c-10.844-10.052-28.448-1.743-27.57 13.022l1.815 30.537c.246 4.135 3.805 7.286 7.932 7.042 4.135-.246 7.288-3.797 7.042-7.932 0 0-1.809-30.436-1.815-30.537-.076-1.278 1.473-1.988 2.398-1.132.1.093 90.606 84.229 92.061 84.993 4.572 2.421 10.245-.472 10.919-5.67l4.823-37.106c.148-1.139 1.482-1.653 2.355-.894l27.118 23.603c4.239 3.692 10.856 1.564 12.202-3.846l18.628-74.868c.462-1.031 2.087-1.03 2.549 0l18.628 74.868c1.351 5.429 7.977 7.524 12.202 3.846 28.686-24.622 27.066-24.429 28.563-23.86 1.51.573.492-.077 5.733 38.257.788 6.069 8.125 8.633 12.536 4.533 16.565-15.358 80.152-74.313 90.444-83.855.945-.876 2.47-.124 2.398 1.133l-6.457 108.59c-.323 5.452 5.121 9.422 10.218 7.431 0 0 55.629-21.746 55.74-21.789 1.222-.478 2.383.837 1.79 1.986l-40.33 78.219c-11.467 22.24-33.489 36.869-58.051 39.002-4.719.417-3.459.261-52.415.291-1.124-10.885-4.856-20.875-12.705-28.684-16.535-16.48-46.024-17.133-69.57-17.133-18.913 0-38.358.855-53.339 6.78-17.296 6.839-27.023 20.146-28.936 39.037-48.062-.029-50.453.488-59.729-1.305-21.611-4.146-40.438-18.014-50.737-37.988 0 0-40.264-78.09-40.33-78.219-.603-1.17.589-2.455 1.79-1.986l55.739 21.789c5.087 1.988 10.542-1.968 10.218-7.431l-2.879-48.412c-.246-4.135-3.802-7.288-7.932-7.042-4.135.246-7.288 3.797-7.042 7.932l2.184 36.717-44.823-17.525c-14.135-5.523-27.501 9.413-20.584 22.831l40.331 78.219c4.3 8.34 9.802 15.775 16.228 22.15 2.98 20.246 9.109 39.64 18.272 57.843h-25.004c-19.344 0-29.885 22.649-17.355 37.413 15.755 18.565 43.724 46.986 88.786 79.129-13.384 13.815-41.207 48.271-41.207 95.97 0 4.142 3.358 7.5 7.5 7.5h317.703c4.143 0 7.5-3.358 7.5-7.5 0-47.698-27.822-82.155-41.206-95.97 12.892-9.196 25.132-18.619 36.481-28.087 3.18-2.654 3.607-7.383.954-10.563-2.654-3.181-7.384-3.608-10.563-.955-13.191 11.006-27.635 21.96-42.931 32.561-4.05 2.806-4.349 8.721-.549 11.909.408.343 38.957 33.264 42.546 83.606h-43.408v-38.451c0-4.142-3.358-7.5-7.5-7.5s-7.5 3.358-7.5 7.5v38.45h-43.086l18.02-39.317c2.691-5.874-2.839-12.187-9.015-10.296l-37.296 11.422-14.323-36.28c-2.49-6.307-11.458-6.319-13.952 0l-14.323 36.28-37.296-11.422c-6.174-1.891-11.707 4.421-9.015 10.296l18.021 39.317h-43.086v-38.451c0-4.142-3.358-7.5-7.5-7.5-4.143 0-7.5 3.358-7.5 7.5v38.451h-43.407c3.603-50.152 42.145-83.268 42.545-83.606 3.781-3.173 3.52-9.09-.549-11.909-48.156-33.374-77.376-62.898-93.408-81.79-4.258-5.016-.648-12.707 5.919-12.707 82.909 0 79.169-.387 85.078 1.113 8.649 2.195 16.383 7.545 21.637 15.212 15.861 23.146 35.794 37.81 52.723 46.903 13.434 7.216 27.661 12.111 35.692 13.687.946.186 1.927.189 2.892 0 2.213-.435 54.578-11.213 88.416-60.59 7.005-10.223 18.419-16.325 30.533-16.325h76.182c6.591 0 10.159 7.71 5.919 12.707-8.189 9.649-17.717 19.61-28.318 29.604-3.014 2.842-3.154 7.588-.313 10.603 2.842 3.015 7.589 3.153 10.602.312 11.004-10.375 20.917-20.742 29.465-30.813 12.515-14.748 2.008-37.413-17.355-37.413h-25.004c9.163-18.203 15.292-37.597 18.271-57.843 6.427-6.375 11.928-13.81 16.229-22.15l40.33-78.219c6.936-13.453-6.495-28.338-20.584-22.831zm-275.194-51.385c-9.859-8.581-25.377-2.735-27.078 10.274l-2.949 22.688-28.725-26.632c25.633-19.861 55.672-32.078 87.811-35.723l-11.185 44.951zm125.828 10.274c-1.684-12.952-17.192-18.867-27.067-10.283-.003.003-.007.005-.011.008l-17.875 15.558-11.185-44.951c32.139 3.645 62.178 15.862 87.811 35.723l-28.725 26.632zm-95.518 405.347c3.742 1.146 7.735-.777 9.172-4.417l9.892-25.057 9.892 25.057c1.437 3.64 5.43 5.564 9.172 4.417l27.947-8.559-13.92 30.378h-66.18l-13.922-30.377zm86.709-223.267c0 36.951-30.497 48.43-67.645 48.43-37.176 0-67.645-11.415-67.645-48.43 0-16.271 5.443-26.035 17.648-31.66 12.695-5.85 31.532-6.657 49.996-6.657 14.619 0 34.101.379 47.546 5.618 14.731 5.746 20.1 16.389 20.1 32.699zm86.966 40.074h-34.216c-17.063 0-33.104 8.541-42.907 22.846-12.496 18.236-29.394 32.545-48.653 42.675-10.47 5.509-21.049 9.403-28.834 11.338-27.833-6.916-58.582-26.422-77.488-54.014-7.913-11.546-19.955-19.423-33.451-21.963-7.88-1.483-11.21-.642-43.672-.882-7.801-13.975-13.602-28.771-17.335-44.194 13.498 7.762 28.682 11.62 43.674 11.62h45.973c4.02 41.409 40.506 55.93 82.299 55.93 8.376-.667 52.227 1.383 72.834-28.574 5.665-8.234 8.492-17.526 9.465-27.355 44.287-.145 47.015.334 54.79-.443 11.632-1.159 23.666-4.741 34.856-11.176-3.733 15.42-9.534 30.218-17.335 44.192z"/></g></g></svg>