<svg id="Capa_1" enable-background="new 0 0 512 512" height="512" viewBox="0 0 512 512" width="512" xmlns="http://www.w3.org/2000/svg"><g><g><path d="m85.587 165.972-53.969-37.782c-8.123-5.687-19.285.124-19.285 10.04v67.867c0 33.337 18.721 64.122 48.734 78.634 12.609 6.097 27.922 10.966 46.228 12.893z" fill="#ff748f"/><path d="m426.413 165.972 53.969-37.782c8.123-5.687 19.285.124 19.285 10.04v67.867c0 33.337-18.721 64.122-48.734 78.634-12.609 6.097-27.922 10.966-46.228 12.893z" fill="#ff748f"/><path d="m149.863 504.5h-36.021c0-60.442 19.935-99.468 28.508-113.434 14.624-23.825 30.041-35.784 35.99-39.828h155.32c5.949 4.045 21.365 16.003 35.99 39.828 8.573 13.966 28.508 52.991 28.508 113.434h-36.021l-106.137-23.144z" fill="#e8e8e8"/><path d="m362.137 504.5h-212.274c0-44.398 12.607-77.352 23.187-94.59 11.568-18.844 23.29-27.345 25.523-28.858h114.854c2.233 1.513 13.955 10.014 25.523 28.858 10.58 17.238 23.187 50.192 23.187 94.59z" fill="#ff748f"/><circle cx="256" cy="206.841" fill="#a4e6ff" r="187.293"/><path d="m98.707 206.841c0-98.389 75.868-179.052 172.293-186.694-4.949-.392-9.95-.599-15-.599-103.439 0-187.293 83.854-187.293 187.293s83.854 187.293 187.293 187.293c5.05 0 10.051-.207 15-.599-96.425-7.642-172.293-88.305-172.293-186.694z" fill="#5bd6fd"/><path d="m163.948 200.145c-3.305 9.774-5.097 20.245-5.097 31.135 0 53.654 43.495 97.149 97.149 97.149s97.149-43.495 97.149-97.149c0-6.89-.722-13.611-2.086-20.095z" fill="#fed2a4"/><path d="m434.331 114.882c-6.214-11.998-20.891-16.824-33.054-10.939l-145.277 70.29-145.277-70.29c-12.163-5.885-26.84-1.059-33.054 10.939-12.919 24.943-20.753 52.919-22.127 82.553-.29 6.264 1.765 12.41 5.787 17.221 19.543 23.377 85.613 86.859 180.877 16.042 8.187-6.086 19.4-6.086 27.587 0 95.265 70.816 161.335 7.335 180.877-16.042 4.022-4.811 6.077-10.957 5.787-17.221-1.373-29.633-9.207-57.61-22.126-82.553z" fill="#f9f097"/><path d="m92.139 239.843c-4.418-5.285-6.677-12.037-6.358-18.918 1.509-32.555 10.116-63.289 24.308-90.691 4.875-9.413 14.491-14.803 24.457-14.764l-23.823-11.527c-12.163-5.885-26.84-1.059-33.054 10.939-12.919 24.943-20.753 52.919-22.127 82.553-.29 6.264 1.765 12.41 5.787 17.221 6.775 8.104 19.146 21.025 36.381 31.503-2.126-2.291-3.991-4.425-5.571-6.316z" fill="#fccb88"/><g fill="#ff748f"><path d="m256 7.5c-12.443 0-22.53 10.087-22.53 22.53v38.524c0 12.443 10.087 22.53 22.53 22.53s22.53-10.087 22.53-22.53v-38.524c0-12.443-10.087-22.53-22.53-22.53z"/><path d="m177.795 32.2c-10.463 0-18.945 8.482-18.945 18.945v32.394c0 10.463 8.482 18.945 18.945 18.945s18.945-8.482 18.945-18.945v-32.394c0-10.463-8.482-18.945-18.945-18.945z"/><path d="m334.205 32.2c10.463 0 18.945 8.482 18.945 18.945v32.394c0 10.463-8.482 18.945-18.945 18.945s-18.945-8.482-18.945-18.945v-32.394c0-10.463 8.482-18.945 18.945-18.945z"/></g></g><g><path d="m155.285 223.263c4.142 0 7.5-3.358 7.5-7.5v-20.383c0-4.143-3.358-7.5-7.5-7.5s-7.5 3.357-7.5 7.5v20.382c0 4.143 3.358 7.501 7.5 7.501z"/><path d="m356.715 223.263c4.142 0 7.5-3.358 7.5-7.5v-20.383c0-4.143-3.358-7.5-7.5-7.5s-7.5 3.357-7.5 7.5v20.382c0 4.143 3.358 7.501 7.5 7.501z"/><path d="m238.549 259.415c-2.721-3.123-7.459-3.448-10.582-.727s-3.448 7.459-.727 10.582c15.22 17.465 42.315 17.447 57.519 0 2.721-3.123 2.396-7.86-.727-10.582-3.122-2.722-7.86-2.396-10.582.727-9.222 10.584-25.65 10.616-34.901 0z"/><path d="m57.799 291.48c8.77 4.24 18.143 7.587 27.902 9.982 15.155 27.235 36.727 50.558 62.844 67.863-29.899 36.853-42.204 87.741-42.204 135.175 0 4.142 3.357 7.5 7.5 7.5h284.319c4.142 0 7.5-3.358 7.5-7.5 0-47.449-12.313-98.335-42.204-135.174 26.089-17.288 47.671-40.597 62.844-67.863 9.759-2.396 19.132-5.742 27.902-9.982 32.178-15.558 52.97-49.075 52.97-85.387v-67.868c0-15.965-18.002-25.344-31.087-16.184l-23.44 16.41c-3.221-9.214-7.098-18.235-11.65-27.024-5.371-10.37-15.424-16.616-26.229-17.446-14.919-20.93-34.167-39.011-55.986-52.598-4.918-12.344-18.318-19.276-31.373-15.8-14.863-5.858-30.383-9.855-46.231-11.903-11.884-18.244-38.47-18.238-50.349 0-15.847 2.048-31.368 6.045-46.231 11.903-13.049-3.474-26.452 3.448-31.373 15.8-21.821 13.587-41.068 31.668-55.987 52.598-10.805.829-20.858 7.076-26.228 17.446-4.552 8.789-8.429 17.809-11.65 27.024l-23.44-16.41c-13.079-9.156-31.087.211-31.087 16.184v67.868c-.002 36.311 20.791 69.828 52.968 85.386zm103.68 85.717c6.653 3.685 13.31 6.873 19.626 9.504-26.435 28.705-37.402 71.916-38.613 110.298h-21.046c1.187-41.894 12.743-87.156 40.033-119.802zm189.042 0c27.246 32.591 38.843 77.817 40.032 119.802h-21.045c-.448-14.258-2.164-28.196-5.142-41.524-.903-4.043-4.913-6.587-8.955-5.685-4.043.903-6.587 4.913-5.684 8.955 2.741 12.265 4.345 25.1 4.786 38.253h-197.027c1.227-36.85 12.199-79.348 39.079-104.606 38.667 12.38 80.629 12.243 118.87 0 10.115 9.505 19.191 22.619 25.868 39.061 1.559 3.837 5.933 5.686 9.771 4.128 3.838-1.559 5.686-5.933 4.127-9.771-5.86-14.431-13.584-27.469-24.305-39.109 6.371-2.657 13.098-5.879 19.625-9.504zm-70.568 7.835c-94.754 12.661-181.615-50.744-200.108-142.122 22.809 17.779 49.858 28.497 79.226 27.827 15.955 39.216 54.195 65.19 96.929 65.19 42.738 0 80.982-25.979 96.934-65.202 28.863.656 55.995-9.71 79.221-27.814-14.843 73.057-74.575 131.591-152.202 142.121zm-14.634-148.319c21.321 15.849 45.663 28.453 71.894 32.585-14.613 31.232-46.153 51.629-81.213 51.629-35.056 0-66.593-20.392-81.208-51.618 40.157-6.334 69.253-31.477 74.04-33.933 2.236-1.148 11.703-2.219 16.487 1.337zm219.368-102.384c3.156-2.209 7.484.041 7.484 3.896v67.868c0 30.597-17.467 58.812-44.499 71.883-4.001 1.934-8.145 3.662-12.408 5.177 7.339-17.183 12.441-36.126 14.492-56.219 1.91-2.005 4.561-4.948 6.65-7.447 4.817-5.505 7.945-13.784 7.547-22.404-.689-14.871-2.928-29.424-6.678-43.565zm-139.134-84.609c.18 1.331.064-.077.097 33.812 0 6.311-5.134 11.445-11.445 11.445s-11.445-5.134-11.445-11.445c0-34.205-.344-34.117.911-36.866 1.791-4.203 5.968-6.974 10.534-6.974 5.841.001 10.677 4.432 11.348 10.028zm-75.003-23.4c.72 2.826.434-.041.48 42.227 0 7.252-5.162 13.32-12.005 14.724-9.334 1.916-18.055-5.251-18.055-14.724.029-39.154-.5-40.543 1.282-44.574 5.733-12.976 24.747-11.563 28.298 2.347zm-82.223 20.343c1.243 2.901.918 2.453.912 36.869 0 6.311-5.134 11.445-11.445 11.445s-11.445-5.134-11.445-11.445c.109-33.326-.303-32.583.411-35.391 2.869-10.543 17.368-11.324 21.567-1.478zm-104.001 71.663c4.417-8.528 14.654-11.738 23.128-7.637l51.553 24.943c2.912 1.409 6.278.759 8.475-1.364 3.793-3.668 2.695-9.895-1.942-12.138-62.985-30.474-49.441-23.943-51.896-25.108 10.705-13.827 23.49-26.152 37.705-36.364v22.875c0 14.582 11.863 26.445 26.445 26.445s26.445-11.863 26.445-26.445v-32.395c0-5.429-1.723-10.776-4.666-15.034 8.62-2.848 17.443-5.034 26.4-6.543-.052 3.67-.002-11.432-.003 38.986 0 19.894 19.115 34.382 38.319 28.857 10.46-3.008 18.599-11.566 21.003-22.267 1.3-5.778.51-7.522.738-45.115 0-.154-.001-.308-.003-.461 8.956 1.508 17.781 3.695 26.399 6.543-2.908 4.207-4.666 9.549-4.666 15.034v32.394c0 14.582 11.863 26.445 26.445 26.445s26.445-11.863 26.445-26.445v-22.874c14.215 10.212 26.999 22.536 37.705 36.364-.336.157 5.658-2.739-142.356 68.875l-63.731-30.835c-3.734-1.806-8.216-.24-10.018 3.484-1.804 3.729-.244 8.214 3.485 10.018 71.062 34.363 67.021 32.476 67.787 32.744 1.857.651 3.921.553 5.745-.327 153.931-73.952 145.003-71.483 152.192-72.043 6.588-.3 12.984 3.148 16.216 9.389 12.252 23.657 19.961 50.688 21.295 79.452.205 4.411-1.233 8.696-4.049 12.064-31.96 38.225-68.757 43.749-68.657 43.705-36.417 7.759-72.28-6.445-101.994-28.871-10.927-8.124-25.61-8.124-36.536 0-60.812 45.205-118.17 39.205-162.923-6.325-12.588-12.805-12.279-14.994-11.435-26.16 1.838-24.362 8.286-49.416 20.95-73.866zm-64.497 19.899c0-2.917 2.423-4.777 4.803-4.777 2.694 0 2.156.927 30.092 20.071-3.749 14.141-5.988 28.694-6.677 43.565-.632 13.641 6.377 21.641 14.197 29.851 2.067 20.112 7.155 39.089 14.492 56.219-4.264-1.515-8.407-3.243-12.408-5.177-27.032-13.07-44.499-41.286-44.499-71.883z"/></g></g></svg>