<svg id="Capa_1" enable-background="new 0 0 512 512" height="512" viewBox="0 0 512 512" width="512" xmlns="http://www.w3.org/2000/svg"><g><g><path d="m452.569 279.355 11.749 14.337c35.305 43.084 29.803 107.069-13.3 142.35-20.97 17.165-49.461 26.433-87.598 14.82h-214.84c-38.137 11.613-66.628 2.345-87.598-14.82-43.103-35.281-48.605-99.267-13.3-142.35l11.749-14.337z" fill="#c6ade3"/><path d="m90.982 436.042c-43.103-35.281-48.605-99.267-13.3-142.351l11.749-14.337h-30l-11.749 14.337c-35.305 43.084-29.803 107.069 13.3 142.351 17.701 14.489 40.76 23.35 70.455 18.778-15.855-2.673-29.233-9.592-40.455-18.778z" fill="#b08bd7"/><path d="m68.642 122.47h374.716c-34.793-68.176-105.712-114.97-187.358-114.97-81.647 0-152.566 46.794-187.358 114.97z" fill="#f9f097"/><path d="m276 8.451c-6.585-.625-13.255-.951-20-.951-81.647 0-152.566 46.794-187.358 114.97h40c31.918-62.543 94.242-107.085 167.358-114.019z" fill="#fccb88"/><path d="m331.487 375.173h-150.974s-70.595 45.461-61.689 129.327h56.93l80.246-21.22 80.246 21.22h56.93c8.906-83.866-61.689-129.327-61.689-129.327z" fill="#ffdcce"/><path d="m210.513 375.173h-30s-70.595 45.461-61.689 129.327h30c-8.906-83.866 61.689-129.327 61.689-129.327z" fill="#ffcabd"/><path d="m347.596 102.078s-63.668-3.356-91.596-41.154c-27.928 37.798-91.596 41.154-91.596 41.154l-24.124 15.655-21.464-8.042c-23.429 29.717-37.411 67.228-37.411 108.007 0 96.426 78.169 174.595 174.595 174.595s174.595-78.169 174.595-174.595c0-42.917-15.494-82.21-41.182-112.612z" fill="#ffdcce"/><path d="m121.405 217.697c0-16.393 2.264-32.255 6.488-47.298h-40c-4.224 15.042-6.488 30.905-6.488 47.298 0 96.426 78.169 174.596 174.595 174.596 6.765 0 13.436-.398 20-1.147-87.005-9.924-154.595-83.787-154.595-173.449z" fill="#ffcabd"/><path d="m256 225.505s73.062 90.133 186.099 94.022c11.981.412 22.531-7.803 25.339-19.458 5.547-23.024 8.238-62.512-24.13-95.201-5.258-5.31-5.258-13.79 0-19.1 32.368-32.689 29.678-72.177 24.13-95.201-2.808-11.655-13.358-19.87-25.339-19.458-113.037 3.891-186.099 94.024-186.099 94.024z" fill="#ffa2e7"/><path d="m363.496 177.036h-16.239c-19.217 0-34.795 15.578-34.795 34.795 0 19.217 15.578 34.795 34.795 34.795h16.239c19.217 0 34.795-15.578 34.795-34.795.001-19.217-15.578-34.795-34.795-34.795z" fill="#ffdcce"/><path d="m256 225.505s-73.062 90.133-186.099 94.022c-11.981.412-22.531-7.803-25.339-19.458-5.547-23.024-8.238-62.512 24.13-95.201 5.258-5.31 5.258-13.79 0-19.1-32.368-32.689-29.678-72.177-24.13-95.201 2.808-11.655 13.358-19.87 25.339-19.458 113.037 3.891 186.099 94.024 186.099 94.024z" fill="#ffa2e7"/><path d="m148.504 177.036h16.239c19.217 0 34.795 15.578 34.795 34.795 0 19.217-15.578 34.795-34.795 34.795h-16.239c-19.217 0-34.795-15.578-34.795-34.795-.001-19.217 15.578-34.795 34.795-34.795z" fill="#ffdcce"/><path d="m336.246 477.914c0-23.781-19.279-43.06-43.06-43.06-15.864 0-29.715 8.585-37.186 21.357-7.47-12.772-21.321-21.357-37.186-21.357-23.781 0-43.06 19.279-43.06 43.06v26.586h160.492z" fill="#ffa2e7"/><circle cx="90.537" cy="375.173" fill="#f9f097" r="23.171"/><circle cx="421.463" cy="375.173" fill="#f9f097" r="23.171"/><path d="m256 130.225c-14.253 0-25.808 11.555-25.808 25.808v78.572c0 14.253 11.555 25.808 25.808 25.808s25.808-11.555 25.808-25.808v-78.572c0-14.253-11.555-25.808-25.808-25.808z" fill="#c6ade3"/><path d="m69.901 71.11c-11.981-.413-22.531 7.803-25.339 19.458-5.547 23.024-8.238 62.512 24.13 95.201 5.258 5.311 5.258 13.79 0 19.1-32.368 32.689-29.678 72.177-24.13 95.201 2.808 11.655 13.358 19.87 25.339 19.458 14.194-.488 27.757-2.338 40.625-5.197-.06-.113-.114-.224-.174-.336-53.076-99.859-8.304-239.013-8.189-239.371-10.345-1.895-21.105-3.13-32.262-3.514z" fill="#ff8ce2"/></g><g><path d="m347.258 254.143h16.238c23.32 0 42.293-18.972 42.293-42.293s-18.972-42.293-42.293-42.293h-16.238c-23.32 0-42.293 18.972-42.293 42.293s18.973 42.293 42.293 42.293zm0-69.587h16.238c15.05 0 27.294 12.244 27.294 27.294s-12.244 27.294-27.294 27.294h-16.238c-15.05 0-27.294-12.244-27.294-27.294s12.244-27.294 27.294-27.294z"/><path d="m355.377 227.943c4.142 0 7.5-3.358 7.5-7.5v-17.186c0-4.141-3.358-7.5-7.5-7.5s-7.5 3.358-7.5 7.5v17.186c.001 4.142 3.359 7.5 7.5 7.5z"/><path d="m148.517 254.143h16.239c23.32 0 42.293-18.972 42.293-42.293s-18.972-42.293-42.293-42.293h-16.239c-23.32 0-42.293 18.972-42.293 42.293s18.973 42.293 42.293 42.293zm0-69.587h16.239c15.05 0 27.294 12.244 27.294 27.294s-12.244 27.294-27.294 27.294h-16.239c-15.05 0-27.294-12.244-27.294-27.294s12.245-27.294 27.294-27.294z"/><path d="m156.637 227.943c4.142 0 7.5-3.358 7.5-7.5v-17.186c0-4.141-3.358-7.5-7.5-7.5s-7.5 3.358-7.5 7.5v17.186c0 4.142 3.358 7.5 7.5 7.5z"/><path d="m277.68 278.512c-3.122-2.721-7.859-2.396-10.581.728-5.865 6.729-16.303 6.749-22.185-.001-2.722-3.122-7.459-3.447-10.581-.726s-3.448 7.459-.727 10.581c11.855 13.601 32.959 13.589 44.8 0 2.722-3.124 2.397-7.861-.726-10.582z"/><path d="m90.555 344.513c-16.911 0-30.669 13.758-30.669 30.669s13.758 30.669 30.669 30.669 30.669-13.758 30.669-30.669-13.758-30.669-30.669-30.669zm0 46.338c-8.641 0-15.67-7.029-15.67-15.67 0-8.64 7.029-15.67 15.67-15.67s15.67 7.03 15.67 15.67c0 8.641-7.03 15.67-15.67 15.67z"/><path d="m421.46 344.513c-16.911 0-30.669 13.758-30.669 30.669s13.758 30.669 30.669 30.669 30.669-13.758 30.669-30.669-13.758-30.669-30.669-30.669zm0 46.338c-8.641 0-15.67-7.029-15.67-15.67 0-8.64 7.03-15.67 15.67-15.67 8.641 0 15.67 7.03 15.67 15.67 0 8.641-7.03 15.67-15.67 15.67z"/><path d="m448.632 199.612c-2.372-2.396-2.372-6.15 0-8.545 35.496-35.846 31.582-79.435 26.091-102.228-3.645-15.129-17.469-25.722-32.886-25.195-10.09.347-19.87 1.368-29.318 2.935-13.838-14.327-29.55-26.687-46.756-36.776-3.572-2.095-8.168-.897-10.263 2.676s-.897 8.168 2.676 10.263c13.234 7.76 25.521 16.964 36.659 27.448-20.163 4.944-40.126 12.626-59.534 22.916-26.321-4.161-57.431-15.188-73.261-36.611-2.996-4.054-9.068-4.053-12.064 0-15.827 21.418-46.957 32.448-73.261 36.611-19.411-10.292-39.378-17.974-59.544-22.918 57.187-53.956 140.443-69.965 213.529-40.876 3.849 1.533 8.21-.346 9.741-4.195 1.532-3.848-.346-8.209-4.195-9.741-80.877-32.19-174.536-13.235-236.736 51.204-9.452-1.568-19.237-2.59-29.332-2.937-15.411-.532-29.241 10.065-32.887 25.195-5.491 22.793-9.405 66.382 26.091 102.228 2.372 2.396 2.372 6.15 0 8.545-32.959 33.284-31.94 73.24-27.23 97.029-48.423 70.761.696 164.572 76.975 166.821-2.668 13.567-3.263 27.54-1.745 41.83.405 3.814 3.622 6.708 7.458 6.708h274.334c3.835 0 7.053-2.893 7.458-6.708 1.508-14.196.875-28.214-1.813-41.829 76.423-2.205 125.406-96.149 77.042-166.823 4.71-23.787 5.729-63.743-27.229-97.027zm-6.28-120.979c8.33-.284 15.804 5.483 17.788 13.718 5.815 24.134 6.69 59.02-22.167 88.161-8.095 8.175-8.095 21.478 0 29.653 28.856 29.141 27.982 64.027 22.167 88.161-1.984 8.235-9.47 14.006-17.788 13.718-57.882-1.984-113.555-28.994-155.109-65.85 1.384-3.721 2.071-7.757 2.071-11.572 0-3.463 0-75.111 0-78.567 0-4.027-.781-8.09-2.069-11.568 43.226-37.844 97.669-63.877 155.107-65.854zm-319.235 240.328c47.534-12.914 85.007-38.547 109.988-60.13 12.712 12.095 33.019 12.165 45.805 0 24.98 21.583 62.454 47.216 109.988 60.13-66.745 87.514-198.751 87.889-265.781 0zm151.197-162.905v78.567c0 19.762-27.341 25.539-35.198 7.051-2.475-5.911-.962-3.331-1.416-85.618 0-9.293 7.025-17.176 16.303-18.192 10.771-1.197 20.311 7.232 20.311 18.192zm41.426-51.586c-12.885 8.158-25.453 17.539-36.831 27.378-12.923-12.295-33.242-11.951-45.805 0-11.466-9.915-24.046-19.283-36.831-27.378 21.937-5.467 44.097-15.484 59.733-31.912 15.639 16.43 37.9 26.47 59.734 31.912zm-241.699 105.696c8.095-8.175 8.095-21.478 0-29.653-28.856-29.141-27.982-64.027-22.167-88.161 1.983-8.229 9.459-14.005 17.788-13.718 57.011 1.962 111.076 27.471 155.108 65.854-2.137 5.749-1.969 10.524-2.069 11.569.016 83.464-.037 78.543.041 80.167.156 3.249.82 6.701 2.03 9.972-42.497 37.577-98.16 63.898-155.11 65.85-8.341.277-15.802-5.476-17.788-13.718-5.815-24.135-6.689-59.021 22.167-88.162zm109.225 286.835v-19.085c0-19.607 15.951-35.558 35.558-35.558 12.577 0 24.345 6.76 30.71 17.643 2.893 4.945 10.055 4.944 12.947 0 6.365-10.882 18.132-17.642 30.709-17.642 19.607 0 35.558 15.951 35.558 35.558v19.085h-145.482zm202.994 0h-42.512v-19.085c0-27.878-22.68-50.557-50.557-50.557-14.219 0-27.707 6.071-37.183 16.331-9.477-10.259-22.965-16.331-37.184-16.331-27.877 0-50.557 22.679-50.557 50.557v19.085h-42.51c-1.237-22.535 3.472-45.181 15.354-66.811 2.001-3.642.642-8.207-2.969-10.187-3.631-1.995-8.189-.668-10.184 2.962-4.271 7.768-8.205 16.795-10.989 25.551-63.425.554-106.46-73.429-73.874-134.457 4.808 6.411 12.347 11.22 20.937 12.59 9.704 1.545 33.729-2.061 43.198-3.95 15.777 22.266 36.015 40.486 59.356 53.65-5.68 4.736-13.195 11.7-20.884 20.839-2.666 3.169-2.259 7.9.911 10.567 3.208 2.693 7.927 2.233 10.571-.909 7.003-8.321 15.447-16.493 24.148-23.035 45.867 20.705 100.665 21.926 149.343.004 9.983 7.508 40.268 33.049 51.469 73.964 3.625 13.223 4.855 25.956 4.116 39.222zm8.784-48.485c-11.578-36.509-35.878-60.789-49.59-72.181 23.198-13.088 43.476-31.26 59.331-53.636 9.418 1.879 33.598 5.49 43.209 3.948 8.398-1.341 15.876-5.956 20.925-12.588 32.674 61.192-10.623 135.031-73.875 134.457z"/></g></g></svg>