<svg id="Capa_1" enable-background="new 0 0 512 512" height="512" viewBox="0 0 512 512" width="512" xmlns="http://www.w3.org/2000/svg"><g><g><path d="m44.175 219.325c0-116.8 95.024-211.825 211.825-211.825s211.825 95.025 211.825 211.825z" fill="#76e6d5"/><path d="m276 8.451c-6.586-.62-13.255-.951-20-.951-116.801 0-211.825 95.025-211.825 211.825h40c0-110.055 84.37-200.763 191.825-210.874z" fill="#00d6bc"/><path d="m467.825 219.325c9.134 232.818-100.033 242.034-100.033 242.034h-223.584s-109.167-9.215-100.033-242.034z" fill="#76e6d5"/><path d="m84.175 219.325h-40c-9.134 232.818 100.033 242.034 100.033 242.034h40s-109.167-9.216-100.033-242.034z" fill="#00d6bc"/><path d="m475.594 124.306c6.955-2.632 14.603 1.583 15.968 8.893 6.666 35.71 16.962 133.778-71.021 133.778l-4.314-99.623c-.001-.001 25.159-30.106 59.367-43.048z" fill="#ffcabd"/><path d="m324.704 376.249-57.671 64.126-84.686 64.125-51.211-53.037c16.672-55.886 56.16-75.215 56.16-75.215h137.408z" fill="#ffa2e7"/><path d="m161.136 451.463c16.672-55.886 56.16-75.215 56.16-75.215h-30s-39.489 19.329-56.16 75.215z" fill="#ff8ce2"/><path d="m426.171 199.919c-3.113-27.541-16.022-53.203-37.104-71.195-26.69-22.779-71.073-37.919-133.067 15.059-61.989-52.973-106.37-37.84-133.061-15.064-20.907 17.84-33.838 43.228-37.033 70.526-.781 6.675-1.178 13.467-1.168 20.355.149 94.541 79.428 172.426 173.959 170.967 93.341-1.441 168.564-77.556 168.564-171.241.001-6.563-.37-13.038-1.09-19.407z" fill="#ffdcce"/><path d="m114.739 219.599c-.011-6.887.386-13.68 1.168-20.354 3.195-27.298 16.126-52.686 37.033-70.526 10.247-8.744 23.104-16.355 38.56-19.425-29.422-5.513-52.281 5.534-68.56 19.425-12.151 10.368-21.601 23.289-28.018 37.65-4.624-5.249-27.949-30.498-58.515-42.063-6.955-2.631-14.603 1.583-15.968 8.893-6.666 35.71-16.962 133.777 71.021 133.777l.022-.504c21.06 72.058 88.904 125.303 167.216 124.094 4.183-.064 8.328-.285 12.433-.645-86.584-7.718-156.253-81.702-156.392-170.322z" fill="#ffcabd"/><path d="m375.607 176.291c-22.487-12.017-50.717-13.428-76.163-1.358-14.164 6.718-25.637 16.747-33.875 28.633-4.604 6.642-14.533 6.642-19.137 0-8.239-11.886-19.712-21.915-33.875-28.633-25.447-12.07-53.677-10.659-76.163 1.358-11.331 6.055-17.345 18.735-14.865 31.34 4.921 25.017 21.689 47.771 47.136 59.841 29.877 14.171 63.586 9.752 87.337-8.591 23.751 18.343 57.46 22.763 87.337 8.591 25.447-12.07 42.215-34.824 47.136-59.841 2.477-12.605-3.537-25.285-14.868-31.34z" fill="#00d6bc"/><path d="m380.864 451.463-51.211 53.037h-95.75l33.13-64.126 84.686-42.009c10.638 11.876 21.996 29.125 29.145 53.098z" fill="#ffa2e7"/><path d="m351.72 398.366-117.817 106.134h-51.556l142.357-128.251s12.879 6.307 27.016 22.117z" fill="#e8e8e8"/><path d="m388.156 504.5h-58.503v-53.037h51.211c4.462 14.948 7.292 32.522 7.292 53.037z" fill="#ffdcce"/><path d="m182.347 451.463v53.037h-58.503c0-20.515 2.829-38.089 7.291-53.037z" fill="#ffdcce"/><path d="m131.136 451.463c-4.462 14.948-7.291 32.522-7.291 53.037h30c0-20.515 2.829-38.089 7.291-53.037z" fill="#ffcabd"/></g><g><path d="m181.301 246.657c4.142 0 7.5-3.358 7.5-7.5v-17.396c0-4.142-3.357-7.5-7.5-7.5-4.141 0-7.5 3.357-7.5 7.5v17.396c.001 4.143 3.359 7.5 7.5 7.5z"/><path d="m330.698 246.657c4.141 0 7.5-3.358 7.5-7.5v-17.396c0-4.142-3.358-7.5-7.5-7.5s-7.5 3.357-7.5 7.5v17.396c0 4.143 3.358 7.5 7.5 7.5z"/><path d="m114.175 209.095c12.493 63.512 87.96 95.464 141.824 59.05 54.085 36.562 129.392 4.154 141.824-59.05 3.132-15.919-4.378-31.753-18.688-39.4-40.991-21.905-93.115-8.783-119.732 29.616-1.622 2.34-5.188 2.338-6.808 0-26.585-38.354-78.691-51.548-119.732-29.616-14.309 7.647-21.82 23.481-18.688 39.4zm25.758-26.172c34.206-18.279 78.01-7.276 100.335 24.932 7.569 10.921 23.872 10.953 31.463 0 22.412-32.333 66.254-43.145 100.335-24.932 8.454 4.517 12.891 13.872 11.041 23.277-10.766 54.731-77.763 81.328-122.523 46.759-2.699-2.085-6.467-2.085-9.168 0-44.85 34.639-111.778 7.863-122.523-46.759-1.851-9.405 2.586-18.759 11.04-23.277z"/><path d="m280.62 288.848c-3.122-2.721-7.859-2.395-10.581.727-7.422 8.516-20.637 8.541-28.079 0-2.721-3.122-7.459-3.448-10.581-.727s-3.448 7.458-.727 10.581c13.414 15.393 37.295 15.377 50.695 0 2.722-3.122 2.396-7.859-.727-10.581z"/><path d="m472.928 117.311c-6.487 2.454-12.656 5.497-18.421 8.826-57.226-121.551-210.253-164.378-322.02-87.933-3.419 2.338-4.295 7.005-1.956 10.424 2.338 3.418 7.005 4.295 10.424 1.956 104.893-71.743 248.323-30.614 300.82 83.732-9.545 6.798-17.358 13.84-22.795 19.196-16.539-29.293-47.058-53.13-83.208-53.146-29.44 0-56.987 15.213-79.772 33.678-27.585-22.355-54.382-33.678-79.733-33.678-.715.163-39.854-2.803-72.394 37.215-4.063 4.987-7.674 10.275-10.866 15.92-5.433-5.352-13.241-12.388-22.779-19.182 11.341-24.634 27.814-47.225 47.903-65.626 3.054-2.798 3.262-7.542.464-10.596s-7.542-3.261-10.596-.464c-21.032 19.265-38.353 42.82-50.489 68.516-5.771-3.334-11.945-6.381-18.439-8.837-11.345-4.292-23.777 2.655-25.993 14.53-7.735 41.439-8.114 95.497 23.147 123.858.989 65.804 12.449 118.13 34.093 155.548 16.426 28.396 35.629 42.886 50.496 50.267-2.962 13.505-4.464 27.909-4.464 42.986 0 4.142 3.358 7.5 7.5 7.5h264.298c4.142 0 7.5-3.358 7.5-7.5 0-15.077-1.502-29.48-4.464-42.986 17.411-8.621 39.746-26.412 57.257-63.135 1.783-3.739.197-8.215-3.542-9.997-3.739-1.783-8.214-.197-9.997 3.542-14.801 31.042-32.993 46.778-47.671 54.752-10.53-33.252-27.679-50.104-29.931-53.309-5.221-5.841-11.141-11.384-17.38-16.124 42.428-22.61 72.474-60.204 86.231-102.887 11.834-.556 23.761-3.021 34.376-8.275-1.239 36.774-6.014 69.042-14.23 96.088-1.204 3.963 1.033 8.152 4.996 9.356 3.962 1.204 8.152-1.033 9.356-4.996 9.402-30.95 14.477-68.23 15.12-110.823 31.252-28.361 30.897-82.372 23.153-123.863-2.222-11.902-14.675-18.817-25.994-14.533zm-221.801 32.193c2.806 2.398 6.939 2.398 9.744 0 15.438-13.193 33.684-25.379 53.209-30.961 41.749-11.927 79.291 13.191 96.126 50.918v.001c21.051 47.151 8.553 118.019-37.572 164.819-88.703 90.004-239.179 49.06-273.947-69.9-3.13-10.711-5.216-22.01-6.036-33.687-2.635-37.295 6.722-71.97 35.163-96.251 39.705-33.881 83.805-18.701 123.313 15.061zm89.832 248.463-109.935 99.034h-29.144l123.752-111.49c4.852 3.159 10.158 7.378 15.327 12.456zm-158.609 46h-40.769c10.739-28.439 29.464-49.131 46.442-59.505 33.36 13.964 70.241 17.226 105.625 9.674l-103.798 93.514v-36.183c0-4.142-3.357-7.5-7.5-7.5zm-154.527-309.373c.498-2.67 3.302-4.253 5.94-3.254 19.502 7.38 38.1 21.673 52.366 36.553-11.157 28.128-10.907 62.821-4.394 91.117-15.903-1.558-30.325-7.42-40.579-19.767-24.222-29.161-17.393-82.898-13.333-104.649zm55.48 269.144c-19.199-33.19-29.89-79.45-31.832-137.657 10.779 5.335 22.639 7.729 34.556 8.284 14.663 44.649 46.853 81.321 86.328 102.612-1.364 1.031-2.813 2.18-4.324 3.44-32.671 27.137-41.931 63.35-43.259 66.254-12.42-6.769-27.854-19.397-41.469-42.933zm53.534 55.228h38.013v38.035h-43.366c.512-14.174 2.323-25.913 5.353-38.035zm185.313-7.499v45.534h-68.716c3.781-3.406 93.455-84.188 97.533-87.862 7.973 10.085 14.7 22.079 19.454 34.828h-40.771c-4.143 0-7.5 3.358-7.5 7.5zm14.999 45.534v-38.035h38.013c2.579 9.457 4.82 23.277 5.353 38.035zm133.694-257.757c-10.298 12.399-24.348 17.999-40.496 19.766 6.321-28.009 6.885-62.396-4.493-91.099 14.051-14.8 33.05-29.255 52.383-36.57 1.726-.654 3.127-.109 3.808.273 1.917 1.079 2.076 2.881 2.132 2.981 4.06 21.75 10.888 75.487-13.334 104.649z"/></g></g></svg>