<svg id="Capa_1" enable-background="new 0 0 512 512" height="512" viewBox="0 0 512 512" width="512" xmlns="http://www.w3.org/2000/svg"><g><g><path d="m108.148 7.556c-9.391-.711-17.918 5.383-20.456 14.452-13.933 49.781 10.723 82.502 10.723 82.502l90.629-55.618c-22.863-32.228-60.067-39.76-80.896-41.336z" fill="#ff748f"/><path d="m403.852 7.556c9.391-.711 17.918 5.383 20.456 14.452 13.932 49.781-10.724 82.501-10.724 82.501l-90.629-55.618c22.864-32.227 60.068-39.759 80.897-41.335z" fill="#ff748f"/><path d="m359.117 359.72h-206.234s-56.067 45.421-56.067 144.78h103.63l55.554-25.626 55.554 25.626h103.63c0-99.359-56.067-144.78-56.067-144.78z" fill="#5c586f"/><path d="m182.883 359.72h-30s-56.067 45.421-56.067 144.78h30c0-99.359 56.067-144.78 56.067-144.78z" fill="#423e4f"/><circle cx="256" cy="208.791" fill="#77718c" r="194.101"/><path d="m91.899 208.792c0-102.152 78.911-185.872 179.101-193.53-4.95-.378-9.953-.572-15-.572-107.199 0-194.101 86.902-194.101 194.102 0 107.199 86.902 194.101 194.101 194.101 5.047 0 10.05-.194 15-.572-100.19-7.658-179.101-91.378-179.101-193.529z" fill="#5c586f"/><path d="m458.929 157.347c-4.594-18.1-20.856-30.794-39.53-30.794h-326.798c-18.674 0-34.936 12.694-39.53 30.794-4.178 16.464-6.401 33.699-6.401 51.445v.419c.044 22.379 18.382 40.422 40.761 40.422h337.137c22.379 0 40.717-18.042 40.761-40.422 0-.14 0-.279 0-.419.001-17.746-2.221-34.981-6.4-51.445z" fill="#e8e8e8"/><path d="m76.67 209.211c0-.14 0-.279 0-.419 0-17.746 2.223-34.981 6.401-51.445 4.594-18.1 20.856-30.794 39.53-30.794h-30c-18.674 0-34.936 12.694-39.53 30.794-4.178 16.464-6.401 33.699-6.401 51.445v.419c.044 22.379 18.382 40.422 40.761 40.422h30c-22.379-.001-40.716-18.043-40.761-40.422z" fill="#dadad8"/><path d="m374.174 157.728h-236.348c-16.77 0-30.364 13.594-30.364 30.364 0 16.77 13.594 30.364 30.364 30.364h236.348c16.77 0 30.364-13.594 30.364-30.364 0-16.769-13.594-30.364-30.364-30.364z" fill="#ff748f"/><path d="m137.462 188.092c0-16.77 13.594-30.364 30.364-30.364h-30c-16.77 0-30.364 13.595-30.364 30.364 0 16.77 13.594 30.364 30.364 30.364h30c-16.77.001-30.364-13.594-30.364-30.364z" fill="#fd5f7e"/><path d="m256 448.946c-30.681 0-55.554 24.872-55.554 55.554h111.107c.001-30.681-24.872-55.554-55.553-55.554z" fill="#e8e8e8"/><path d="m348.249 342.358c-2.764-75.02-42.726-109.348-69.138-123.916-14.4-7.943-31.823-7.943-46.224 0-26.411 14.568-66.373 48.896-69.138 123.916-1.236 33.542 21.636 63.149 54.389 70.486 13.384 2.998 27.1 5.278 37.86 5.278s24.476-2.28 37.86-5.278c32.755-7.337 55.627-36.944 54.391-70.486z" fill="#5bd6fd"/><path d="m256 377.512c-3.661 0-12.295-.558-28.983-4.296-13.657-3.06-23.197-15.409-22.683-29.363 1.086-29.468 10.324-68.976 48.168-89.85 1.091-.602 2.268-.907 3.498-.907 1.229 0 2.406.305 3.496.906 20.889 11.521 46.203 36.462 48.17 89.85.515 13.954-9.025 26.303-22.683 29.363-16.688 3.739-25.321 4.297-28.983 4.297z" fill="#77718c"/><path d="m257.017 373.216c-13.657-3.06-23.197-15.409-22.683-29.363.966-26.209 8.4-60.351 36.656-82.27-3.867-3.012-7.751-5.516-11.494-7.581-1.09-.601-2.266-.906-3.496-.906s-2.407.305-3.498.907c-37.844 20.874-47.082 60.382-48.168 89.85-.514 13.954 9.025 26.303 22.683 29.363 16.688 3.738 25.322 4.296 28.983 4.296 2.453 0 7.155-.256 15-1.546-3.864-.635-8.477-1.517-13.983-2.75z" fill="#5c586f"/></g><g><path d="m225.375 380.534c16.522 3.701 25.772 4.478 30.623 4.478s14.101-.777 30.623-4.478c17.184-3.85 29.186-19.393 28.539-36.958-2.097-56.894-29.459-83.685-52.041-96.14-4.451-2.457-9.784-2.458-14.241 0-22.583 12.457-49.944 39.248-52.041 96.141-.647 17.565 11.355 33.107 28.538 36.957zm30.622-119.895c34.668 19.199 43.158 55.99 44.171 83.49.382 10.343-6.695 19.498-16.827 21.768-16.581 3.714-24.646 4.115-27.344 4.115s-10.763-.401-27.344-4.115c-10.131-2.27-17.209-11.425-16.827-21.768 1.014-27.499 9.5-64.288 44.171-83.49z"/><path d="m438.47 122.982c-3.884-8.246-8.29-16.147-13.167-23.673 6.766-13.636 16.631-42.146 6.227-79.322-3.501-12.511-15.382-20.884-28.245-19.91-18.425 1.395-44.526 6.743-66.737 23.966-51.414-22.463-109.644-22.481-161.099 0-22.212-17.223-48.312-22.571-66.737-23.966-12.872-.976-24.744 7.4-28.245 19.91-10.404 37.177-.539 65.687 6.227 79.322-4.878 7.526-9.284 15.427-13.167 23.673-13.465 5.797-23.937 17.588-27.727 32.52-7.197 28.359-6.371 49.484-6.631 53.724.031 15.446 7.453 29.199 18.916 37.966 9.459 49.049 36.615 92.18 75.577 121.877-16.613 20.415-44.347 65.042-44.347 135.432 0 4.142 3.358 7.5 7.5 7.5h318.368c4.142 0 7.5-3.358 7.5-7.5 0-70.39-27.734-115.017-44.347-135.432 38.962-29.697 66.117-72.827 75.577-121.876 20.528-15.697 18.828-38.049 18.916-38.401 0-18.022-2.231-35.951-6.631-53.291-3.791-14.931-14.263-26.722-27.728-32.519zm-34.054-107.948c5.762-.435 11.087 3.348 12.668 8.996 7.429 26.544 3.081 47.812-1.914 61.033-16.436-21.146-37.852-39.85-63.161-53.58 19.012-12.144 40.347-15.536 52.407-16.449zm-307.59 70.029c-4.995-13.221-9.343-34.489-1.914-61.034 1.566-5.595 6.845-9.429 12.668-8.995 12.06.913 33.395 4.305 52.407 16.449-24.616 13.354-46.227 31.793-63.161 53.58zm-21.507 170.537c10.091 2.826 16.743.942 105.512 1.533-6.201 9.655-11.409 20.527-15.284 31.925-1.333 3.922.766 8.182 4.687 9.515 3.925 1.335 8.186-.763 9.519-4.686 8.92-26.237 24.812-47.573 46.485-62.516 12.876-8.88 24.563-14.326 40.385-9.955 24.309 6.689 51.21 37.953 61.681 62.229 6.316 14.636 10.015 30.63 11.603 46.62.402 4.059.906 10.951.883 15.046-.208 29.084-20.534 53.935-48.572 60.216-30.002 6.72-42.474 6.713-72.442 0-28.121-6.299-48.366-31.235-48.573-60.216-.062-10.671 1.974-23.519 2.017-24.462.172-3.797-2.556-7.183-6.398-7.75-4.102-.604-7.91 2.228-8.515 6.325-.405 2.74-.736 5.536-1.031 8.354-1.55 14.83-1.936 26.792 2.715 41.035-43.194-25.974-72.738-66.899-84.672-113.213zm205.677-44.643c-15.505-7.864-33.974-8.118-49.997 0h-93.176c-12.607 0-22.864-10.257-22.864-22.864s10.257-22.864 22.864-22.864h236.349c12.607 0 22.864 10.257 22.864 22.864s-10.257 22.864-22.864 22.864zm-72.467 286.043c3.611-22.948 23.523-40.554 47.469-40.554s43.858 17.606 47.469 40.554zm199.041 0h-43.9v-43.751c0-4.142-3.358-7.5-7.5-7.5s-7.5 3.358-7.5 7.5v43.751h-30.08c-3.722-31.243-30.363-55.554-62.592-55.554s-58.87 24.311-62.592 55.554h-30.081v-43.751c0-4.142-3.358-7.5-7.5-7.5s-7.5 3.358-7.5 7.5v43.751h-43.899c1.88-62.439 26.898-101.594 41.514-119.265 7.951 5.173 17.232 10.345 26.599 14.611 8.813 11.263 20.631 19.996 34.342 24.996 12.243 4.461 36.657 8.282 49.116 8.282 13.391 0 33.76-3.829 42.789-6.274 16.03-4.331 30.36-13.797 40.669-27.004 9.263-4.22 18.497-9.339 26.599-14.611 14.618 17.67 39.636 56.825 41.516 119.265zm29.107-241.4c-11.921 46.262-41.433 87.212-84.674 113.211 4.331-13.262 4.297-24.071 3.001-38.288-2.354-26.04-9.63-51.323-23.843-73.391 92.89-.249 96.475.902 105.516-1.532zm21.151-46.405c-.024 12.238-6.846 23.089-17.105 28.763-10.088 5.591-8.592 4.14-120.744 4.174-5.051-5.885-10.578-11.277-16.522-16.176h70.716c20.878 0 37.864-16.986 37.864-37.864s-16.986-37.864-37.864-37.864h-236.35c-20.878 0-37.864 16.986-37.864 37.864s16.986 37.864 37.864 37.864h70.696c-5.856 4.819-11.416 10.237-16.517 16.176h-104.573c-18.16 0-33.225-14.632-33.261-32.948.19-3.092-.601-23.313 6.17-49.993 3.781-14.897 17.135-25.139 32.26-25.139h217.509c4.142 0 7.5-3.358 7.5-7.5s-3.358-7.5-7.5-7.5c-14.573 0-202.467 0-217.758 0 31.943-58.137 94.102-96.863 163.649-96.863 69.465 0 131.659 38.641 163.649 96.863-11.589 0-69.737 0-80.606 0-4.142 0-7.5 3.358-7.5 7.5s3.358 7.5 7.5 7.5c85.59.011 81.213-.045 83.178.119 14.056 1.19 25.922 11.168 29.439 25.02 6.696 26.388 5.928 46.059 6.17 50.004z"/></g></g></svg>