<svg id="Capa_1" enable-background="new 0 0 512 512" height="512" viewBox="0 0 512 512" width="512" xmlns="http://www.w3.org/2000/svg"><g><g><path d="m338.444 393.068h-164.888s-61.302 32.32-61.302 111.432h91.423l52.323-12.747 52.323 12.747h91.423c0-79.112-61.302-111.432-61.302-111.432z" fill="#ffb5ec"/><path d="m195.556 393.068h-22s-61.302 32.32-61.302 111.432h22c0-79.112 61.302-111.432 61.302-111.432z" fill="#ff8ce2"/><path d="m203.677 504.5h104.646l.018-.034c10.471-20.12-3.495-44.306-26.155-45.296l-.033-.001c-12.188-19.129-40.117-19.129-52.305 0l-.033.001c-22.66.989-36.626 25.175-26.155 45.296z" fill="#c6ade3"/><g fill="#f9f097"><path d="m230.506 504.5c0-14.08 11.414-25.494 25.494-25.494s25.494 11.414 25.494 25.494z"/><path d="m438.819 207.419c.344.668.915 1.202 1.608 1.49 28.556 11.881 49.014 1.662 58.293-5.058 2.451-1.775 2.063-5.53-.696-6.774-17.022-7.678-14.018-28.104-14.92-45.3-1.337-25.503-10.134-50.799-33.696-63.6-20.942-11.378-51.021-10.719-71.643 1.45z"/><path d="m73.181 207.419c-.344.668-.915 1.202-1.608 1.49-28.556 11.881-49.014 1.662-58.293-5.058-2.451-1.775-2.063-5.53.696-6.774 17.022-7.678 14.018-28.104 14.92-45.3 1.337-25.503 10.134-50.799 33.696-63.6 20.942-11.378 51.021-10.719 71.643 1.45z"/></g><circle cx="256" cy="228.095" fill="#c6ade3" r="184.393"/><path d="m101.607 228.096c0-96.787 74.572-176.148 169.393-183.783-4.948-.398-9.949-.61-15-.61-101.837 0-184.393 82.555-184.393 184.393 0 101.837 82.555 184.393 184.393 184.393 5.051 0 10.052-.211 15-.61-94.821-7.636-169.393-86.997-169.393-183.783z" fill="#b08bd7"/><path d="m360.064 250.421c-13.236-16.773-35.522-23.717-55.841-17.11-24.517 7.972-48.223 8.964-48.223 8.964s-23.706-.992-48.223-8.964c-20.319-6.607-42.605.337-55.841 17.11-16.335 20.7-14.421 50.509 4.649 68.719 19.532 18.651 51.011 36.901 99.415 36.901s79.883-18.25 99.415-36.901c19.07-18.211 20.984-48.019 4.649-68.719z" fill="#ffdcce"/><path d="m322.839 83.734.023-.044c13.376-25.702-4.465-56.598-33.411-57.862l-.042-.002c-15.569-24.436-51.246-24.436-66.816 0l-.042.002c-28.947 1.264-46.787 32.16-33.411 57.862l.023.044-.023.044c-13.376 25.702 4.465 56.598 33.411 57.862l.042.002c15.569 24.436 51.246 24.436 66.816 0l.042-.002c28.947-1.264 46.787-32.16 33.411-57.862z" fill="#ffb5ec"/><circle cx="256" cy="83.734" fill="#f9f097" r="32.566"/></g><g><path d="m151.443 324.564c18.622 17.781 51.883 38.977 104.595 38.977 52.711 0 85.973-21.196 104.594-38.977 21.955-20.964 24.258-54.836 5.357-78.79-15.183-19.24-40.92-27.115-64.048-19.596-21.697 7.055-43.077 8.432-45.904 8.586-2.842-.156-24.214-1.534-45.904-8.586-23.126-7.521-48.865.355-64.048 19.596-18.9 23.954-16.597 57.826 5.358 78.79zm6.418-69.498c11.299-14.318 30.432-20.215 47.634-14.623 20.084 6.531 45.233 9.561 50.856 9.325 1.01-.042 25.023-1.129 50.229-9.325 17.179-5.587 36.323.29 47.634 14.623 14.081 17.845 12.387 43.058-3.941 58.649-24.2 23.108-55.905 34.825-94.235 34.825s-70.035-11.717-94.235-34.825c-16.329-15.591-18.023-40.804-3.942-58.649z"/><path d="m283.428 270.412c2.721-3.123 2.396-7.86-.727-10.582s-7.86-2.396-10.582.727c-8.5 9.754-23.638 9.783-32.163 0-2.721-3.123-7.459-3.448-10.582-.727s-3.448 7.458-.727 10.581c14.495 16.633 40.299 16.617 54.781.001z"/><path d="m161.23 208.453c0-6.179 5.027-11.205 11.206-11.205s11.205 5.026 11.205 11.205c0 4.142 3.358 7.5 7.5 7.5s7.5-3.358 7.5-7.5c0-14.45-11.755-26.205-26.205-26.205s-26.206 11.755-26.206 26.205c0 4.142 3.358 7.5 7.5 7.5s7.5-3.358 7.5-7.5z"/><path d="m328.435 208.453c0-6.179 5.026-11.205 11.205-11.205s11.206 5.026 11.206 11.205c0 4.142 3.358 7.5 7.5 7.5s7.5-3.358 7.5-7.5c0-14.45-11.756-26.205-26.206-26.205s-26.205 11.755-26.205 26.205c0 4.142 3.358 7.5 7.5 7.5s7.5-3.358 7.5-7.5z"/><path d="m256.038 123.801c22.092 0 40.066-17.974 40.066-40.066s-17.974-40.066-40.066-40.066c-22.093 0-40.066 17.974-40.066 40.066s17.973 40.066 40.066 40.066zm0-65.133c13.821 0 25.066 11.245 25.066 25.066 0 13.822-11.245 25.066-25.066 25.066-13.822 0-25.066-11.245-25.066-25.066-.001-13.821 11.244-25.066 25.066-25.066z"/><path d="m501.146 190.241c-12.087-5.452-9.626-21.918-10.514-38.856-1.743-33.243-14.746-57.379-37.604-69.798-21.464-11.662-51.783-11.875-74.234-.984-13.782-11.482-29.158-21.004-45.768-28.284-5.229-17.96-20.482-31.313-39.438-33.665-8.878-11.747-22.651-18.654-37.551-18.654-14.898 0-28.668 6.904-37.546 18.649-18.781 2.314-34.17 15.561-39.442 33.67-16.615 7.282-31.994 16.808-45.779 28.294-17.392-8.472-39.521-10.457-59.125-5.043-3.993 1.103-6.336 5.233-5.233 9.226 1.102 3.993 5.236 6.337 9.226 5.233 13.889-3.835 29.774-3.095 42.931 1.671-29.495 29.105-49.687 68.084-55.314 111.446-19.449 7.101-34.22 2.694-43.245-2.322 15.917-11.365 13.132-33.724 13.915-48.655.787-15.005 4.729-35.781 19.042-49.549 2.985-2.872 3.078-7.62.206-10.605-2.871-2.985-7.619-3.078-10.604-.207-14.124 13.585-22.292 34.186-23.624 59.575-.915 17.466 1.482 33.445-10.514 38.856-7.989 3.602-9.122 14.534-2.011 19.685 15.423 11.171 34.813 15.065 55.431 9.408-3.312 73.546 35.173 139.295 94.766 174.317-33.135 24.815-54.325 64.194-54.325 110.849 0 4.142 3.358 7.5 7.5 7.5h287.492c4.142 0 7.5-3.358 7.5-7.5 0-46.966-21.477-86.203-54.236-110.782 19.528-11.459 37.117-26.445 51.854-44.542 2.616-3.212 2.132-7.936-1.08-10.552-3.212-2.615-7.937-2.132-10.551 1.08-15.73 19.316-35.225 35.16-58.158 46.657-116.408 58.281-255.968-26.468-255.968-158.264 0-69.389 40.019-129.566 98.202-158.464.451 4.998 1.757 9.855 3.564 14.104-12.173 28.673 6.543 61.252 37.578 65.083 18.627 24.644 56.148 25.067 75.094.001 30.853-3.801 49.796-36.265 37.582-65.081 1.938-4.549 3.131-9.289 3.564-14.106 91.767 45.577 124.83 158.667 75.096 245.923-2.051 3.598-.797 8.178 2.802 10.23 3.597 2.051 8.179.797 10.229-2.802 17.577-30.837 26.531-66.726 24.869-103.649 20.618 5.655 40.005 1.765 55.43-9.408 7.015-5.08 5.873-16.131-2.009-19.685zm-261.464 306.759c6.432-13.972 26.281-13.969 32.711 0zm48.479 0c-3.406-14.59-16.511-25.494-32.124-25.494s-28.717 10.904-32.123 25.494h-15.205c-4.454-14.525 5.972-29.661 21.511-30.339 2.441-.109 4.677-1.401 5.99-3.462 9.248-14.514 30.425-14.487 39.655 0 1.315 2.064 3.587 3.358 6.031 3.464 8.068.352 15.295 4.738 19.334 11.731 3.306 5.725 4.03 12.427 2.135 18.606zm103.924 0h-32.916v-31.813c0-4.142-3.358-7.5-7.5-7.5s-7.5 3.358-7.5 7.5v31.813h-25.398c3.872-21.218-10.649-41.888-32.459-44.974-15.372-19.61-45.184-19.6-60.547-.002-21.797 3.076-36.333 23.762-32.466 44.977h-25.393v-31.813c0-4.142-3.358-7.5-7.5-7.5s-7.5 3.358-7.5 7.5v31.812h-32.92c1.442-27.639 10.931-52.012 28.261-72.542 10.271-12.167 20.679-19.634 25.721-22.871 50.653 24.035 111.225 25.085 164.173.018 11.524 7.408 50.807 36.844 53.944 95.395zm-169.107-463.681c2.437-.113 4.666-1.405 5.977-3.462 12.631-19.825 41.558-19.788 54.166 0 1.315 2.063 3.596 3.358 6.04 3.464 22.743.994 36.945 24.494 28.047 44.884-1.069 2.429-2.959 5.129-1.009 8.942 11.107 22.214-4.455 46.014-27.102 47.002-2.437.113-4.666 1.405-5.977 3.462-12.638 19.835-41.583 19.746-54.166 0-1.314-2.062-3.596-3.359-6.04-3.464-23.459-1.025-37.936-26.056-27.067-46.941v-.001c.054-.102.334-.698.514-1.304 1.017-3.414-.563-5.57-1.486-7.677-8.944-20.474 5.335-43.911 28.103-44.905zm223.344 169.827c-5.283-40.713-23.686-80.079-55.338-111.47 17.5-6.426 39.137-5.465 54.883 3.09 22.78 12.377 28.771 38.048 29.786 57.403.821 15.664-1.854 37.397 13.915 48.655-9.027 5.017-23.794 9.424-43.246 2.322z"/></g></g></svg>