<svg id="Capa_1" enable-background="new 0 0 512 512" height="512" viewBox="0 0 512 512" width="512" xmlns="http://www.w3.org/2000/svg"><g><g><path d="m325.705 404.336h-139.41s-62.763 28.793-62.763 100.164h103.029l29.439-12.689 29.439 12.689h103.028c.001-71.371-62.762-100.164-62.762-100.164z" fill="#5bd6fd"/><path d="m226.561 504.5 29.439-50.082 29.439 50.082z" fill="#e8e8e8"/><circle cx="256" cy="212.013" fill="#c6ade3" r="204.513"/><path d="m91.487 212.013c0-106.2 80.951-193.485 184.513-203.538-6.581-.639-13.251-.975-20-.975-112.949 0-204.513 91.563-204.513 204.513s91.564 204.512 204.513 204.512c6.749 0 13.419-.336 20-.975-103.562-10.052-184.513-97.337-184.513-203.537z" fill="#b08bd7"/><ellipse cx="256" cy="296.996" fill="#ffdcce" rx="95.362" ry="68.218"/><path d="m451.348 99.132c-4.763-8.224-16.198-9.144-22.298-1.856-41.376 49.434-103.537 80.868-173.05 80.868s-131.674-31.434-173.05-80.868c-6.1-7.288-17.535-6.368-22.298 1.856-19.225 33.195-30.235 71.747-30.235 112.88 0 56.943 21.097 108.94 55.886 148.631 4.978 5.679 13.651 6.105 19.276 1.066 39.907-35.747 92.628-57.476 150.421-57.476s110.515 21.729 150.421 57.476c5.625 5.039 14.298 4.613 19.276-1.066 34.788-39.691 55.885-91.688 55.885-148.631.001-41.133-11.008-79.685-30.234-112.88z" fill="#5bd6fd"/><path d="m70.417 212.012c0-36.639 8.741-71.227 24.238-101.809-4.062-4.158-7.971-8.467-11.705-12.927-6.1-7.288-17.535-6.368-22.298 1.856-19.225 33.195-30.235 71.747-30.235 112.88 0 56.943 21.097 108.94 55.885 148.631 4.978 5.679 13.651 6.105 19.276 1.066 4.132-3.701 8.409-7.243 12.807-10.635-30.039-38.315-47.968-86.584-47.968-139.062z" fill="#00c4fc"/><g fill="#e8e8e8"><path d="m270.865 72.852-8.46-20.436c-2.363-5.707-10.447-5.707-12.81 0l-8.46 20.436c-7.88 19.033-6.289 40.673 4.29 58.349 4.784 7.994 16.367 7.994 21.152 0 10.577-17.676 12.168-39.315 4.288-58.349z"/><path d="m210.423 121.313c-7.713-7.56-17.256-17.958-25.004-29.65-4.989-7.529-16.373-6.879-20.427 1.192-8.475 16.869-10.921 40.33 39.898 41.583 6.946.172 10.495-8.26 5.533-13.125z"/><path d="m301.577 121.313c7.713-7.56 17.256-17.958 25.004-29.65 4.989-7.529 16.373-6.879 20.427 1.192 8.475 16.869 10.921 40.33-39.898 41.583-6.946.172-10.495-8.26-5.533-13.125z"/></g></g><g><path d="m162.517 285.05c0 4.142 3.358 7.5 7.5 7.5s7.5-3.358 7.5-7.5v-15.855l6.837 1.832c4.011 1.075 8.117-1.313 9.186-5.304 1.072-4.001-1.302-8.114-5.303-9.186l-33.136-8.878c-4.002-1.073-8.114 1.302-9.186 5.304-1.072 4.001 1.302 8.114 5.304 9.186l11.675 3.128c-.678 2.068-.254 2.534-.377 19.773z"/><path d="m366.097 252.962c-1.072-4.001-5.184-6.375-9.186-5.304l-33.136 8.878c-4.001 1.072-6.376 5.185-5.304 9.186 1.069 3.991 5.171 6.377 9.186 5.304l6.837-1.832v15.855c0 4.142 3.358 7.5 7.5 7.5s7.5-3.358 7.5-7.5v-17.435c0-.817-.135-1.602-.377-2.339l11.675-3.128c4.003-1.071 6.377-5.184 5.305-9.185z"/><path d="m278.894 333.781c2.721-3.123 2.396-7.861-.727-10.582s-7.861-2.396-10.583.727c-6.133 7.038-17.03 7.03-23.156 0-2.722-3.123-7.459-3.448-10.582-.727s-3.448 7.459-.727 10.582c12.111 13.898 33.676 13.885 45.775 0z"/><path d="m273.019 135.029c11.742-19.62 13.53-43.947 4.784-65.073l-8.46-20.438c-4.912-11.86-21.758-11.868-26.671 0l-8.461 20.437c-8.746 21.126-6.958 45.453 4.784 65.073 7.689 12.852 26.321 12.872 34.024.001zm-24.949-59.336 7.936-19.17 7.936 19.17c6.94 16.763 5.521 36.065-3.795 51.632-1.875 3.133-6.409 3.129-8.281 0-9.317-15.567-10.736-34.869-3.796-51.632z"/><path d="m204.707 141.912c13.645.362 20.847-16.298 10.969-25.98-9.63-9.439-17.93-19.273-24.003-28.439-8.188-12.359-26.751-11.235-33.383 1.967-8.416 16.751-5.653 27.817-1.854 34.15 7.01 11.687 22.8 17.673 48.271 18.302zm-33.013-45.717c1.453-2.891 5.64-3.182 7.474-.415 6.741 10.173 15.491 20.557 26.008 30.865.039.038.061.065.067.069-.002.065-.048.178-.052.194-1.423-.195-29.287-.004-35.891-11.014-3.375-5.625-.56-13.818 2.394-19.699z"/><path d="m307.306 141.912c25.472-.628 41.261-6.615 48.272-18.301 3.799-6.333 6.561-17.399-1.854-34.15-6.642-13.221-25.206-14.307-33.383-1.968-6.075 9.167-14.375 19.001-24.003 28.439-9.818 9.622-2.754 26.345 10.968 25.98zm-.469-15.267c10.516-10.308 19.266-20.693 26.008-30.866 1.833-2.765 6.021-2.477 7.474.416 2.955 5.882 5.769 14.074 2.395 19.7-6.595 10.993-34.372 10.817-35.863 11.022-.043-.051-.086-.157-.091-.18 0-.001.017-.033.077-.092z"/><path d="m457.857 95.346c-6.006-10.371-19.501-13.739-29.741-7.146-84.627-117.592-259.582-117.607-344.22 0-10.215-6.578-23.721-3.247-29.742 7.146-34.969 60.381-41.176 134.503-15.679 200.555 1.149 2.976 3.989 4.802 6.999 4.801 5.231 0 8.9-5.271 6.996-10.203-23.871-61.837-18.012-131.209 14.666-187.635 2.132-3.68 7.263-4.14 10.058-.801 92.868 110.982 263.226 110.894 355.447 2.534.567-.666 1.394-1.596 2.178-2.534 2.795-3.341 7.926-2.878 10.057.801 7.18 12.396 13.151 25.564 17.747 39.137 1.329 3.924 5.587 6.027 9.51 4.698 3.924-1.329 6.027-5.586 4.699-9.51-4.915-14.512-11.299-28.59-18.975-41.843zm-40.374 3.749c-87.11 95.938-236.997 94.667-322.952 0 78.534-112.204 244.528-112.046 322.952 0z"/><path d="m475.962 161.108c-4.066.795-6.717 4.735-5.922 8.8 12.937 66.172-5.279 134.797-49.965 185.78-2.219 2.531-6.104 2.689-8.633.423-88.583-79.344-222.655-79.02-310.871 0-2.566 2.3-6.444 2.073-8.632-.423-10.53-12.014-19.747-25.194-27.395-39.173-1.988-3.634-6.546-4.968-10.18-2.98s-4.968 6.546-2.98 10.18c8.173 14.939 18.023 29.023 29.274 41.86 7.228 8.245 20.339 10.228 30.482 1.219 17.388 16.299 37.059 29.355 58.279 38.853-32.748 22.558-53.389 57.367-53.389 98.851 0 4.142 3.358 7.5 7.5 7.5h264.952c4.143 0 7.5-3.358 7.5-7.5 0-41.396-20.525-76.215-53.389-98.851 21.22-9.498 40.891-22.554 58.279-38.853 10.1 8.983 23.238 7.045 30.482-1.219 49.113-56.033 66.833-129.87 53.406-198.546-.793-4.064-4.733-6.712-8.798-5.921zm-142.775 164.753c-15.294 19.322-45.023 31.843-77.18 31.843s-61.886-12.521-77.18-31.843c49.627-18.773 104.325-18.928 154.36 0zm-93.513 171.138 16.332-27.784 16.332 27.784zm112.434-63.723c17.39 18.039 26.999 39.445 28.626 63.723h-38.78v-36.141c0-4.142-3.359-7.5-7.5-7.5-4.143 0-7.5 3.358-7.5 7.5v36.141h-37.214l-27.266-46.386c-2.895-4.925-10.036-4.928-12.932 0l-27.267 46.386h-37.215v-36.141c0-4.142-3.358-7.5-7.5-7.5s-7.5 3.358-7.5 7.5v36.141h-38.78c1.627-24.278 11.236-45.685 28.626-63.723 10.915-11.322 21.991-18.075 26.899-20.769 44.571 15.342 93.834 15.342 138.404 0 4.916 2.698 15.987 9.45 26.899 20.769zm-229.33-76.125c12.988-10.029 27.024-18.506 41.799-25.324 37.98 54.335 144.722 54.56 182.86 0 14.774 6.818 28.81 15.295 41.798 25.324-75.644 69.569-191.641 68.807-266.457 0z"/></g></g></svg>