<svg id="Capa_1" enable-background="new 0 0 512 512" height="512" viewBox="0 0 512 512" width="512" xmlns="http://www.w3.org/2000/svg"><g><g><circle cx="71.745" cy="228.302" fill="#f9f097" r="51.592"/><circle cx="440.255" cy="228.302" fill="#f9f097" r="51.592"/><path d="m338.382 393.151h-164.764s-61.256 32.296-61.256 111.349h74.003l69.635-23.095 69.635 23.095h74.003c.001-79.053-61.256-111.349-61.256-111.349z" fill="#5bd6fd"/><path d="m208.618 393.151h-35s-61.256 32.296-61.256 111.349h35c0-79.053 61.256-111.349 61.256-111.349z" fill="#00c4fc"/><circle cx="256" cy="228.302" fill="#ff748f" r="184.255"/><path d="m111.745 228.302c0-95.002 71.903-173.201 164.255-183.171-6.57-.709-13.241-1.084-20-1.084-101.761 0-184.255 82.494-184.255 184.255s82.494 184.255 184.255 184.255c6.759 0 13.43-.375 20-1.084-92.352-9.97-164.255-88.169-164.255-183.171z" fill="#fd5f7e"/><path d="m288.895 73.883c-2.132-30.771-11.867-49.536-20.199-60.193-6.452-8.253-18.941-8.253-25.393 0-8.331 10.658-18.067 29.423-20.199 60.193-.635 9.163 1.33 18.337 5.664 26.435 3.337 6.236 8.133 13.671 14.6 20.272 6.971 7.117 18.292 7.117 25.263 0 6.466-6.601 11.262-14.036 14.6-20.272 4.334-8.098 6.299-17.272 5.664-26.435z" fill="#f9f097"/><path d="m258.769 100.318c-4.333-8.098-6.299-17.272-5.664-26.435 1.938-27.97 10.158-46.018 17.895-57.076-.775-1.108-1.545-2.147-2.304-3.117-6.452-8.253-18.941-8.253-25.393 0-8.331 10.658-18.067 29.423-20.199 60.194-.635 9.163 1.331 18.337 5.664 26.435 3.337 6.236 8.133 13.671 14.6 20.272 6.971 7.116 18.292 7.116 25.263 0 .816-.833 1.605-1.68 2.368-2.535-5.284-5.924-9.314-12.288-12.23-17.738z" fill="#fccb88"/><path d="m359.987 250.611c-13.226-16.761-35.495-23.699-55.799-17.097-24.499 7.966-48.188 8.957-48.188 8.957s-23.689-.991-48.187-8.957c-20.304-6.602-42.573.336-55.799 17.097-16.322 20.685-14.41 50.471 4.646 68.668 19.518 18.637 50.973 36.874 99.341 36.874s79.823-18.237 99.341-36.874c19.055-18.197 20.967-47.984 4.645-68.668z" fill="#ffdcce"/><path d="m325.682 462.103c-35.889 8.37-55.839-5.371-64.465-14.168-2.869-2.927-7.565-2.927-10.435 0-8.626 8.798-28.576 22.538-64.465 14.168-4.82-1.124-9.361 2.685-9.007 7.621.586 8.192 2.654 20.666 9.054 34.776h139.271c6.401-14.11 8.468-26.583 9.054-34.776.354-4.936-4.187-8.745-9.007-7.621z" fill="#f9f097"/></g><g><path d="m181.118 202.785v-17.778c0-4.142-3.358-7.5-7.5-7.5s-7.5 3.358-7.5 7.5v17.778c0 4.142 3.358 7.5 7.5 7.5s7.5-3.358 7.5-7.5z"/><path d="m345.882 202.785v-17.778c0-4.142-3.358-7.5-7.5-7.5s-7.5 3.358-7.5 7.5v17.778c0 4.142 3.358 7.5 7.5 7.5s7.5-3.358 7.5-7.5z"/><path d="m365.874 245.965c-15.173-19.228-40.896-27.099-64.006-19.583-21.681 7.049-43.043 8.425-45.868 8.58-2.842-.156-24.196-1.533-45.868-8.58-23.11-7.514-48.833.355-64.006 19.583-18.889 23.936-16.587 57.786 5.354 78.737 18.608 17.768 51.846 38.949 104.52 38.949s85.912-21.181 104.52-38.949c21.941-20.95 24.242-54.8 5.354-78.737m-160.38-5.318c20.07 6.526 45.201 9.555 50.819 9.318 1.009-.042 25.006-1.128 50.193-9.318 17.166-5.583 36.292.29 47.592 14.611 14.069 17.828 12.376 43.019-3.938 58.597-24.182 23.09-55.862 34.798-94.161 34.798s-69.979-11.707-94.161-34.798c-16.313-15.578-18.006-40.769-3.938-58.597 11.309-14.33 30.437-20.19 47.594-14.611z"/><path d="m283.374 270.591c2.721-3.123 2.396-7.86-.727-10.582-3.122-2.721-7.86-2.396-10.582.727-8.492 9.745-23.614 9.773-32.131 0-2.721-3.124-7.459-3.448-10.582-.727s-3.448 7.459-.727 10.582c14.488 16.624 40.277 16.606 54.749 0z"/><path d="m12.654 228.303c0 33.492 27.861 60.119 60.91 59.059 14.608 45.018 45.443 82.785 85.577 106.374-33.174 24.849-54.28 64.22-54.28 110.764 0 4.142 3.358 7.5 7.5 7.5h287.277c4.142 0 7.5-3.358 7.5-7.5 0-46.745-21.307-86.007-54.165-110.678 14.631-8.613 28.219-19.243 40.413-31.766 2.89-2.967 2.826-7.716-.141-10.605-2.968-2.89-7.716-2.827-10.606.141-125.856 129.255-347.163 6.583-296.705-171.556 7.57-26.733 21.413-51.475 40.759-72.226 2.825-3.029 2.658-7.775-.371-10.6s-7.775-2.658-10.6.372c-19.364 20.77-33.642 45.225-42.188 71.661-33.064-1.05-60.88 25.62-60.88 59.06zm243.346 225.023c15.203 15.399 39.405 23.478 71.189 16.127-.633 8.419-2.666 17.799-6.516 27.547h-129.346c-3.43-8.686-5.789-17.976-6.516-27.548 25.947 6.006 52.643 2.66 71.189-16.126zm107.707-28.803c17.315 20.511 26.796 44.863 28.238 72.477h-55.287c2.887-8.539 4.822-17.46 5.512-26.741.719-10.049-8.525-17.717-18.192-15.461-20.588 4.803-42.553 3.034-57.406-12.114-5.815-5.932-15.331-5.931-21.145 0-14.679 14.971-36.562 16.976-57.406 12.115-9.691-2.257-18.909 5.432-18.192 15.461.656 9.145 2.668 18.327 5.513 26.74h-55.286c1.441-27.615 10.923-51.966 28.238-72.477 10.262-12.156 20.659-19.616 25.698-22.851 52.215 24.775 113.101 24.235 164.088.047 5.072 3.264 15.415 10.707 25.627 22.804zm-294.375-240.246c-6.497 27.673-6.999 58.275 0 88.052-23.193-1.258-41.679-20.524-41.679-44.026.001-23.503 18.484-42.771 41.679-44.026z"/><path d="m438.436 169.244c-21.731-67.153-78.811-117.125-148.235-129.644-4.439-13.978-10.402-23.883-15.596-30.528-9.449-12.087-27.746-12.107-37.21 0-5.196 6.646-11.16 16.555-15.6 30.54-30.086 5.431-58.688 18.129-82.984 36.914-3.277 2.534-3.88 7.244-1.346 10.521s7.245 3.88 10.521 1.346c20.597-15.925 44.546-27.116 69.826-32.703-4.979 27.386-1.434 39.314 7.895 54.319 3.694 5.943 7.817 11.249 12.305 15.83 9.756 9.958 25.911 10.276 35.979 0 1.639-1.673 3.224-3.452 4.763-5.314 18.836-22.798 20.03-39.809 15.436-64.836 123.791 27.32 178.013 171.645 106.868 273.619-2.37 3.397-1.538 8.072 1.859 10.442 3.404 2.374 8.077 1.531 10.442-1.859 10.931-15.667 19.35-32.669 25.127-50.529 33.138 1.024 60.861-25.689 60.861-59.06-.001-33.491-27.863-60.118-60.911-59.058zm-189.71-53.901c-4.989-5.093-9.479-11.338-13.344-18.562-6.302-11.776-5.393-22.574-3.273-35.711 2.454-15.143 7.69-30.717 17.104-42.76 3.447-4.409 10.122-4.417 13.575 0 10.615 13.579 15.92 31.541 17.949 48.844 1.121 9.574 1.365 16.452-2.149 25.326-2.49 6.286-8.4 15.805-15.313 22.862-3.995 4.079-10.479 4.156-14.549.001zm193.952 156.985c6.87-29.263 6.642-59.742-.01-88.052 23.194 1.258 41.679 20.524 41.679 44.026-.001 23.499-18.48 42.763-41.669 44.026z"/></g></g></svg>