<svg id="Capa_1" enable-background="new 0 0 512 512" height="512" viewBox="0 0 512 512" width="512" xmlns="http://www.w3.org/2000/svg"><g><g><path d="m127.324 389.552 38.992 46.432-38.992 68.516h-50.991c0-58.286 27.304-94.498 50.991-114.948z" fill="#ffdcce"/><path d="m435.667 504.5h-50.991l-38.992-68.516 38.992-46.432c23.687 20.45 50.991 56.662 50.991 114.948z" fill="#ffdcce"/><path d="m306.691 367.468 38.992 68.516-38.992 68.516h-101.382l-38.992-68.516 38.992-68.516z" fill="#e8e8e8"/><path d="m205.309 367.468v137.032h-77.985v-114.948c18.166-15.671 34.208-22.084 34.208-22.084z" fill="#00d6bc"/><path d="m384.676 389.552v114.948h-77.985v-137.032h43.777s16.042 6.412 34.208 22.084z" fill="#00d6bc"/><path d="m340.953 431.001h-34.555c-10.148 0-18.375 8.227-18.375 18.375 0 10.148 8.227 18.375 18.375 18.375h34.555c10.148 0 18.375-8.227 18.375-18.375 0-10.148-8.227-18.375-18.375-18.375z" fill="#f9f097"/><path d="m340.953 467.75h-34.555c-10.148 0-18.375 8.227-18.375 18.375 0 10.148 8.227 18.375 18.375 18.375h34.555c10.148 0 18.375-8.227 18.375-18.375 0-10.148-8.227-18.375-18.375-18.375z" fill="#fccb88"/><path d="m171.047 431.001h34.555c10.148 0 18.375 8.227 18.375 18.375 0 10.148-8.227 18.375-18.375 18.375h-34.555c-10.148 0-18.375-8.227-18.375-18.375 0-10.148 8.227-18.375 18.375-18.375z" fill="#f9f097"/><path d="m171.047 467.75h34.555c10.148 0 18.375 8.227 18.375 18.375 0 10.148-8.227 18.375-18.375 18.375h-34.555c-10.148 0-18.375-8.227-18.375-18.375 0-10.148 8.227-18.375 18.375-18.375z" fill="#fccb88"/><path d="m270.189 13.304c-9.376 1.796-19.003 1.796-28.378 0-53.88-10.323-240.23-31.185-189.165 187.924h406.707c51.066-219.109-135.284-198.247-189.164-187.924z" fill="#77718c"/><path d="m203.061 8.241c-73.379-5.168-192.491 12.445-150.415 192.987h40c-34.986-150.118 41.47-187.59 110.415-192.987z" fill="#5c586f"/><circle cx="76.333" cy="234.654" fill="#ffcabd" r="40.976"/><circle cx="435.667" cy="234.654" fill="#ffcabd" r="40.976"/><path d="m80.582 177.45c17.815-72.985 89.588-105.429 175.418-105.429s157.603 32.444 175.418 105.429z" fill="#ff748f"/><path d="m80.582 177.45h30c16.766-68.689 81.327-101.465 160.418-105.086-84.16-3.861-170.429 23.196-190.418 105.086z" fill="#fd5f7e"/><path d="m435.667 214.614c0 99.237-80.44 179.677-179.667 179.677s-179.667-80.44-179.667-179.677c0-13.397 1.463-25.771 4.248-37.164 46.873-19.248 108.245-28.276 175.418-28.276s128.545 9.028 175.418 28.276c2.787 11.393 4.25 23.767 4.25 37.164z" fill="#ffdcce"/><path d="m271 393.663c-92.207-7.623-164.667-84.864-164.667-179.048 0-16.728 2.263-32.978 7.562-48.495-11.756 3.282-22.895 7.052-33.314 11.331-1.393 5.696-2.454 11.638-3.169 17.831-12.773 110.733 80.062 207.807 193.588 198.381z" fill="#ffcabd"/><g><g><g><ellipse cx="148.863" cy="257.755" fill="#ffb5ec" rx="39.531" ry="31.481"/></g><g><ellipse cx="363.137" cy="257.755" fill="#ffb5ec" rx="39.532" ry="31.481"/></g></g></g></g><g><path d="m164.4 211.285v16.16c0 4.142 3.358 7.5 7.5 7.5s7.5-3.358 7.5-7.5v-16.16c0-4.142-3.358-7.5-7.5-7.5s-7.5 3.358-7.5 7.5z"/><path d="m332.599 211.285v16.16c0 4.142 3.358 7.5 7.5 7.5s7.5-3.358 7.5-7.5v-16.16c0-4.142-3.358-7.5-7.5-7.5s-7.5 3.358-7.5 7.5z"/><path d="m272.518 222.037c-8.731 10.02-24.279 10.048-33.036 0-2.721-3.124-7.46-3.448-10.582-.727-3.123 2.721-3.448 7.459-.727 10.582 14.698 16.867 40.912 16.915 55.653 0 2.721-3.123 2.396-7.86-.727-10.582-3.122-2.721-7.86-2.396-10.581.727z"/><path d="m467.698 198.304c15.943-72.047 7.714-125.568-24.517-159.103-48.852-50.829-138.239-40.199-174.403-33.271-8.479 1.625-17.076 1.625-25.557 0-36.163-6.929-125.551-17.557-174.402 33.271-32.23 33.535-40.46 87.056-24.517 159.103-10.076 8.89-16.449 21.884-16.449 36.346 0 28.565 24.826 51.37 53.843 48.164 13.263 33.78 36.077 62.796 65.097 83.718-14.21 8.171-23.811 16.914-24.37 17.34-6.421 7.09-53.593 42.323-53.593 120.628 0 4.142 3.358 7.5 7.5 7.5h359.34c4.142 0 7.5-3.358 7.5-7.5 0-62.428-31.329-111.128-77.915-137.941 10.599-7.61 20.452-16.359 29.351-26.16 2.784-3.066 2.556-7.81-.511-10.594s-7.81-2.556-10.594.511c-44.439 48.943-114.043 68.92-179.029 48.593-85.224-26.79-134.683-114.836-117.456-195.962 89.192-35.118 248.008-35.304 337.969 0 8.243 38.75 1.062 85.394-23.855 124.335-2.232 3.489-1.214 8.127 2.275 10.36 3.49 2.233 8.128 1.213 10.36-2.275 6.614-10.336 12.155-21.236 16.58-32.548 29.104 3.191 53.802-19.719 53.802-48.168 0-14.463-6.373-27.457-16.449-36.347zm-262.097 261.945h-34.556c-5.996 0-10.875-4.879-10.875-10.875 0-5.972 4.854-10.875 10.875-10.875h34.263c.1.029 6.522-.43 9.853 5.696 3.92 7.205-1.325 16.054-9.56 16.054zm0 36.75h-34.555c-4.123 0-7.717-2.306-9.561-5.695-3.919-7.205 1.326-16.054 9.561-16.054 14.437 0 36.57 0 34.556 0 8.248 0 13.471 8.864 9.56 16.054-1.844 3.389-5.438 5.695-9.561 5.695zm-85.779-89.681v89.681h-35.831c1.801-41.503 18.41-70.483 35.831-89.681zm15.001 89.681v-103.962c11.184-9.199 21.251-14.674 26.221-17.105 11.63 6.859 23.96 12.433 36.765 16.618v30.948c-3.358 0-23.434 0-26.763 0-22.701 0-34.799 27.652-18.2 44.251-7.706 7.552-9.873 19.388-5.277 29.249h-12.746zm94.256 0c4.491-9.638 2.662-21.31-5.277-29.249 13.962-13.77 7.986-37.733-10.993-43.23v-27.753c27.886 6.591 57.828 6.751 86.382 0v27.754c-19.389 5.655-24.657 29.772-10.993 43.229-7.717 7.565-9.85 19.395-5.277 29.249zm111.875-36.75h-34.555c-5.997 0-10.875-4.879-10.875-10.875 0-5.997 4.879-10.875 10.875-10.875h34.555c5.997 0 10.875 4.878 10.875 10.875s-4.879 10.875-10.875 10.875zm-45.431 25.876c0-5.996 4.879-10.875 10.875-10.875 14.437 0 36.57 0 34.555 0 5.997 0 10.875 4.879 10.875 10.875s-4.879 10.875-10.875 10.875h-34.555c-5.996-.001-10.875-4.879-10.875-10.875zm132.485 10.875h-35.831v-89.682c17.422 19.198 34.03 48.178 35.831 89.682zm-50.831 0h-12.745c4.48-9.64 2.61-21.517-5.277-29.25 3.067-3.021 5.432-6.907 6.684-11.303 4.699-16.465-7.723-32.948-24.885-32.948h-26.762v-30.948c12.808-4.186 25.14-9.761 36.773-16.623 4.953 2.413 14.966 7.853 26.212 17.109zm-319.363-307.161c-13.3-64.171-5.974-111.324 21.82-140.243 37.542-39.061 107.602-39.12 160.766-28.933 10.352 1.983 20.849 1.983 31.202 0 53.163-10.187 123.224-10.128 160.765 28.933 27.794 28.919 35.12 76.072 21.82 140.243-4.056-1.682-8.678-2.892-13.279-3.387-22.192-133.745-202.72-138.553-284.743-103.925-3.816 1.611-5.604 6.011-3.993 9.827s6.011 5.603 9.827 3.993c26.456-11.17 58.082-16.833 94-16.833 84.318 0 143.01 30.941 163.733 85.5-92.293-32.031-239.379-30.598-327.489.008 8.617-22.856 23.8-41.548 45.282-55.698 3.459-2.278 4.416-6.93 2.137-10.389-2.278-3.46-6.929-4.415-10.389-2.138-31.2 20.552-51.633 50.379-58.179 89.654-4.723.508-9.323 1.747-13.28 3.388zm18.792 78.286c-18.819.1-33.752-15.101-33.752-33.476 0-15.932 11.256-29.471 26.422-32.713-1.547 22.129.955 44.81 7.33 66.189zm358.788 0c6.194-20.811 8.932-43.479 7.33-66.189 15.167 3.261 26.423 16.759 26.423 32.713 0 18.552-15.208 33.616-33.753 33.476z"/></g></g></svg>