<svg id="Capa_1" enable-background="new 0 0 512 512" height="512" viewBox="0 0 512 512" width="512" xmlns="http://www.w3.org/2000/svg"><g><g><g fill="#77718c"><path d="m171.637 504.5h-71.234c0-23.979 4.244-44.12 10.473-60.761l58.537 22.105z"/><path d="m377.613 402.469-28.914 58.158-73.107 43.873h-39.184l-66.994-38.656-35.027-63.376c13.272-16.315 25.373-23.673 25.373-23.673h192.48s12.102 7.359 25.373 23.674z"/><path d="m411.597 504.5h-71.234l8.336-43.873 52.425-16.888c6.229 16.641 10.473 36.782 10.473 60.761z"/></g><path d="m38.748 224.752c0-119.794 97.459-217.252 217.252-217.252 58.03 0 112.587 22.598 153.621 63.631s63.632 95.59 63.632 153.62h-434.505z" fill="#ff748f"/><path d="m276.077 8.423c-6.636-.605-13.331-.923-20.077-.923-119.793 0-217.252 97.458-217.252 217.252h40c0-113.076 86.84-206.236 197.329-216.329z" fill="#fd5f7e"/><circle cx="437.63" cy="245.107" fill="#ffcabd" r="44.821"/><path d="m395.489 108.432c-13.091-15.679-33.97-22.629-53.922-18.257-63.123 13.832-89.961-.963-119.094-9.849-42.702-13.025-88.797 2.984-114.652 39.38-21.065 29.654-33.451 65.902-33.451 105.046 0 100.311 81.319 181.63 181.63 181.63s181.63-81.319 181.63-181.63c0-44.257-15.834-84.812-42.141-116.32z" fill="#ffdcce"/><path d="m189.76 378.795h-30s-12.101 7.358-25.373 23.673l13.749 24.876c5.104-9.89 10.777-18.154 16.251-24.876 13.27-16.313 25.37-23.671 25.373-23.673z" fill="#5c586f"/><path d="m114.37 224.752c0-39.144 12.387-75.392 33.451-105.045 15.786-22.222 39.121-36.825 64.618-41.879-39.73-7.886-80.778 8.319-104.618 41.879-16.607 23.378-27.814 50.858-31.816 80.622-.54-.02-1.08-.042-1.635-.042-24.754 0-44.821 20.067-44.821 44.821s20.067 44.821 44.821 44.821c4.229 0 8.019-.598 11.414-1.693 25.746 69.002 92.238 118.146 170.216 118.146 6.76 0 13.431-.381 20-1.101-90.9-9.958-161.63-86.978-161.63-180.529z" fill="#ffcabd"/><path d="m392.672 203.749c-26.959-7.007-43.594-34.214-52.703-55.344-3.491-8.099-14.953-8.068-18.55-.015-10.922 24.456-31.791 57.064-65.42 57.064s-54.498-32.608-65.42-57.064c-3.597-8.053-15.058-8.084-18.55.015-9.108 21.13-25.743 48.337-52.703 55.344-7.76 2.017-13.22 8.954-13.22 16.971 0 8.018 5.461 14.955 13.22 16.971 26.959 7.007 43.594 34.214 52.703 55.344 3.491 8.099 14.953 8.069 18.55.015 10.922-24.456 31.791-57.064 65.42-57.064s54.498 32.608 65.42 57.064c3.597 8.053 15.058 8.084 18.55-.015 9.108-21.13 25.743-48.337 52.703-55.344 7.76-2.017 13.22-8.954 13.22-16.971.001-8.017-5.46-14.954-13.22-16.971z" fill="#77718c"/><path d="m110.876 443.739c-5.45 14.561-9.381 31.802-10.278 51.948-.128 2.878-.195 5.815-.195 8.813h30c0-19.341 2.764-36.181 7.1-50.706z" fill="#5c586f"/><g><path d="m236.408 504.5h-64.771l-60.761-60.761c6.524-17.485 15.246-31.123 23.511-41.271z" fill="#f9f097"/></g><path d="m134.153 467.019c1.761-8.416 4.055-16.172 6.717-23.283 3.291-8.821 7.142-16.659 11.211-23.568l-17.701-17.703c-9.897 12.151-17.846 26.089-23.511 41.271z" fill="#fccb88"/><g><path d="m401.124 443.739-60.761 60.761h-64.771l102.021-102.031c8.265 10.147 16.987 23.785 23.511 41.27z" fill="#f9f097"/></g></g><g><path d="m197.44 145.331c-6.295-14.096-26.236-13.93-32.285.105-8.561 19.859-23.786 44.838-47.702 51.054-11.089 2.882-18.834 12.846-18.834 24.23s7.745 21.348 18.833 24.23c23.916 6.216 39.141 31.194 47.702 51.054 6.064 14.07 26.01 14.155 32.285.105 19.424-43.494 42.573-52.623 58.572-52.623s39.148 9.129 58.572 52.623c6.271 14.041 26.219 13.97 32.285-.105 8.561-19.859 23.786-44.838 47.702-51.054 11.089-2.882 18.833-12.846 18.833-24.23s-7.745-21.348-18.833-24.23c-23.916-6.216-39.141-31.195-47.702-51.054-6.062-14.066-26.008-14.158-32.285-.105-19.424 43.493-42.573 52.623-58.572 52.623s-39.147-9.13-58.571-52.623zm130.84 6.117c.908-2.032 3.88-2.24 4.814-.075 23.673 54.917 56.589 58.779 57.704 59.634 4.479 1.164 7.606 5.158 7.606 9.712s-3.128 8.549-7.607 9.713c-29.783 7.741-47.818 36.702-57.703 59.634-.906 2.101-3.867 2.046-4.814-.074-22.704-50.835-51.832-61.506-72.269-61.506s-49.564 10.671-72.268 61.507c-.912 2.04-3.904 2.182-4.814.073-9.885-22.932-27.92-51.893-57.703-59.634-4.479-1.164-7.607-5.158-7.607-9.713s3.128-8.548 7.607-9.712c29.783-7.741 47.818-36.702 57.703-59.634.94-2.18 3.916-1.936 4.814.075 22.704 50.835 51.831 61.505 72.268 61.505 20.438.001 49.566-10.67 72.269-61.505z"/><path d="m177.056 208.14c-4.142 0-7.5 3.358-7.5 7.5v18.454c0 4.142 3.358 7.5 7.5 7.5s7.5-3.358 7.5-7.5v-18.454c0-4.142-3.358-7.5-7.5-7.5z"/><path d="m334.968 241.594c4.142 0 7.5-3.358 7.5-7.5v-18.454c0-4.142-3.358-7.5-7.5-7.5s-7.5 3.358-7.5 7.5v18.454c0 4.142 3.358 7.5 7.5 7.5z"/><path d="m280.304 264.016c-3.123-2.721-7.86-2.396-10.582.727-7.261 8.332-20.165 8.324-27.419 0-2.721-3.123-7.46-3.448-10.582-.727-3.123 2.722-3.448 7.459-.727 10.582 13.269 15.227 36.837 15.147 50.037 0 2.72-3.123 2.395-7.861-.727-10.582z"/><path d="m69.533 193.006c-7.363.663-15.006 3.004-21.821 7.053 5.659-48.26 27.819-92.785 63.484-126.88 2.994-2.862 3.101-7.61.239-10.604-2.863-2.995-7.61-3.101-10.604-.239-42.34 40.476-66.899 94.684-69.342 152.861-24.062 34.403.561 82.232 42.893 82.232 2.291 0 4.578-.153 6.845-.451 13.758 33.171 36.686 61.613 65.615 82.133-36.655 30.659-53.927 77.415-53.927 125.39 0 4.142 3.358 7.5 7.5 7.5h311.193c4.142 0 7.5-3.358 7.5-7.5 0-53.983-21.399-98.181-53.929-125.389 28.93-20.52 51.858-48.962 65.617-82.134 31.225 4.109 59.167-20.22 59.167-51.87 0-11.114-3.494-21.422-9.427-29.906-4.901-117.671-101.559-215.202-224.524-215.202-47.436 0-92.831 14.674-131.276 42.435-3.358 2.425-4.115 7.113-1.69 10.471s7.112 4.116 10.471 1.69c35.874-25.904 78.232-39.596 122.495-39.596 108.788 0 196.242 82.04 208.305 185.063-6.667-3.962-14.22-6.358-21.831-7.057-5.681-33.58-20.331-64.354-41.229-89.381-14.812-17.738-38.261-25.822-61.285-20.776-81.695 17.902-97.272-13.627-145.562-14.499-2.382.359-57.175-2.989-92.693 47.013-16.032 22.568-27.336 48.889-32.184 77.643zm6.308 89.394c-21.108.827-38.78-16.118-38.78-37.293 0-18.339 13.323-33.555 30.524-36.699-2.143 25.08.659 50.259 8.256 73.992zm32.221 214.6c.544-13.782 2.6-26.95 6.137-39.343l39.343 39.343zm11.599-55.094c4.13-10.049 9.32-19.452 15.492-28.075 19.889 19.891 66.784 66.79 83.162 83.169h-43.559zm238.82 55.094 39.343-39.343c3.538 12.393 5.593 25.562 6.137 39.343zm-6.516-109.248c3.488 2.64 9.15 7.359 15.447 14.324l-25.749 25.752c-2.929 2.929-2.928 7.678 0 10.607 2.93 2.929 7.678 2.928 10.607 0l24.601-24.604c6.172 8.623 11.361 18.026 15.492 28.075l-55.095 55.094h-43.558l37.774-37.778c2.929-2.929 2.928-7.678 0-10.607-2.93-2.929-7.678-2.928-10.607 0l-48.38 48.385h-32.97l-94.915-94.924c6.298-6.966 11.961-11.686 15.447-14.324 60.088 35.44 133.944 34.185 191.906 0zm84.218-105.352c7.421-23.186 10.453-48.346 8.26-73.991 8.003 1.48 15.423 5.631 20.868 11.685 22.08 24.406 3.799 63.597-29.128 62.306zm-92.999-184.898c17.5-3.834 35.332 2.29 46.559 15.737 78.237 93.45 37.74 237.761-78.473 276.651-104.91 35.174-214.714-35.705-228.02-143.275-7.375-58.594 17.569-116.974 49.392-142.322 73.033-58.145 94.25 18.693 210.542-6.791z"/></g></g></svg>