<svg id="Capa_1" enable-background="new 0 0 512 512" height="512" viewBox="0 0 512 512" width="512" xmlns="http://www.w3.org/2000/svg"><g><g><path d="m350.235 362.641h-188.47s-49.78 47.523-49.78 141.859h64.783l18.96-13.122 18.96 13.122h82.621l18.96-13.122 18.96 13.122h64.783c.003-94.336-49.777-141.859-49.777-141.859z" fill="#77718c"/><path d="m186.765 362.641h-25s-49.78 47.523-49.78 141.859h25c0-94.336 49.78-141.859 49.78-141.859z" fill="#5c586f"/><path d="m176.769 362.641h37.921v141.859h-37.921z" fill="#5c586f"/><path d="m297.31 362.641h37.921v141.859h-37.921z" fill="#5c586f" transform="matrix(-1 0 0 -1 632.542 867.141)"/><path d="m256 7.5c-97.328 0-176.228 78.9-176.228 176.228v161.211c0 14.925 8.567 28.525 22.028 34.97 13.929 6.669 30.128 6.669 44.057 0 13.929-6.669 30.128-6.669 44.057 0 13.929 6.669 30.128 6.669 44.057 0 13.929-6.669 30.128-6.669 44.057 0 13.929 6.669 30.128 6.669 44.057 0 13.929-6.669 30.128-6.669 44.057 0 13.929 6.669 30.128 6.669 44.057 0 13.461-6.445 22.028-20.045 22.028-34.97v-161.211c.001-97.328-78.899-176.228-176.227-176.228z" fill="#c6ade3"/><path d="m131.8 379.908c-13.461-6.445-22.028-20.045-22.028-34.969v-161.211c0-92.274 70.923-167.973 161.228-175.586-4.946-.417-9.946-.642-15-.642-97.328 0-176.228 78.9-176.228 176.228v161.211c0 14.925 8.567 28.525 22.028 34.969 11.642 5.574 24.866 6.471 37.029 2.727-2.389-.735-4.742-1.632-7.029-2.727z" fill="#b08bd7"/><g fill="#77718c"><path d="m439.331 183.62c-.004-5.912-4.874-10.671-10.786-10.671h-345.09c-5.912 0-10.782 4.759-10.786 10.671v.109 26.096c0 5.957 4.829 10.786 10.786 10.786h345.091c5.957 0 10.786-4.829 10.786-10.786v-26.096c-.001-.037-.001-.073-.001-.109z"/><path d="m183.721 15.261c-9.773 4.209-19.109 9.243-27.921 15.016-3.012 1.974-4.807 5.353-4.807 8.954v156.973h47.661v-171.063c.001-7.691-7.868-12.922-14.933-9.88z"/><path d="m356.199 30.278c-8.812-5.773-18.148-10.808-27.921-15.016-7.064-3.042-14.934 2.189-14.934 9.88v171.063h47.661v-156.973c.001-3.602-1.794-6.981-4.806-8.954z"/></g><path d="m212.072 423.773h-32.686c-9.894 0-17.915 8.021-17.915 17.915s8.021 17.915 17.915 17.915h32.686c9.894 0 17.915-8.021 17.915-17.915s-8.021-17.915-17.915-17.915z" fill="#c6ade3"/><path d="m299.928 423.773h32.686c9.894 0 17.915 8.021 17.915 17.915s-8.021 17.915-17.915 17.915h-32.686c-9.894 0-17.915-8.021-17.915-17.915s8.021-17.915 17.915-17.915z" fill="#c6ade3"/><circle cx="174.825" cy="196.779" fill="#ff748f" r="57.766"/><circle cx="174.825" cy="196.779" fill="#e8e8e8" r="25.69"/><circle cx="337.175" cy="196.779" fill="#ff748f" r="57.766"/><circle cx="337.175" cy="196.779" fill="#e8e8e8" r="25.69"/></g><g><path d="m141.636 196.781c0 18.301 14.889 33.19 33.19 33.19s33.19-14.889 33.19-33.19-14.889-33.19-33.19-33.19-33.19 14.889-33.19 33.19zm51.38 0c0 10.03-8.16 18.19-18.19 18.19s-18.19-8.16-18.19-18.19 8.16-18.19 18.19-18.19 18.19 8.16 18.19 18.19z"/><path d="m303.985 196.781c0 18.301 14.889 33.19 33.19 33.19s33.189-14.889 33.189-33.19-14.889-33.19-33.189-33.19c-18.301 0-33.19 14.889-33.19 33.19zm51.38 0c0 10.03-8.16 18.19-18.189 18.19-10.03 0-18.19-8.16-18.19-18.19s8.16-18.19 18.19-18.19c10.029 0 18.189 8.16 18.189 18.19z"/><path d="m102.374 97.036c-3.689-1.883-8.207-.42-10.09 3.27-10.96 21.467-17.474 44.496-19.397 68.512-4.658 3.287-7.712 8.661-7.715 14.703l-.001 26.306c0 5.869 2.791 11.087 7.103 14.435v120.678c0 17.706 10.319 34.088 26.289 41.734 10.509 5.031 22.027 6.747 33.235 5.193-13.047 23.97-27.311 61.795-27.311 112.633 0 4.142 3.358 7.5 7.5 7.5h288.028c4.143 0 7.5-3.358 7.5-7.5 0-50.838-14.264-88.663-27.311-112.634 31.047 4.307 59.525-16.217 59.525-46.927v-36.053c0-4.142-3.358-7.5-7.5-7.5-4.143 0-7.5 3.358-7.5 7.5v36.053c0 26.772-30.917 39.9-55.346 28.205-13.218-6.329-28.607-7.708-43.603-2.779-6.151 2.041-7.062 3.17-11.906 4.788-10.47 3.539-22.171 2.986-32.605-2.009-16.058-7.688-34.476-7.688-50.534 0-12.106 5.796-25.895 5.595-37.579 0-15.468-7.402-33.951-7.94-50.535 0-24.435 11.699-55.346-1.437-55.346-28.205v-116.828h30.305c24.83 45.309 89.876 44.921 114.493 0h47.855c24.777 45.174 89.726 45.196 114.494 0h30.305v50.775c0 4.142 3.357 7.5 7.5 7.5 4.142 0 7.5-3.358 7.5-7.5v-54.625c4.312-3.348 7.102-8.566 7.102-14.435v-26.209c-.004-6.103-3.061-11.501-7.72-14.797-4.14-51.478-29.662-98.586-70.628-130.341-.24-5.879-3.251-11.247-8.173-14.472-9.205-6.031-18.984-11.29-29.064-15.631-5.435-2.34-11.604-1.882-16.64 1.19-37.059-12.474-78.494-13.031-117.21 0-5.035-3.073-11.206-3.53-16.639-1.19-10.081 4.341-19.859 9.6-29.065 15.631-4.927 3.228-7.94 8.606-8.173 14.492-12.848 9.967-24.35 21.583-34.194 34.616-2.497 3.305-1.841 8.008 1.464 10.505s8.008 1.841 10.505-1.465c6.625-8.772 14.059-16.857 22.201-24.153v81.531c-10.936 5.99-19.927 14.982-25.917 25.917h-29.316c2.187-20.403 8.019-39.984 17.384-58.325 1.883-3.688.419-8.206-3.27-10.089zm109.699 355.067h-32.685c-5.678 0-10.415-4.632-10.415-10.414 0-5.783 4.741-10.415 10.415-10.415h32.685c5.635 0 10.415 4.595 10.415 10.415 0 5.858-4.82 10.414-10.415 10.414zm-4.883-59.882v24.052h-22.921v-30.653c4.229 1.719 10.87 5.611 22.921 6.601zm-53.612-7.387c5.073-1.766 10.397-2.548 15.691-2.381v35.927c-20.335 8.862-20.382 37.734 0 46.616v32.004h-49.673c1.643-55.558 21.229-93.307 33.982-112.166zm30.691 112.166v-29.897h22.921v29.897zm143.462-111.38v30.654h-22.921v-24.052c11.906-.98 19.16-5.079 22.921-6.602zm-27.803 45.653c35.77 0 32.926-.057 34.212.133 5.049.732 8.889 5.091 8.889 10.282 0 5.106-3.741 9.521-8.885 10.281-1.3.19 1.601.133-34.216.133-5.596 0-10.414-4.557-10.414-10.414-.001-5.177 4.724-10.415 10.414-10.415zm4.882 65.727v-29.897h22.921v29.897zm37.921 0v-32.004c20.336-8.861 20.383-37.734 0-46.616v-35.927c5.294-.167 10.619.615 15.691 2.381 12.753 18.858 32.34 56.608 33.981 112.166zm-86.73-114.614c15.372 0 18.733 6.424 33.809 9.128v26.866c-20.335 8.862-20.381 37.734 0 46.616v32.004h-67.62v-32.004c20.337-8.861 20.383-37.735 0-46.616v-26.867c15.02-2.693 18.524-9.127 33.811-9.127zm-54.086-143.297c-32.66 20.927-75.306-1.564-77.287-39.682-1.138-22.336 12.583-42.779 33.813-50.135 56.812-19.673 92.567 58.347 43.474 89.817zm36.11-25.978c2.752-10.628 2.742-22.068 0-32.661h35.95c-2.852 11.013-2.639 22.472 0 32.661zm140.901-44.288c25.316 37.701-8.748 86.747-52.554 77.042-7.121-1.573-13.96-4.73-19.95-9.365-31.936-24.797-22.943-74.307 14.372-87.23 21.184-7.316 45.064.196 58.132 19.553zm21.449 44.288c2.779-10.729 2.714-22.183 0-32.661 29.973.025 28.092-.053 28.735.055 1.556.282 2.719 1.57 2.72 3.116v26.204c0 1.853-1.557 3.286-3.285 3.286zm23.362-47.661h-29.314c-5.99-10.937-14.981-19.927-25.918-25.917v-81.543c31.093 27.801 50.756 65.943 55.232 107.46zm-98.425-143.298c9.286 3.999 18.295 8.844 26.776 14.401 2.075 1.358 1.229 3.851 1.417 5.648v91.379c-10.663-2.763-22.123-2.728-32.661 0 .018-113.358-.047-108.459.05-109.016.307-1.857 2.392-3.283 4.418-2.412zm-19.283.401c-.288 2.045-.167-4.166-.185 116.98-10.935 5.99-19.928 14.981-25.917 25.918h-47.854c-5.99-10.935-14.981-19.928-25.918-25.918-.174-114.156.269-114.031-.185-116.98 32.447-10.07 67.604-10.073 100.059 0zm-146.117 14.001c8.482-5.557 17.491-10.402 26.777-14.401 2.18-.938 4.467.76 4.467 2.992v108.437c-10.577-2.74-22.028-2.754-32.661 0v-91.38c.187-1.794-.66-4.287 1.417-5.648zm-79.741 147.072c.001-1.799 1.565-3.176 3.285-3.176h28.17c-2.665 10.294-2.828 21.737 0 32.661-30.154-.026-28.365.107-29.226-.19-1.292-.443-2.23-1.656-2.23-3.096v-26.095"/></g></g></svg>