<svg id="Capa_1" enable-background="new 0 0 512 512" height="512" viewBox="0 0 512 512" width="512" xmlns="http://www.w3.org/2000/svg"><g><g><path d="m48.017 215.484c0-114.683 93.301-207.984 207.983-207.984s207.983 93.301 207.983 207.984z" fill="#ffb78c"/><path d="m276 8.466c-6.584-.631-13.253-.966-20-.966-114.682 0-207.983 93.302-207.983 207.984h40c0-107.936 82.649-196.921 187.983-207.018z" fill="#ff995d"/><path d="m463.983 215.484c0 161.14-107.312 202.142-107.312 202.142h-201.343s-107.312-41.002-107.312-202.142z" fill="#ffb78c"/><path d="m88.017 215.484h-40c0 161.14 107.312 202.142 107.312 202.142h40c-.001 0-107.312-41.002-107.312-202.142z" fill="#ff995d"/><circle cx="427.472" cy="235.768" fill="#ffcabd" r="44.664"/><path d="m175.513 457.005 22.563 22.683-22.563 24.812h-62.931c0-17.738 2.069-33.53 5.456-47.495l32.301-20.72z" fill="#ff748f"/><path d="m118.038 457.005c-3.387 13.966-5.457 29.757-5.457 47.495h30c0-17.738 2.069-33.53 5.457-47.495z" fill="#fd5f7e"/><path d="m175.513 368.069 22.563 48.285-22.563 40.65h-57.475c15.294-63.062 57.475-88.935 57.475-88.935z" fill="#ffdcce"/><path d="m175.513 368.069s-42.181 25.872-57.475 88.936h30c8.016-33.053 23.417-55.885 36.26-70.134z" fill="#ffcabd"/><path d="m336.487 457.005-22.563 22.683 22.563 24.812h62.931c0-17.738-2.069-33.53-5.456-47.495l-32.301-20.72z" fill="#ff748f"/><path d="m336.487 368.069-22.563 48.285 22.563 40.65h57.475c-15.294-63.062-57.475-88.935-57.475-88.935z" fill="#ffdcce"/><path d="m175.513 368.069v136.431h65.878l14.609-11.884 26.102 11.884h54.385v-47.495-88.936z" fill="#5c586f"/><path d="m241.391 504.5-19.644-53.525h29.362l-7.246-41.119 66.336 65.933h-44.057l15.96 28.711z" fill="#f9f097"/><path d="m376.264 91.843c-12.048-11.721-27.24-19.835-43.79-22.773-21.025-3.732-49.232-.357-76.473 29.199-27.242-29.557-55.449-32.931-76.474-29.199-16.672 2.96-31.939 11.195-44.051 23.028-32.386 31.638-52.366 75.918-51.956 124.863.797 95.175 79.562 172.212 174.732 170.994 94.224-1.206 170.234-77.962 170.234-172.472 0-48.489-20.01-92.304-52.222-123.64z" fill="#ffdcce"/><path d="m123.52 216.961c-.41-48.945 19.57-93.226 51.955-124.863 10.533-10.29 23.452-17.854 37.605-21.6-12.207-3.365-23.674-3.182-33.554-1.428-16.672 2.96-31.939 11.195-44.051 23.028-26.576 25.962-44.787 60.442-50.243 99.023-.236-.004-.465-.018-.704-.018-24.667 0-44.664 19.997-44.664 44.665 0 24.667 19.997 44.664 44.664 44.664 4.103 0 7.791-.564 11.103-1.6 25.674 64.509 89.27 110.062 162.621 109.124 6.019-.077 11.963-.467 17.819-1.145-84.928-9.905-151.817-82.181-152.551-169.85z" fill="#ffcabd"/><path d="m368.612 154.226c-23.271-11.224-51.193-12.749-76.955-1.865-14.393 6.081-26.43 15.34-35.657 26.581-9.227-11.241-21.265-20.5-35.657-26.581-25.761-10.884-53.684-9.359-76.955 1.865-19.753 9.527-29.406 32.061-22.619 52.801 7.996 24.434 26.253 45.469 52.015 56.353 23.626 9.982 49.063 2.358 71.068-8.735 7.643-3.853 16.655-3.853 24.298 0 22.005 11.093 47.442 18.717 71.068 8.735 25.761-10.884 44.019-31.919 52.015-56.353 6.785-20.739-2.868-43.274-22.621-52.801z" fill="#ff748f"/></g><g><path d="m113.641 209.36c8.971 27.416 29.464 49.624 56.224 60.93 21.824 9.22 47.13 6.294 77.363-8.947 5.493-2.768 12.052-2.77 17.545 0 24.769 12.486 51.914 19.698 77.363 8.946 26.76-11.306 47.253-33.514 56.224-60.93 7.913-24.182-3.475-50.789-26.489-61.889-39.132-18.874-85.8-10.424-115.871 20.255-30.06-30.668-76.725-39.135-115.87-20.255-23.015 11.101-34.402 37.708-26.489 61.89zm33.005-48.379c22.215-10.715 48.015-11.329 70.778-1.711 12.745 5.385 24.08 13.833 32.779 24.431 2.998 3.654 8.596 3.653 11.594 0 24.597-29.965 67.433-40.144 103.557-22.72 16.275 7.85 24.336 26.643 18.75 43.713-7.621 23.289-25.045 42.161-47.805 51.777-17.522 7.403-38.71 4.615-64.773-8.523-9.722-4.901-21.33-4.901-31.051 0-26.063 13.139-47.25 15.926-64.773 8.523-22.76-9.616-40.185-28.488-47.806-51.777-5.585-17.07 2.475-35.863 18.75-43.713z"/><path d="m180.641 227.995c4.142 0 7.5-3.358 7.5-7.5v-16.509c0-4.142-3.358-7.5-7.5-7.5s-7.5 3.358-7.5 7.5v16.509c0 4.142 3.358 7.5 7.5 7.5z"/><path d="m331.359 227.995c4.142 0 7.5-3.358 7.5-7.5v-16.509c0-4.142-3.358-7.5-7.5-7.5s-7.5 3.358-7.5 7.5v16.509c0 4.142 3.358 7.5 7.5 7.5z"/><path d="m278.136 275.867c-3.122-2.721-7.86-2.395-10.582.727-6.109 7.009-16.982 7.031-23.108 0-2.721-3.123-7.459-3.448-10.582-.727s-3.448 7.459-.727 10.582c12.099 13.883 33.639 13.869 45.725 0 2.722-3.123 2.397-7.86-.726-10.582z"/><path d="m449.058 283.247c-4.948 20.964-12.364 40.233-22.137 57.479-2.042 3.604-.776 8.181 2.828 10.223 3.603 2.041 8.181.776 10.223-2.828 13.087-23.095 22.198-49.494 27.12-78.479 15.118-17.656 16.634-42.854 4.231-62.074-4.185-115.42-99.236-207.568-215.323-207.568-115.95 0-211.132 92.028-215.322 207.568-12.405 19.224-10.885 44.416 4.224 62.068 13.565 79.95 55.508 121.682 83.162 141.067-16.039 28.683-22.982 60.938-22.982 93.797 0 4.142 3.358 7.5 7.5 7.5h286.837c4.142 0 7.5-3.358 7.5-7.5 0-32.866-6.947-65.124-22.986-93.805 10.844-7.618 24.825-19.352 38.293-36.258 2.581-3.24 2.047-7.958-1.193-10.54-3.241-2.581-7.958-2.046-10.54 1.193-12.119 15.213-24.653 25.857-34.485 32.846-9.379-13.649-19.003-23.13-25.887-28.968 30.427-18.73 55.881-47.049 70.904-81.431 9.515 1.183 19.261-.298 28.033-4.29zm-22.401-10.341c7.855-23.407 10.809-48.421 8.619-73.452 9.103 1.968 16.931 7.185 22.245 14.479 17.915 24.588.001 59.624-30.864 58.973zm-170.657-257.906c102.653 0 187.248 77.389 199.062 176.521-6.969-4.32-14.297-6.738-21.806-7.593-6.288-35.856-23.58-70.046-51.762-97.461-34.363-33.428-86.268-36.656-125.494 1.079-34.773-33.454-79.088-35.111-113.817-10.725-3.854 2.706-4.315 8.312-.835 11.597 2.609 2.464 6.575 2.7 9.455.679 30.539-21.444 68.737-19.323 99.682 14.254 1.42 1.541 3.42 2.417 5.515 2.417 5.977 0 5.747-4.968 20.031-15.619 30.862-23.006 69.252-17.984 95.003 7.068 26.374 25.663 43.292 59.505 48.305 94.953 19.062 134.733-122.742 231.281-239.982 169.274 0 0 0 0-.001 0-95.163-50.519-116.408-173.762-48.994-252.872 3.33-3.924 2.327-8.484-.523-10.926-.001 0-.001-.001-.002-.002-3.146-2.695-7.88-2.329-10.575.817-21.745 25.472-35.118 55.22-40.476 85.461-7.771.87-15.234 3.467-21.846 7.599 11.806-99.084 96.353-176.521 199.06-176.521zm-194.414 249.973c-24.944-19.644-15.27-58.949 15.142-65.521-2.262 25.792 1.006 50.76 8.671 73.455-8.969.204-17.231-2.757-23.813-7.934zm1.352 18.275c8.714 3.969 18.518 5.493 28.138 4.278 14.991 34.097 40.348 62.421 70.941 81.326-6.893 5.829-16.584 15.345-26.028 29.089-23.598-16.73-58.061-51.051-73.051-114.693zm105.075 100.44v65.816h-40.157c10.197-33.534 28.329-54.796 40.157-65.816zm-43.974 80.817h43.974v32.495h-47.801c.394-11.225 1.675-22.106 3.827-32.495zm58.974-84.536c45.524 20.348 99.068 20.936 145.975.123v116.908h-42.474l-7.621-13.711h31.307c6.665 0 10.035-8.101 5.287-12.819l-66.336-65.933c-5.175-5.145-13.941-.57-12.673 6.621l5.695 32.318h-20.425c-5.207 0-8.837 5.191-7.041 10.084l15.942 43.44h-47.636c0-11.735 0-105.969 0-117.031zm63.614 117.031-14.139-38.524h18.621c4.665 0 8.194-4.217 7.386-8.802l-3.141-17.821 36.659 36.437h-25.872c-5.71 0-9.332 6.149-6.555 11.144l9.766 17.566zm97.361 0v-32.495h43.974c2.152 10.389 3.433 21.271 3.826 32.495zm0-47.495v-65.86c18.829 17.458 32.557 40.798 40.161 65.86z"/></g></g></svg>