<svg id="Capa_1" enable-background="new 0 0 512 512" height="512" viewBox="0 0 512 512" width="512" xmlns="http://www.w3.org/2000/svg"><g><g><path d="m124.763 412.024c-11.208-1.385-18.467 11.504-11.472 20.37l40.386 51.191 32.787-63.935z" fill="#f9f097"/><path d="m387.236 412.024c11.208-1.385 18.467 11.504 11.472 20.37l-40.386 51.191-32.787-63.935z" fill="#f9f097"/><path d="m130.191 504.5c0-70.477 54.09-111.831 54.09-111.831h143.436s54.09 41.354 54.09 111.831z" fill="#c6ade3"/><path d="m207.282 392.669h-23s-54.09 41.354-54.09 111.831h23c-.001-70.477 54.09-111.831 54.09-111.831z" fill="#b08bd7"/><circle cx="256" cy="406.727" fill="#ffdcce" r="44.167"/><circle cx="256" cy="217.234" fill="#a4e6ff" r="189.493"/><path d="m96.507 217.234c0-99.605 76.851-181.255 174.492-188.903-4.949-.387-9.951-.59-15-.59-104.654 0-189.492 84.839-189.492 189.492s84.839 189.494 189.493 189.494c5.049 0 10.051-.202 15-.59-97.641-7.647-174.493-89.298-174.493-188.903z" fill="#5bd6fd"/><path d="m132.698 185.611c-18.103-56.691-22.546-100.698-23.543-122.916-.378-8.428 7.244-14.981 15.512-13.306 23.615 4.786 69.728 17.293 109.21 46.904l-16.049 101.179-41.169 30.703z" fill="#ffb5ec"/><path d="m379.302 185.611c18.103-56.691 22.546-100.698 23.543-122.916.378-8.428-7.244-14.981-15.512-13.306-23.615 4.786-69.728 17.293-109.21 46.904l16.049 101.179 41.169 30.703z" fill="#ffb5ec"/><path d="m168.984 299.867s-2.508 62.071 87.016 61.373c89.523.698 87.016-61.373 87.016-61.373v-34.709l-87.016-42.243-84.49 38.754z" fill="#ffdcce"/><path d="m217.828 197.473s-54.112-37.123-152.776-52.816c-8.502-1.352-15.919 5.814-14.91 14.363 3.45 29.25 16.99 90.494 70.092 130.463 13.907 10.467 31.774 14.227 48.75 10.385 20.766-4.7 49.302-16.541 71.91-46.08z" fill="#c6ade3"/><path d="m294.172 197.473s54.112-37.123 152.776-52.816c8.502-1.352 15.919 5.814 14.91 14.363-3.45 29.25-16.99 90.494-70.092 130.463-13.907 10.467-31.774 14.227-48.75 10.385-20.766-4.7-49.302-16.541-71.91-46.08z" fill="#c6ade3"/><path d="m267.863 15.223c-4.566-10.298-19.16-10.298-23.726 0-15.88 35.812-42.073 106.751-42.073 185.041 0 0 3.013 57.219 53.936 83.735 50.923-26.516 53.936-83.735 53.936-83.735 0-78.29-26.194-149.228-42.073-185.041z" fill="#f9f097"/><path d="m232.064 200.264c0-73.325 22.976-140.198 38.936-177.808-1.081-2.547-2.13-4.962-3.137-7.233-4.566-10.298-19.16-10.298-23.726 0-15.88 35.813-42.073 106.751-42.073 185.041 0 0 3.013 57.219 53.936 83.735 5.55-2.89 10.53-6.145 15-9.65-36.544-28.659-38.936-74.085-38.936-74.085z" fill="#fccb88"/></g><g><path d="m163.33 264.159c4.142 0 7.5-3.358 7.5-7.5v-17.807c0-4.142-3.358-7.5-7.5-7.5s-7.5 3.358-7.5 7.5v17.807c0 4.142 3.358 7.5 7.5 7.5z"/><path d="m348.664 231.352c-4.142 0-7.5 3.358-7.5 7.5v17.807c0 4.142 3.358 7.5 7.5 7.5s7.5-3.358 7.5-7.5v-17.807c0-4.142-3.358-7.5-7.5-7.5z"/><path d="m283.046 297.917c-3.122-2.721-7.86-2.396-10.582.727-8.721 10.007-24.224 9.998-32.937 0-2.721-3.124-7.459-3.448-10.582-.727s-3.448 7.459-.727 10.582c14.699 16.868 40.869 16.852 55.554 0 2.723-3.123 2.397-7.861-.726-10.582z"/><path d="m392.108 349.255c3.084 2.765 7.826 2.505 10.591-.578 31.29-34.906 49.073-79.811 50.206-126.623 10.136-23.679 14.52-46.229 16.398-62.155 1.596-13.519-10.138-24.781-23.537-22.649-3.06.487-6.063 1.001-9.04 1.527-7.35-16.916-17.025-32.678-28.839-46.966 1.377-11.332 2.097-20.993 2.446-28.78.596-13.303-11.438-23.636-24.495-20.992-7.096 1.438-16.565 3.647-27.457 6.904-24.152-14.711-51.514-24.119-79.624-27.37-1.403-3.346-2.76-6.498-4.043-9.39-3.33-7.515-10.503-12.183-18.717-12.183-.102.031-13.137-.407-18.72 12.183-1.292 2.913-2.647 6.05-4.048 9.391-28.108 3.251-55.469 12.659-79.619 27.369-10.891-3.257-20.36-5.466-27.455-6.904-12.561-2.545-25.094 7.651-24.496 20.992.35 7.787 1.069 17.448 2.447 28.78-11.815 14.288-21.49 30.052-28.839 46.966-2.976-.526-5.978-1.04-9.038-1.527-13.265-2.11-25.104 9.377-23.538 22.648 1.879 15.927 6.263 38.479 16.4 62.16 1.84 76.595 47.192 141.793 111.51 172.778-3.561 3.493-7.891 8.092-12.488 13.753l-32.433-4.009c-17.829-2.196-29.412 18.348-18.28 32.459l21.204 26.876c-3.906 13.247-5.915 26.873-5.915 40.583 0 4.142 3.358 7.5 7.5 7.5h251.616c4.142 0 7.5-3.358 7.5-7.5 0-14.836-2.246-28.422-5.846-40.67l21.135-26.79c5.078-6.437 5.76-15.211 1.737-22.354-6.864-12.187-19.918-10.086-20.018-10.105l-32.365 4c-4.632-5.687-9.009-10.308-12.606-13.818 13.885-6.665 27.013-14.964 39.052-24.783 3.21-2.618 3.69-7.342 1.073-10.552-2.618-3.21-7.342-3.69-10.552-1.073-70.701 57.655-175.508 54.703-242.667-11.509-25.337-24.979-42.465-56.147-49.951-90.13 10.527 14.989 23.076 27.959 37.423 38.759 13.274 9.989 29.77 14.648 46.47 13.044 1.404 8.805 5.514 22.655 17.421 34.957 20.067 20.732 49.532 25.271 77.884 25.271 33.461 0 58.653-8.499 74.886-25.271 11.907-12.302 16.017-26.151 17.421-34.956 17.222 1.657 33.604-3.359 46.47-13.044 14.363-10.811 26.87-23.755 37.348-38.651-6.737 30.235-21.138 58.465-42.091 81.84-2.764 3.086-2.505 7.827.579 10.592zm-257.542 98.001-15.39-19.507c-2.787-3.533-.029-8.328 3.926-8.328.689 0-.484-.088 24.854 3.027-5.225 7.936-9.745 16.307-13.39 24.808zm253.586-27.789c4.575-.564 7.518 4.666 4.665 8.282l-15.35 19.457c-3.967-9.26-8.597-17.533-13.355-24.767zm-14.068 77.533h-38.631v-31.479c0-4.142-3.358-7.5-7.5-7.5s-7.5 3.358-7.5 7.5v31.479h-128.913v-31.479c0-4.142-3.358-7.5-7.5-7.5s-7.5 3.358-7.5 7.5v31.479h-38.631c3.063-51.857 37.082-86.142 47.739-95.664 6.118 2.336 12.359 4.357 18.699 6.07.367 28.176 23.388 50.987 51.65 50.987 28.273 0 51.303-22.831 51.651-51.024 6.298-1.711 12.521-3.728 18.652-6.073 10.639 9.497 44.719 43.801 47.784 95.704zm-81.652-86.14c-2.06 18.28-17.614 32.533-36.435 32.533-18.82 0-34.373-14.251-36.435-32.53.08.015.161.03.241.044 23.684 4.409 48.636 4.445 72.629-.047zm155.69-258.797c3.606-.572 6.71 2.474 6.284 6.078-5.744 48.692-27.508 95.511-67.154 125.349-12.139 9.137-27.659 12.44-42.584 9.062-20-4.527-38.386-14.048-53.239-27.625 23.095-27.835 25.754-60.45 25.978-64.019 0-.01.001-.017.001-.027.063-.998-.039-7.348-.053-8.01 39.776-20.343 86.952-33.839 130.767-40.808zm-26.514-10.389c-8.26 1.713-16.547 3.653-23.806 5.522 1.824-7.298 4.871-21.53 7.076-34.648 6.473 9.181 12.067 18.918 16.73 29.126zm-32.789-84.934c3.54-.716 6.688 2.113 6.53 5.619-1.313 29.269-6.838 60.807-14.149 89.423-22.059 6.521-44.187 14.803-64.551 24.683-1.731-27.009-6.45-56.323-14.678-87.056 26.209-15.538 57.541-26.73 86.848-32.669zm-103.648-19.151c18.782 3.046 37.071 9.061 53.989 17.745-15.2 5.616-29.345 12.281-41.42 19.175-3.614-12.051-8.34-25.847-12.569-36.92zm-112.339 17.744c16.919-8.684 35.208-14.698 53.99-17.745-3.829 9.917-8.697 23.987-12.569 36.919-12.138-6.927-26.324-13.595-41.421-19.174zm-49.657 1.407c29.159 5.908 60.359 16.992 86.848 32.67-1.978 7.4-4.173 16.433-5.907 24.553-.864 4.051 1.72 8.036 5.771 8.899 4.021.858 8.034-1.704 8.901-5.769 7.241-33.941 18.629-68.216 32.202-98.83 1.923-4.334 8.069-4.385 10.013 0 12.814 28.895 23.5 60.65 30.686 92.006 8.637 37.712 11.491 80.78 10.725 89.974-.381 4.548-4.977 47.92-41.842 72.358-1.737 1.149-3.568 2.267-4.575 2.843-25.7-14.686-43.159-44.083-46.326-74.235-.304-2.915.202-15.445.33-18.111.593-12.141 1.816-24.672 3.652-37.332.601-4.147-2.31-7.916-6.359-8.504-4.095-.592-7.904 2.245-8.5 6.345-1.647 11.347-2.811 22.92-3.443 32.862-20.607-9.997-42.767-18.245-64.557-24.687-7.311-28.617-12.836-60.154-14.149-89.423-.159-3.524 3.007-6.331 6.53-5.619zm-16.059 55.808c2.1 12.49 5.114 26.798 7.076 34.647-8.079-2.08-16.331-3.972-23.806-5.521 4.662-10.208 10.256-19.945 16.73-29.126zm-44.152 39.443c3.476 0 73.087 10.912 131.677 40.882-.142 6.844-.059 7.994-.07 7.812 1.083 19.3 10.297 45.327 25.991 64.242-6.095 5.573-13.08 10.728-20.912 15.158-24.708 13.967-52.327 20.404-74.911 3.406-39.307-29.584-61.351-76.158-67.154-125.349-.396-3.383 2.29-6.151 5.379-6.151zm258.444 181.253c-16.362 16.717-41.949 20.496-65.412 20.496-23.464 0-49.052-3.781-65.412-20.496-9.729-9.94-12.763-21.145-13.701-27.636 21.155-5.896 39.419-16.374 54.081-29.859 6.61 5.939 14.044 10.984 21.567 14.902 2.168 1.128 4.752 1.132 6.928 0 7.517-3.914 14.891-8.903 21.568-14.902 14.964 13.73 33.134 24.007 54.079 29.859-.938 6.504-3.974 17.701-13.698 27.636z"/></g></g></svg>