<svg id="Capa_1" enable-background="new 0 0 512 512" height="512" viewBox="0 0 512 512" width="512" xmlns="http://www.w3.org/2000/svg"><g><g><path d="m154.419 331.079s-45.023-1.589-85.968-16.479c-11.64-4.233-24.133 3.442-25.465 15.755-4.525 41.816.557 123.929 103.378 148.058l59.109-74.831v-60.053z" fill="#f9f097"/><path d="m62.986 320.354c.262-2.42.96-4.658 1.994-6.665-10.533-1.753-20.793 5.571-21.994 16.665-4.525 41.816.557 123.929 103.378 148.058l9.976-12.629c-93.119-26.975-97.727-105.017-93.354-145.429z" fill="#fccb88"/><path d="m357.581 331.079s45.023-1.589 85.968-16.479c11.64-4.233 24.133 3.442 25.465 15.755 4.525 41.816-.557 123.929-103.378 148.058l-59.109-74.831v-60.053z" fill="#ff748f"/><path d="m256 371.336 27.327 64.458-27.327 64.458h-128.383c0-89.346 56.7-128.917 56.7-128.917h71.683z" fill="#ff748f"/><path d="m205.318 371.335h-21s-56.7 39.571-56.7 128.917h21c-.001-89.346 56.7-128.917 56.7-128.917z" fill="#fd5f7e"/><path d="m384.383 500.252h-128.383v-128.916h71.682s56.701 39.57 56.701 128.916z" fill="#f9f097"/><circle cx="256" cy="198.665" fill="#5bd6fd" r="186.917"/><path d="m99.083 198.665c0-98.181 75.7-178.676 171.917-186.317-4.949-.393-9.95-.6-15-.6-103.232 0-186.917 83.686-186.917 186.917s83.686 186.917 186.917 186.917c5.05 0 10.051-.207 15-.6-96.217-7.641-171.917-88.136-171.917-186.317z" fill="#00c4fc"/><path d="m140.744 215.823c0 63.654 51.602 115.256 115.256 115.256s115.256-51.602 115.256-115.256l-115.256-47.699z" fill="#da9d81"/><path d="m504.352 110.67c1.203-6.607-5.158-12.017-11.5-9.807-20.634 7.188-35.449 4.786-35.449 4.786 32.018-23.101 43.019-51.883 46.736-67.04 1.329-5.419-2.736-10.649-8.314-10.778-150.821-3.493-211.228 61.123-231.298 86.778-4.329 5.534-12.727 5.534-17.057 0-20.07-25.656-80.477-90.272-231.298-86.778-5.578.129-9.643 5.36-8.314 10.778 3.717 15.157 14.718 43.938 46.736 67.04 0 0-14.815 2.402-35.449-4.786-6.342-2.209-12.703 3.2-11.499 9.807 3.491 19.166 14.428 51.848 48.683 72.479 0 0-11.323 5.272-32.388 1.865-6.362-1.029-11.624 4.989-9.729 11.149 4.289 13.938 14.072 35.378 35.774 50.883 10.111 7.223 21.727 12.06 33.875 14.674 76.051 16.361 135.192-21.731 159.753-41.531 7.219-5.82 17.549-5.82 24.768 0 24.561 19.8 83.702 57.893 159.753 41.531 12.148-2.613 23.764-7.45 33.875-14.674 21.703-15.505 31.486-36.945 35.774-50.883 1.896-6.16-3.367-12.178-9.729-11.149-21.065 3.407-32.388-1.865-32.388-1.865 34.257-20.631 45.195-53.313 48.685-72.479z" fill="#e8e8e8"/><path d="m60.718 28.866c-13.895-1.01-28.715-1.402-44.544-1.035-5.578.129-9.643 5.36-8.314 10.779 3.717 15.157 14.718 43.938 46.736 67.04 0 0-14.815 2.402-35.449-4.786-6.342-2.209-12.703 3.2-11.5 9.807 3.491 19.166 14.428 51.848 48.683 72.479 0 0-11.323 5.271-32.388 1.865-6.362-1.029-11.624 4.989-9.729 11.149 4.289 13.938 14.072 35.378 35.774 50.883 10.111 7.223 21.727 12.06 33.875 14.674 9.786 2.105 19.289 3.303 28.477 3.76-52.212-77.139-53.281-193.268-51.621-236.615z" fill="#dadad8"/></g><g><path d="m168.926 198.371v-20.218c0-4.142-3.358-7.5-7.5-7.5s-7.5 3.358-7.5 7.5v20.218c0 4.142 3.358 7.5 7.5 7.5s7.5-3.358 7.5-7.5z"/><path d="m358.074 198.371v-20.218c0-4.142-3.358-7.5-7.5-7.5s-7.5 3.358-7.5 7.5v20.218c0 4.142 3.358 7.5 7.5 7.5s7.5-3.358 7.5-7.5z"/><path d="m279.221 263.477c2.721-3.123 2.396-7.86-.727-10.582-3.123-2.721-7.86-2.396-10.582.727-6.298 7.228-17.51 7.248-23.826 0-2.722-3.123-7.459-3.447-10.582-.727-3.122 2.722-3.448 7.459-.727 10.582 12.29 14.1 34.167 14.088 46.444 0z"/><path d="m490.382 93.797c-3.997 1.393-7.757 2.391-11.193 3.101 20.833-21.052 29.046-43.499 32.231-56.484 2.464-10.048-5.026-19.821-15.424-20.063-49.043-1.137-92.847 4.735-130.779 17.473-65.78-44.768-152.649-44.804-218.487.035-13.684-4.605-28.14-8.338-43.319-11.137-4.073-.755-7.984 1.942-8.735 6.016-.751 4.073 1.942 7.984 6.016 8.735 54.921 10.127 106.861 34.293 140.873 77.774 7.219 9.228 21.67 9.199 28.87 0 51.84-66.272 141.034-85.854 225.213-83.9.796.018 1.39.736 1.204 1.494-3.462 14.117-13.762 41.041-43.84 62.742-5.4 3.896-3.399 12.417 3.187 13.485.683.111 16.945 2.616 39.117-5.106.93-.324 1.825.421 1.653 1.381-3.07 16.859-13.021 48.032-45.173 67.396-5.135 3.093-4.738 10.69.704 13.224 1.373.639 14.064 6.139 36.75 2.469.892-.143 1.623.694 1.363 1.54-4.216 13.702-13.358 32.977-32.965 46.985-11.586 8.277-23.419 12.179-37.038 14.615-53.866 9.636-106.627-8.242-147.519-41.209-9.921-7.999-24.3-7.965-34.182 0-78.564 63.348-157.786 39.106-153.484 40.033-32.792-7.063-54.813-30.446-64.038-60.425-.262-.847.476-1.683 1.363-1.539 22.684 3.668 35.378-1.83 36.751-2.469 5.434-2.53 5.845-10.127.704-13.224-32.151-19.363-42.103-50.537-45.173-67.396-.175-.954.719-1.706 1.653-1.381 22.172 7.724 38.434 5.217 39.116 5.106 6.572-1.065 8.6-9.58 3.187-13.485-30.078-21.702-40.377-48.625-43.839-62.742-.187-.761.411-1.476 1.204-1.495 19.03-.44 37.518.226 54.948 1.982 4.13.41 7.799-2.589 8.214-6.711.415-4.121-2.589-7.798-6.711-8.214-18.042-1.817-37.154-2.507-56.799-2.053-10.386.242-17.891 10.001-15.424 20.063 3.185 12.985 11.398 35.432 32.23 56.484-3.436-.709-7.196-1.708-11.192-3.1-11.77-4.101-23.578 5.969-21.345 18.233 2.994 16.438 11.718 44.75 37.085 66.635-3.52-.01-7.6-.295-12.215-1.041-11.85-1.916-21.624 9.284-18.094 20.758 10.087 32.779 33.526 58.463 66.852 68.496 6.734 17.982 15.974 34.546 27.236 49.35-10.832-2.42-20.912-5.317-30.121-8.665-16.253-5.91-33.632 4.878-35.484 21.997-7.393 68.331 19.697 124.645 85.704 149.138-.72 6.843-1.117 14.031-1.117 21.563 0 4.142 3.358 7.5 7.5 7.5h256.76c4.142 0 7.5-3.358 7.5-7.5 0-7.534-.397-14.723-1.117-21.568 19.526-7.26 36.055-17.388 49.179-30.176 2.966-2.891 3.028-7.639.137-10.606-2.891-2.966-7.639-3.027-10.606-.137-10.939 10.659-24.666 19.284-40.889 25.704-1.52-8.237-3.507-15.904-5.811-23.043 11.824-4.861 25.836-12.793 36.013-25.353 2.608-3.218 2.113-7.941-1.105-10.549-3.219-2.607-7.942-2.113-10.549 1.105-8.133 10.037-19.645 16.593-29.572 20.726-3.171-7.533-6.662-14.329-10.264-20.409 10.909-4.879 23.424-12.465 32.715-23.931 2.608-3.218 2.113-7.941-1.105-10.549-3.217-2.606-7.94-2.113-10.549 1.105-8.141 10.046-19.7 16.584-29.424 20.656-6.352-8.725-12.525-15.338-17.363-19.941 19.907-9.752 37.907-22.818 53.474-38.759 18.825-3.069 35.994-7.398 51.066-12.879 7.092-2.578 14.639 2.065 15.445 9.513 2.546 23.526 1.745 57.759-16.526 87.241-2.182 3.52-1.097 8.143 2.424 10.326 3.522 2.183 8.144 1.096 10.326-2.424 20.517-33.106 21.487-70.889 18.689-96.755-1.857-17.164-19.279-27.892-35.484-21.997-9.21 3.349-19.29 6.245-30.121 8.665 11.262-14.804 20.502-31.368 27.236-49.35 33.373-10.047 56.782-35.77 66.852-68.496 3.531-11.474-6.243-22.674-18.094-20.758-4.615.747-8.695 1.032-12.215 1.041 25.368-21.885 34.093-50.199 37.086-66.635 2.232-12.258-9.571-22.331-21.346-18.231zm-142.748-49.403c-64.541 26.672-86.792 65.278-90.42 66.661-.855.326-1.901.306-2.785-.162-1.269-.673-2.586-3.374-10.6-12.158-22.196-24.254-49.307-41.901-79.463-54.341 56.243-33.523 127.001-33.537 183.268 0zm-99.311 181.647c4.048-3.264 9.886-3.626 14.368-.709 2.15 1.397 36.251 31.573 87.308 43.224-18.945 33.717-54.875 55.035-93.999 55.035s-75.055-21.318-94-55.036c31.843-7.265 61.888-22.819 86.323-42.514zm-197.877 105.133c.805-7.441 8.347-12.095 15.445-9.514 15.07 5.48 32.239 9.81 51.066 12.879 15.548 15.921 33.543 28.995 53.474 38.759-4.839 4.603-11.012 11.215-17.363 19.941-9.725-4.073-21.284-10.61-29.425-20.657-2.608-3.218-7.33-3.713-10.549-1.105-3.218 2.608-3.713 7.33-1.105 10.549 9.291 11.466 21.806 19.052 32.716 23.931-3.602 6.08-7.094 12.876-10.264 20.409-9.927-4.133-21.439-10.689-29.572-20.727-2.608-3.219-7.331-3.713-10.549-1.105s-3.713 7.33-1.105 10.549c10.178 12.56 24.19 20.492 36.014 25.353-2.304 7.139-4.291 14.807-5.811 23.044-72.582-28.728-77.044-94.675-72.972-132.306zm135.104 48.756c20.128 7.837 41.252 12.205 62.951 13.022v99.81h-61.999v-36.179c0-4.142-3.358-7.5-7.5-7.5s-7.5 3.358-7.5 7.5v36.179h-36.239c1.91-49.905 23.496-90.247 50.287-112.832zm154.949 112.832v-36.179c0-4.142-3.358-7.5-7.5-7.5s-7.5 3.358-7.5 7.5v36.179h-61.999v-99.81c21.698-.817 42.822-5.185 62.95-13.022 27.419 23.116 48.405 63.673 50.287 112.832zm45.453-170.405c-88.217 92.681-242.775 65.678-294.254-51.516 17.948 2.947 36.662 3.149 54.844.575 20.844 40.988 63.182 67.175 109.458 67.175 46.278 0 88.618-26.189 109.46-67.18 18.499 2.617 37.629 2.299 54.842-.57-14.404 32.792-35.668 52.901-34.35 51.516z"/></g></g></svg>