<svg id="Capa_1" enable-background="new 0 0 512 512" height="512" viewBox="0 0 512 512" width="512" xmlns="http://www.w3.org/2000/svg"><g><g><path d="m389.349 504.5c0-39.812-13.932-75.53-40.291-103.293-19.597-20.639-39.677-29.859-41.902-30.841h-118.477c-2.225.983-22.305 10.202-41.902 30.841-26.359 27.763-40.291 63.481-40.291 103.293z" fill="#e8e8e8"/><path d="m354.519 504.5c0-75.128-61.44-102.276-61.44-102.276h-90.324s-61.44 27.149-61.44 102.276z" fill="#c6ade3"/><path d="m232.871 370.366h30.092v134.134h-30.092z" fill="#e8e8e8"/><path d="m258.908 12.104c-6.124-6.138-15.857-6.138-21.982 0-219.085 219.55-160.144 398.717 10.991 398.717 171.136 0 230.077-179.167 10.991-398.717z" fill="#5bd6fd"/><path d="m262.917 16.155c-1.329-1.35-2.659-2.699-4.009-4.052-6.124-6.138-15.857-6.138-21.982 0-219.085 219.551-160.144 398.718 10.991 398.718 5.102 0 10.102-.164 15-.479-158.387-10.18-207.907-183.019 0-394.187z" fill="#00c4fc"/><ellipse cx="164.146" cy="294.599" fill="#e8e8e8" rx="30.91" ry="24.615"/><ellipse cx="331.689" cy="294.599" fill="#e8e8e8" rx="30.91" ry="24.615"/><path d="m272.838 275.686c0-15.402-11.158-16.849-24.921-16.849s-24.921 1.447-24.921 16.849c0 15.401 11.158 27.887 24.921 27.887s24.921-12.486 24.921-27.887z" fill="#423e4f"/><circle cx="351.176" cy="91.423" fill="#a4e6ff" r="48.109"/><path d="m371.176 119.532c-26.57 0-48.109-21.539-48.109-48.109 0-8.136 2.028-15.797 5.594-22.516-15.222 8.078-25.594 24.083-25.594 42.516 0 26.57 21.539 48.109 48.109 48.109 18.433 0 34.438-10.372 42.516-25.594-6.719 3.566-14.379 5.594-22.516 5.594z" fill="#00c4fc"/><circle cx="85.127" cy="191.923" fill="#a4e6ff" r="48.109"/><path d="m105.127 220.033c-26.57 0-48.109-21.539-48.109-48.109 0-8.137 2.028-15.797 5.594-22.516-15.222 8.078-25.594 24.082-25.594 42.516 0 26.57 21.539 48.109 48.109 48.109 18.433 0 34.438-10.372 42.516-25.594-6.72 3.566-14.38 5.594-22.516 5.594z" fill="#5bd6fd"/><circle cx="101.849" cy="59.468" fill="#5bd6fd" r="28.3"/><circle cx="446.683" cy="180.861" fill="#00c4fc" r="28.3"/><circle cx="94.883" cy="337.562" fill="#a4e6ff" r="28.3"/><circle cx="406.804" cy="287.217" fill="#00c4fc" r="28.3"/></g><g><path d="m161.817 265.22c0 4.142 3.357 7.5 7.5 7.5 4.141 0 7.5-3.358 7.5-7.5v-12.621c0-4.142-3.358-7.5-7.5-7.5s-7.5 3.358-7.5 7.5z"/><path d="m280.337 275.694c0-24.348-21.897-24.348-32.42-24.348s-32.42 0-32.42 24.348c0 19.512 14.544 35.385 32.42 35.385s32.42-15.874 32.42-35.385zm-49.84 0c0-6.482.705-9.348 17.421-9.348 5.244 0 11.036.218 14.229 1.838 1.116.565 3.191 1.618 3.191 7.51 0 11.241-7.815 20.386-17.42 20.386s-17.421-9.145-17.421-20.386z"/><path d="m334.019 265.22v-12.621c0-4.142-3.357-7.5-7.5-7.5-4.141 0-7.5 3.358-7.5 7.5v12.621c0 4.142 3.358 7.5 7.5 7.5 4.142-.001 7.5-3.359 7.5-7.5z"/><path d="m66.056 59.484c0 19.74 16.059 35.799 35.798 35.799s35.798-16.059 35.798-35.799c0-19.739-16.059-35.798-35.798-35.798s-35.798 16.058-35.798 35.798zm56.597 0c0 11.469-9.33 20.799-20.799 20.799s-20.799-9.33-20.799-20.799c0-11.468 9.33-20.799 20.799-20.799s20.799 9.33 20.799 20.799z"/><path d="m482.475 180.872c0-19.739-16.059-35.798-35.798-35.798-19.74 0-35.799 16.059-35.799 35.798 0 19.74 16.059 35.799 35.799 35.799 19.739 0 35.798-16.059 35.798-35.799zm-56.597 0c0-11.468 9.33-20.799 20.799-20.799 11.468 0 20.799 9.33 20.799 20.799s-9.33 20.799-20.799 20.799-20.799-9.33-20.799-20.799z"/><path d="m401.113 322.567c21.68 3.477 41.484-13.278 41.484-35.342 0-19.656-15.925-35.657-35.55-35.792-3.915-33.881-16.29-70.046-36.867-107.736 21.33-7.782 36.6-28.27 36.6-52.259 0-30.662-24.945-55.607-55.607-55.607-16.929 0-32.104 7.613-42.311 19.585-13.586-16.168-28.566-32.478-44.645-48.592-7.383-7.401-16.399-6.826-16.299-6.805-6.131 0-11.92 2.417-16.3 6.805-24.082 24.134-45.611 48.612-63.989 72.754-2.509 3.295-1.871 8.001 1.425 10.51s8.001 1.87 10.51-1.425c17.974-23.612 39.06-47.582 62.671-71.244 3.208-3.215 8.184-3.188 11.363 0 16.991 17.027 32.725 34.262 46.826 51.292-17.065 38.274 12.636 80.94 54.402 78.213 21.245 37.929 33.831 74.06 37.472 107.557-25.79 11.329-28.737 47.2-5.191 62.652-8.075 25.549-23.968 46.716-46.231 61.467-38.324 25.391-95.52 30.108-139.956 19.445-31.223-7.513-56.554-22.889-73.683-45.128 9.096-19.145-.275-42.724-22.04-49.627-3.604-18.221-3.679-38.162-.219-59.412 32.732-12.517 45.563-51.775 27.564-81.008 8.278-16.491 18.292-33.401 29.805-50.325 2.33-3.425 1.442-8.09-1.982-10.419-3.425-2.33-8.09-1.442-10.42 1.983-10.563 15.528-19.892 31.062-27.862 46.32-9.831-8.761-22.777-14.1-36.95-14.1-30.662 0-55.607 24.945-55.607 55.607 0 31.853 27.066 57.869 59.774 55.435-2.614 19.306-2.465 37.656.445 54.775-17.31 2.502-30.655 17.431-30.655 35.424 0 30.292 35.495 46.807 58.666 27.518 8.151 9.945 17.78 18.58 28.697 25.843-30.934 29.686-47.463 69.243-47.463 113.571 0 4.142 3.358 7.5 7.5 7.5h282.853c4.142 0 7.5-3.358 7.5-7.5 0-41.769-14.644-79.272-42.35-108.453-1.65-1.737-3.366-3.442-5.117-5.122 24.58-16.34 42.438-39.538 51.737-68.36zm-49.94-271.737c22.391 0 40.608 18.217 40.608 40.608 0 20.186-14.807 36.972-34.128 40.085-24.803 3.982-47.087-15.21-47.087-40.119.014-22.203 18.098-40.574 40.607-40.574zm76.424 236.395c0 11.469-9.331 20.799-20.799 20.799-9.776 0-18.303-6.875-20.34-16.475-2.773-13.242 7.434-25.122 20.34-25.122 11.469-.001 20.799 9.329 20.799 20.798zm-383.072-95.291c0-22.391 18.216-40.608 40.608-40.608 20.29 0 37.152 14.958 40.138 34.427.001.008.002.017.003.025 2.367 15.509-4.461 30.864-17.159 39.61-26.396 18.226-63.59-.34-63.59-33.454zm50.363 166.433c-11.468 0-20.799-9.33-20.799-20.799 0-13.123 12.162-23.221 25.331-20.287 13.578 3.033 20.29 18.279 13.706 30.269-3.538 6.44-10.385 10.817-18.238 10.817zm130.484 58.901v79.732h-76.333c2.217-37.28 21.835-66.745 49.7-84.014 8.514 1.977 17.397 3.406 26.633 4.282zm14.999 79.732v-78.793c4.717.146 9.903.164 15.091.001v78.792zm-80.467-98.124c6.469 3.356 13.262 6.271 20.353 8.763-27.247 21.286-44.253 52.02-46.219 89.361h-19.873c1.866-39.727 18.558-73.523 45.739-98.124zm221.765 98.125h-19.875c-.568-10.601-2.324-20.822-5.283-30.459-1.216-3.96-5.411-6.184-9.371-4.968-3.959 1.216-6.183 5.411-4.968 9.371 2.526 8.227 4.074 16.963 4.62 26.055h-76.33v-79.732c9.237-.876 18.12-2.306 26.635-4.282 8.757 5.417 22.791 16.032 33.822 33.466 2.215 3.5 6.848 4.542 10.348 2.328 3.5-2.215 4.542-6.847 2.327-10.348-8.73-13.797-19.117-23.857-28.006-30.796 7.087-2.491 13.876-5.405 20.342-8.759 2.673 2.42 5.246 4.93 7.686 7.499 23.345 24.588 36.418 55.792 38.053 90.625z"/></g></g></svg>