<svg id="Capa_1" enable-background="new 0 0 512 512" height="512" viewBox="0 0 512 512" width="512" xmlns="http://www.w3.org/2000/svg"><g><g><path d="m153.214 405.719s-41.269 34.244-41.269 98.781h288.112c0-64.537-41.269-98.781-41.269-98.781l-17.122-43.464h-159.368z" fill="#f9f097"/><path d="m183.214 405.719 29.085-43.464h-30l-29.085 43.464s-41.269 34.244-41.269 98.781h30c-.001-64.537 41.269-98.781 41.269-98.781z" fill="#fccb88"/><circle cx="256" cy="228.493" fill="#ff748f" r="193.411"/><path d="m470.713 219.068-45.516-18.994c-12.503-5.217-16.69-20.851-8.468-31.619l29.911-39.172c5.51-7.216-.43-17.497-9.434-16.326l-48.856 6.35c-13.45 1.748-24.91-9.712-23.161-23.161l6.35-48.856c1.17-9.003-9.11-14.944-16.326-9.434l-39.173 29.911c-10.768 8.222-26.402 4.035-31.619-8.468l-18.995-45.519c-3.494-8.373-15.357-8.373-18.851 0l-18.994 45.516c-5.217 12.503-20.852 16.69-31.619 8.468l-39.173-29.911c-7.216-5.51-17.497.43-16.326 9.434l6.35 48.856c1.748 13.45-9.712 24.91-23.161 23.161l-48.856-6.35c-9.003-1.17-14.944 9.11-9.434 16.326l29.911 39.173c8.222 10.768 4.035 26.402-8.468 31.619l-45.516 18.994c-8.373 3.494-8.373 15.357 0 18.851l45.516 18.994c12.503 5.217 16.69 20.851 8.468 31.619l-29.911 39.172c-5.51 7.216.43 17.497 9.434 16.326l48.856-6.35c13.45-1.748 24.91 9.712 23.161 23.161l-6.35 48.856c-1.17 9.004 9.11 14.944 16.326 9.434l39.173-29.911c10.768-8.222 26.402-4.035 31.619 8.468l18.994 45.517c3.494 8.374 15.357 8.374 18.851 0l18.994-45.516c5.217-12.503 20.851-16.69 31.619-8.468l39.173 29.911c7.216 5.51 17.497-.43 16.326-9.434l-6.35-48.856c-1.748-13.45 9.712-24.91 23.161-23.161l48.856 6.35c9.004 1.17 14.944-9.11 9.434-16.326l-29.911-39.173c-8.222-10.768-4.035-26.402 8.468-31.619l45.517-18.994c8.374-3.492 8.374-15.355 0-18.849z" fill="#ffb78c"/><g id="XMLID_8_"><path d="m256 353.481c-15.2 0-29.366-3.74-39.886-10.529-10.883-7.024-14.011-21.539-6.988-32.423 7.023-10.882 21.539-14.009 32.422-6.988 1.627 1.05 6.74 3.035 14.452 3.035 7.713 0 12.826-1.985 14.453-3.035 10.883-7.025 25.398-3.894 32.422 6.989 7.023 10.883 3.894 25.399-6.989 32.422-10.521 6.789-24.686 10.529-39.886 10.529z" fill="#ffdcce"/></g><path d="m213.042 219.355-62.348-12.61c-12.169-2.461-23.739 6.593-24.063 19.004-.23 8.801 1.76 17.794 6.251 26.152 13.285 24.728 44.264 34.59 69.419 22.133 12.172-6.028 20.962-16.145 25.543-27.863 4.514-11.545-2.652-24.359-14.802-26.816z" fill="#ffdcce"/><path d="m298.958 219.355 62.348-12.61c12.169-2.461 23.739 6.593 24.063 19.004.23 8.801-1.76 17.794-6.251 26.152-13.285 24.728-44.264 34.59-69.419 22.133-12.172-6.028-20.962-16.145-25.543-27.863-4.514-11.545 2.652-24.359 14.802-26.816z" fill="#ffdcce"/><circle cx="256" cy="150.336" fill="#f9f097" r="31.875"/></g><g><path d="m266.441 297.198c-.032.019-3.556 1.871-10.442 1.871-6.859 0-10.381-1.837-10.387-1.837-14.341-9.252-33.537-5.114-42.791 9.224-9.254 14.341-5.117 33.537 9.223 42.792 24.247 15.649 63.658 15.65 87.909 0 14.341-9.253 18.479-28.449 9.225-42.792-9.32-14.441-28.505-18.446-42.737-9.258zm25.379 39.446c-19.223 12.405-52.262 12.507-71.641 0-7.391-4.77-9.523-14.664-4.753-22.054 4.745-7.353 14.628-9.545 22.054-4.754 8.715 5.625 28.323 5.627 37.041 0 7.407-4.781 17.272-2.655 22.053 4.754 4.77 7.391 2.638 17.285-4.754 22.054z"/><path d="m276.451 319.176c-3.123-2.721-7.86-2.397-10.582.726-5.218 5.987-14.505 6.005-19.738 0-2.721-3.123-7.459-3.448-10.582-.727-3.123 2.722-3.448 7.46-.726 10.582 11.208 12.859 31.159 12.845 42.354 0 2.722-3.122 2.396-7.859-.726-10.581z"/><path d="m234.829 248.893c6.183-15.815-3.515-33.504-20.301-36.899l-62.35-12.611c-16.784-3.396-32.603 9.141-33.048 26.161-1.192 45.734 47.213 74.66 86.499 55.204 13.393-6.634 23.763-17.947 29.2-31.855zm-100.704-22.958c.202-7.719 7.447-13.395 15.079-11.85 4.253.86 57.749 11.68 62.35 12.611 7.429 1.503 12.181 9.373 9.304 16.735-4.074 10.423-11.847 18.902-21.887 23.873-29.504 14.612-65.74-7.173-64.846-41.369z"/><path d="m179.702 231.536c-4.142 0-7.5 3.358-7.5 7.5v14.631c0 4.142 3.358 7.5 7.5 7.5s7.5-3.358 7.5-7.5v-14.631c0-4.142-3.358-7.5-7.5-7.5z"/><path d="m359.822 199.383-62.35 12.611c-16.77 3.391-26.491 21.067-20.301 36.899 5.437 13.909 15.807 25.222 29.201 31.855 39.291 19.455 87.693-9.441 86.499-55.204-.446-17.058-16.3-29.547-33.049-26.161zm-46.793 67.922c-10.039-4.972-17.812-13.45-21.887-23.874-2.877-7.36 1.872-15.231 9.304-16.734.102-.021 62.922-12.863 64.868-12.863 6.72 0 12.384 5.313 12.561 12.102.888 33.965-35.14 56.081-64.846 41.369z"/><path d="m332.298 231.536c-4.142 0-7.5 3.358-7.5 7.5v14.631c0 4.142 3.358 7.5 7.5 7.5s7.5-3.358 7.5-7.5v-14.631c0-4.142-3.358-7.5-7.5-7.5z"/><path d="m256 189.701c21.712 0 39.377-17.664 39.377-39.377s-17.665-39.376-39.377-39.376-39.377 17.664-39.377 39.377 17.664 39.376 39.377 39.376zm0-63.753c13.441 0 24.376 10.935 24.376 24.376s-10.935 24.376-24.376 24.376-24.376-10.935-24.376-24.376 10.935-24.376 24.376-24.376z"/><path d="m117.037 465.687c-4.04-.908-8.054 1.631-8.962 5.673-2.412 10.732-3.636 21.882-3.636 33.139 0 4.142 3.359 7.5 7.5 7.5h288.121c4.142 0 7.5-3.358 7.5-7.5 0-10.289-1.022-20.507-3.038-30.368-.83-4.058-4.793-6.675-8.85-5.846-4.058.83-6.676 4.792-5.846 8.851 1.324 6.477 2.172 13.131 2.533 19.862h-41.7v-31.355c0-4.142-3.358-7.5-7.5-7.5s-7.5 3.358-7.5 7.5v31.357h-159.318v-31.355c0-4.142-3.358-7.5-7.5-7.5s-7.5 3.358-7.5 7.5v31.355h-41.7c.408-7.591 1.436-15.081 3.069-22.35.908-4.042-1.632-8.054-5.673-8.963z"/><path d="m473.608 244.831c14.494-6.048 14.506-26.643 0-32.695l-18.113-7.558c-2.261-19.075-7.217-37.604-14.765-55.204l11.876-15.553c9.536-12.489-.767-30.346-16.362-28.316l-19.434 2.526c-11.489-15.321-25.035-28.867-40.357-40.357l2.526-19.434c2.026-15.586-15.815-25.906-28.316-16.362l-15.553 11.875c-17.6-7.548-36.129-12.504-55.204-14.765l-7.558-18.113c-6.048-14.494-26.643-14.506-32.695 0l-7.558 18.113c-19.075 2.261-37.604 7.217-55.204 14.764l-15.553-11.875c-12.492-9.539-30.344.765-28.316 16.362l2.526 19.435c-15.322 11.488-28.868 25.034-40.358 40.356l-19.435-2.526c-15.582-2.026-25.908 15.814-16.362 28.316l11.875 15.553c-7.548 17.6-12.504 36.129-14.765 55.204l-18.112 7.558c-14.493 6.047-14.507 26.642-.001 32.695l18.113 7.558c2.261 19.076 7.217 37.605 14.765 55.204l-11.875 15.553c-9.538 12.491.76 30.334 16.362 28.316l19.434-2.526c11.49 15.32 25.035 28.866 40.357 40.356-1.889 17.643-3.724 20.851-1.913 26.849-6.014 7.917-11.234 16.573-15.539 25.799-1.752 3.754-.128 8.217 3.626 9.968 3.753 1.752 8.217.128 9.968-3.625 3.456-7.407 7.561-14.398 12.244-20.86.775.185 4.81 2.121 10.373.914 5.199-1.127 6.902-3.185 22.585-15.123 17.6 7.548 36.129 12.504 55.204 14.764l7.559 18.114c6.033 14.457 26.625 14.549 32.696 0l7.559-18.114c19.075-2.261 37.604-7.216 55.203-14.764 15.924 12.123 15.996 12.39 18.134 13.506 4.286 2.254 9.369 2.772 14.816.707 4.169 5.771 9.003 13.509 13.213 22.97 1.684 3.785 6.117 5.488 9.901 3.804s5.488-6.117 3.804-9.901c-4.499-10.113-10.077-19.565-16.61-28.164 1.806-5.99-.012-9.073-1.915-26.843 15.322-11.491 28.868-25.036 40.356-40.356l19.435 2.526c15.583 2.03 25.907-15.817 16.361-28.316l-11.875-15.553c7.548-17.6 12.504-36.13 14.765-55.205zm-50.913-71.836 7.448-9.755c4.202 11.208 7.297 22.784 9.255 34.621l-11.308-4.719c-7.966-3.326-10.637-13.284-5.395-20.147zm-23.19-62.715c-2.941.379-11.092 1.453-12.399 1.596-8.577.933-15.566-6.403-14.477-14.778l1.575-12.119c9.233 7.608 17.693 16.068 25.301 25.301zm-78.262-55.94c-3.418 2.61-6.326 4.83-9.755 7.448-6.863 5.24-16.82 2.576-20.146-5.396l-4.719-11.308c11.837 1.96 23.412 5.054 34.62 9.256zm-130.487 0c11.208-4.202 22.784-7.297 34.62-9.255l-4.719 11.308c-3.332 7.983-13.301 10.623-20.147 5.396zm-78.261 55.939c7.609-9.233 16.069-17.693 25.301-25.301 1.601 12.529 1.666 12.318 1.687 13.645.121 7.889-6.8 14.276-14.869 13.231zm-28.586 82.863-11.308 4.719c1.959-11.836 5.054-23.412 9.256-34.621l7.448 9.755c5.13 6.717 2.721 16.76-5.396 20.147zm-11.308 65.965 11.308 4.718c7.987 3.333 10.626 13.297 5.396 20.147l-7.448 9.755c-4.202-11.208-7.297-22.783-9.256-34.62zm39.893 87.581 12.119-1.575c8.552-1.105 15.874 6.166 14.757 14.758l-1.575 12.118c-9.232-7.609-17.692-16.069-25.301-25.301zm78.262 55.939 9.755-7.449c6.836-5.218 16.805-2.612 20.147 5.396l4.719 11.308c-11.837-1.958-23.413-5.053-34.621-9.255zm130.487 0c-11.208 4.202-22.784 7.297-34.62 9.255l4.719-11.308c3.13-7.502 12.184-10.353 19.017-6.161 1.195.734.765.525 10.884 8.214zm52.961-30.638c-1.601-12.536-1.665-12.308-1.686-13.645-.125-8.147 7.058-14.241 14.869-13.231l12.118 1.575c-7.608 9.232-16.068 17.692-25.301 25.301zm63.974-35.401c-24.499-3.185-47.797-6.218-49.113-6.376-18.278-2.214-33.674 13.403-31.311 31.592 6.238 50.544 7.084 49.209 5.874 50.803-.855 1.121-2.508 1.593-3.861.561-41.177-31.268-39.496-30.552-43.293-32.535-14.327-7.482-32.516-1.313-38.975 14.165-14.723 35.282-18.008 43.155-18.994 45.517-.938 2.249-4.077 2.233-5.008 0l-18.994-45.518c-7.093-16.997-28.348-22.798-43.094-11.541-41.944 31.881-39.465 30.705-41.144 30.465-1.412-.21-2.582-1.408-2.367-3.059l6.35-48.858c2.383-18.338-13.228-33.953-31.566-31.567l-48.858 6.35c-2.398.311-3.985-2.401-2.506-4.338 32.689-42.899 33.157-42.097 34.969-49.88 3.061-13.13-3.632-26.976-16.599-32.388l-45.519-18.994c-2.219-.926-2.255-4.067 0-5.008 15.501-6.468 32.661-13.629 45.518-18.994 17.039-7.11 22.756-28.407 11.541-43.094l-29.912-39.174c-1.473-1.93.098-4.653 2.506-4.338.1.013 51.771 6.729 48.864 6.351 18.265 2.38 33.947-13.195 31.561-31.567l-6.35-48.858c-.312-2.398 2.401-3.985 4.337-2.506 40.24 30.726 41.86 33.05 49.711 34.931 13.272 3.186 27.165-3.641 32.557-16.561l18.994-45.518c.926-2.22 4.067-2.254 5.008 0 0 0 19.036 45.711 19.67 47.015 7.767 15.991 28.291 20.833 42.418 10.044l39.175-29.912c1.912-1.46 4.652.082 4.337 2.506-6.515 51.2-6.745 49.456-6.566 53.742.683 16.33 15.297 28.831 31.783 26.683l48.858-6.35c2.407-.315 3.98 2.407 2.506 4.337l-29.912 39.174c-11.204 14.674-5.513 35.979 11.541 43.094l45.518 18.994c2.219.926 2.254 4.067 0 5.008 0 0-42.207 17.612-45.519 18.994-16.989 7.09-22.787 28.366-11.541 43.094l29.912 39.175c1.458 1.911-.077 4.654-2.506 4.339zm-10.087-72.762 11.308-4.719c-1.959 11.836-5.053 23.412-9.255 34.621l-7.448-9.755c-5.239-6.86-2.578-16.821 5.395-20.147z"/></g></g></svg>