<svg id="Capa_1" enable-background="new 0 0 512 512" height="512" viewBox="0 0 512 512" width="512" xmlns="http://www.w3.org/2000/svg"><g><g><path d="m256 7.5c-99.75 0-180.612 80.863-180.612 180.612v194.559h361.224v-194.559c0-99.749-80.863-180.612-180.612-180.612z" fill="#c6ade3"/><path d="m266 7.78c-3.311-.181-6.644-.28-10-.28-99.749 0-180.612 80.863-180.612 180.612v194.56h20v-194.56c0-96.393 75.515-175.142 170.612-180.332z" fill="#b08bd7"/><path d="m103.969 426.174s-45.53 10.742-45.53 78.326h395.122c0-67.584-45.53-78.326-45.53-78.326l-152.031-32.654z" fill="#76e6d5"/><path d="m103.969 426.174s-45.53 10.742-45.53 78.326h30c0-67.584 45.53-78.326 45.53-78.326z" fill="#00d6bc"/><circle cx="256" cy="221.28" fill="#ffb78c" r="148.872"/><circle cx="256" cy="221.28" fill="#ffb78c" r="148.872"/><path d="m137.128 221.281c0-77.156 58.697-140.601 133.872-148.123-4.933-.493-9.937-.749-15-.749-82.22 0-148.872 66.652-148.872 148.872 0 82.219 66.652 148.872 148.872 148.872 5.063 0 10.067-.255 15-.749-75.175-7.523-133.872-70.967-133.872-148.123z" fill="#ff995d"/><path d="m235.159 393.52h41.683v110.98h-41.683z" fill="#e8e8e8"/><path d="m425.712 340.39h-339.424c-18.637 0-33.745 15.108-33.745 33.745v18.295c0 18.637 15.108 33.745 33.745 33.745h339.425c18.637 0 33.745-15.108 33.745-33.745v-18.295c-.001-18.637-15.109-33.745-33.746-33.745z" fill="#c7c5cb"/><g fill="#b2b0bc"><path d="m82.543 392.429v-18.295c0-18.637 15.108-33.745 33.745-33.745h-30c-18.637 0-33.745 15.108-33.745 33.745v18.295c0 18.637 15.108 33.745 33.745 33.745h30c-18.637 0-33.745-15.108-33.745-33.745z"/><circle cx="375.91" cy="383.282" r="15.519"/><circle cx="295.97" cy="383.282" r="15.519"/><circle cx="216.03" cy="383.282" r="15.519"/><circle cx="136.09" cy="383.282" r="15.519"/></g><path d="m256 139.073 26.779-64.258c-8.688-1.578-17.636-2.407-26.779-2.407s-18.092.829-26.779 2.407z" fill="#76e6d5"/><path d="m133.515 136.657 64.355 26.494-26.494-64.355c-14.785 10.234-27.626 23.075-37.861 37.861z" fill="#76e6d5"/><path d="m232.371 82.374c12.171-4.702 25.111-7.859 38.585-9.212-.206-.021-.412-.043-.619-.063-12.493-1.206-25.395-.884-38.676 1.301-.814.134-1.629.268-2.439.415h-.001z" fill="#00d6bc"/><path d="m133.515 136.657 23.773 9.787c6.107-10.481 13.457-20.146 21.849-28.798l-7.76-18.851s-.001 0-.001.001c-14.786 10.235-27.626 23.075-37.861 37.861z" fill="#00d6bc"/><path d="m340.624 98.796-26.494 64.355 64.355-26.494c-10.235-14.786-23.076-27.627-37.861-37.861z" fill="#76e6d5"/><g><g><g><g><ellipse cx="175.034" cy="237.27" fill="#e8e8e8" rx="29.875" ry="23.791"/></g><g><ellipse cx="336.966" cy="237.27" fill="#e8e8e8" rx="29.875" ry="23.791"/></g></g></g></g></g><g><path d="m375.91 406.301c12.692 0 23.019-10.326 23.019-23.019 0-12.692-10.326-23.019-23.019-23.019s-23.019 10.326-23.019 23.019c.001 12.693 10.327 23.019 23.019 23.019zm0-31.038c4.421 0 8.019 3.597 8.019 8.019s-3.597 8.019-8.019 8.019-8.019-3.597-8.019-8.019c.001-4.422 3.598-8.019 8.019-8.019z"/><path d="m295.97 406.301c12.692 0 23.019-10.326 23.019-23.019 0-12.692-10.326-23.019-23.019-23.019s-23.019 10.326-23.019 23.019 10.327 23.019 23.019 23.019zm0-31.038c4.421 0 8.019 3.597 8.019 8.019s-3.597 8.019-8.019 8.019-8.019-3.597-8.019-8.019 3.598-8.019 8.019-8.019z"/><path d="m216.03 406.301c12.693 0 23.019-10.326 23.019-23.019 0-12.692-10.326-23.019-23.019-23.019-12.692 0-23.019 10.326-23.019 23.019s10.326 23.019 23.019 23.019zm0-31.038c4.422 0 8.019 3.597 8.019 8.019s-3.597 8.019-8.019 8.019c-4.421 0-8.019-3.597-8.019-8.019s3.597-8.019 8.019-8.019z"/><path d="m136.09 406.301c12.692 0 23.019-10.326 23.019-23.019 0-12.692-10.326-23.019-23.019-23.019s-23.019 10.326-23.019 23.019 10.326 23.019 23.019 23.019zm0-31.038c4.421 0 8.019 3.597 8.019 8.019s-3.597 8.019-8.019 8.019-8.019-3.597-8.019-8.019 3.597-8.019 8.019-8.019z"/><path d="m266.653 228.956c-5.9 8.481-15.399 8.493-21.307 0-2.366-3.4-7.04-4.239-10.44-1.874s-4.239 7.04-1.874 10.44c11.894 17.098 34.064 17.063 45.934 0 2.365-3.4 1.526-8.075-1.874-10.44s-8.073-1.527-10.439 1.874z"/><path d="m201.914 203.334c-6.19 7.103-17.189 7.095-23.373 0-2.721-3.124-7.459-3.448-10.582-.727s-3.448 7.459-.727 10.582c12.168 13.964 33.834 13.949 45.99 0 2.721-3.123 2.396-7.86-.727-10.582-3.122-2.721-7.86-2.396-10.581.727z"/><path d="m333.458 203.334c-6.185 7.097-17.184 7.101-23.372 0-2.721-3.124-7.459-3.448-10.582-.727s-3.448 7.459-.727 10.582c12.167 13.963 33.833 13.95 45.989 0 2.721-3.123 2.396-7.86-.727-10.582-3.122-2.721-7.86-2.396-10.581.727z"/><path d="m135.404 63.934c2.971-2.886 3.041-7.634.154-10.605s-7.634-3.04-10.605-.154c-36.799 35.743-57.065 83.665-57.065 134.937v149.125c-13.53 6.775-22.845 20.765-22.845 36.897v18.295c0 19.868 14.122 36.498 32.854 40.385-.645.584-1.292 1.186-1.937 1.817-20.68 20.228-25.021 49.159-25.021 69.868 0 4.142 3.358 7.5 7.5 7.5h395.122c4.142 0 7.5-3.358 7.5-7.5 0-20.709-4.341-49.641-25.021-69.868-.646-.631-1.292-1.233-1.937-1.818 18.732-3.887 32.854-20.517 32.854-40.385v-18.295c0-16.132-9.315-30.123-22.845-36.897v-149.124c0-103.725-84.387-188.112-188.112-188.112-38.38 0-75.308 11.497-106.793 33.249-3.408 2.354-4.262 7.025-1.908 10.434 2.355 3.408 7.024 4.262 10.434 1.908 28.966-20.013 62.947-30.591 98.267-30.591 95.454 0 173.112 77.658 173.112 173.112v144.917c-3.866-.316-5.731-.032-63.592-.14 9.698-9.509 18.11-20.225 25.108-32.04 2.111-3.564.933-8.164-2.631-10.275-3.563-2.109-8.164-.933-10.275 2.631-9.112 15.384-20.86 28.724-34.944 39.684h-173.557c-59.205-46.046-70.476-127.33-32.805-186.928 61.642 25.159 58.655 24.69 61.453 24.69 5.319 0 8.972-5.411 6.937-10.355l-24.125-58.599c13.333-8.428 28.163-14.69 43.997-18.285l24.399 58.547c2.56 6.142 11.288 6.138 13.846 0l24.399-58.547c15.833 3.595 30.664 9.857 43.997 18.285l-24.125 58.6c-2.034 4.939 1.611 10.355 6.937 10.355 2.783 0 .089.356 61.453-24.69 23.327 36.904 27.779 81.772 14.077 121.465-1.352 3.915.727 8.185 4.642 9.537 3.914 1.352 8.185-.727 9.537-4.642 16.163-46.816 9.169-98.973-19.188-139.933-62.928-90.911-195.956-88.626-257.303 0-17.557 25.362-27.72 56.236-27.72 88.893 0 43.4 17.595 82.824 46.892 111.609-51.825.096-59.446-.204-63.632.14v-144.919c-.001-47.183 18.649-91.283 52.515-124.178zm48.68 85.431-38.749-15.953c6.711-8.434 14.363-16.086 22.796-22.796zm71.916-29.789-16.144-38.74c10.726-1.232 21.514-1.232 32.289 0zm71.915 29.789 15.953-38.749c8.434 6.711 16.086 14.363 22.797 22.797zm-222.932 284.309h122.676v63.326h-84.069v-31.627c0-4.142-3.358-7.5-7.5-7.5s-7.5 3.358-7.5 7.5v31.627h-62.446c2.808-50.21 33.592-61.724 38.839-63.326zm137.676 63.326v-63.326h26.683v63.326zm203.195 0h-62.443v-31.627c0-4.142-3.358-7.5-7.5-7.5s-7.5 3.358-7.5 7.5v31.627h-84.069v-63.326h122.665c5.071 1.578 36.014 13.256 38.847 63.326zm-11.791-147.74c10.388 3.497 17.894 13.323 17.894 24.875v18.295c0 14.471-11.773 26.245-26.245 26.245-37.976 0-303.279 0-339.425 0-14.471 0-26.245-11.773-26.245-26.245v-18.295c0-11.551 7.505-21.376 17.892-24.874 6.464-2.17 348.899-2.427 356.129-.001z"/></g></g></svg>