<svg id="Capa_1" enable-background="new 0 0 512 512" height="512" viewBox="0 0 512 512" width="512" xmlns="http://www.w3.org/2000/svg"><g><g><path d="m45.263 345.937v158.563h55.159l155.578-20.391 155.578 20.391h55.159v-158.563z" fill="#f9f097"/><path d="m45.264 345.937h30v158.563h-30z" fill="#fccb88"/><path d="m411.578 504.5c0-53.439-48.517-88.597-48.517-88.597h-214.122s-48.517 35.157-48.517 88.597z" fill="#ff748f"/><path d="m178.939 415.903h-30s-48.517 35.157-48.517 88.597h30c0-53.439 48.517-88.597 48.517-88.597z" fill="#fd5f7e"/><path d="m463.665 314.713c-58.414 18.919-119.979 23.844-119.979 23.844h-175.372s-61.565-4.925-119.979-23.844c-14.406-4.666-27.709 9.595-21.934 23.593 15.295 37.072 48.809 90.004 116.599 95.879 56.069 4.859 84.459 16.872 98.753 27.06 8.556 6.098 19.937 6.098 28.492 0 14.294-10.187 42.684-22.2 98.753-27.06 67.79-5.875 101.305-58.807 116.599-95.879 5.777-13.998-7.526-28.259-21.932-23.593z" fill="#a4e6ff"/><path d="m56.402 327.009c-1.155-3.443-1.536-6.895-1.309-10.175-2.255-.687-4.508-1.393-6.757-2.121-14.406-4.666-27.709 9.595-21.934 23.593 14.61 35.412 45.847 85.291 107.7 94.808-42.372-22.346-65.673-70.253-77.7-106.105z" fill="#5bd6fd"/><circle cx="256" cy="210.646" fill="#f9f097" r="171.693"/><path d="m114.307 210.646c0-89.768 68.896-163.433 156.693-171.034-4.944-.428-9.945-.66-15-.66-94.824 0-171.693 76.87-171.693 171.693 0 94.824 76.87 171.693 171.693 171.693 5.055 0 10.056-.231 15-.66-87.798-7.599-156.693-81.264-156.693-171.032z" fill="#fccb88"/><path d="m279.534 21.786-11.982-10.075c-6.678-5.615-16.427-5.615-23.105 0l-11.982 10.075c-18.136 15.249-27.56 38.478-25.176 62.052l8.188 80.964 40.523 67.244 40.522-67.245 8.188-80.964c2.384-23.573-7.04-46.802-25.176-62.051z" fill="#b2b0bc"/><path d="m431.999 143.682c-.542-10.734-8.069-19.727-18.541-22.149-39.16-9.059-82.453.024-116.212 28.283-19.707 16.496-33.537 37.344-41.246 59.824-7.709-22.48-21.539-43.328-41.246-59.824-33.904-28.38-77.424-37.419-116.716-28.165-10.086 2.375-17.447 11.169-18.01 21.515-2.195 40.308 14.361 81.558 48.265 109.938 28.304 23.693 63.307 33.883 96.96 31.223l-8.886 32.474c-4.014 14.669 7.027 29.137 22.235 29.137h34.797c15.208 0 26.249-14.468 22.235-29.137l-8.886-32.474c33.653 2.661 68.655-7.529 96.96-31.223 33.758-28.259 50.317-69.279 48.291-109.422z" fill="#ff748f"/><g fill="#ffdcce"><ellipse cx="174.125" cy="203.415" rx="35.133" ry="50.961" transform="matrix(.545 -.839 .839 .545 -91.301 238.711)"/><ellipse cx="337.875" cy="203.415" rx="50.961" ry="35.133" transform="matrix(.839 -.545 .545 .839 -56.281 216.762)"/></g></g><g><path d="m185.44 249.444c13.144 0 25.999-4.178 36.166-12.459 1.218-.992 2.094-2.341 2.504-3.856 6.515-24.083-4.494-51.002-26.772-65.464-22.277-14.461-51.347-13.558-70.691 2.197-1.218.992-2.094 2.341-2.504 3.857-9.906 36.616 20.239 75.725 61.297 75.725zm-47.38-69.433c14.328-10.235 34.975-10.24 51.112.235 16.137 10.475 24.536 29.336 21.022 46.589-14.329 10.235-34.975 10.24-51.112-.235s-24.537-29.335-21.022-46.589z"/><path d="m179.156 221.034c4.142 0 7.5-3.358 7.5-7.5v-15.088c0-4.142-3.358-7.5-7.5-7.5s-7.5 3.358-7.5 7.5v15.088c0 4.142 3.358 7.5 7.5 7.5z"/><path d="m290.392 236.985c10.17 8.282 23.022 12.459 36.167 12.459 41.018 0 71.203-39.107 61.296-75.726-.41-1.516-1.286-2.865-2.503-3.857-19.344-15.754-48.414-16.657-70.692-2.197-22.278 14.462-33.286 41.381-26.771 65.464.41 1.516 1.285 2.865 2.503 3.857zm32.435-56.739c16.137-10.476 36.784-10.469 51.112-.235 3.515 17.253-4.885 36.114-21.022 46.589-16.137 10.476-36.783 10.469-51.111.235-3.516-17.253 4.884-36.113 21.021-46.589z"/><path d="m332.843 221.034c4.141 0 7.5-3.358 7.5-7.5v-15.088c0-4.142-3.358-7.5-7.5-7.5s-7.5 3.358-7.5 7.5v15.088c0 4.142 3.357 7.5 7.5 7.5z"/><path d="m280.846 258.633c2.722-3.122 2.396-7.86-.726-10.581-3.122-2.722-7.86-2.396-10.581.726-7.159 8.213-19.9 8.238-27.078 0-2.722-3.122-7.459-3.447-10.582-.727-3.122 2.722-3.448 7.459-.727 10.582 13.15 15.087 36.559 15.072 49.694 0z"/><path d="m461.347 307.583c-23.14 7.494-46.834 12.753-66.608 16.339 30.531-37.328 44.963-85.325 39.195-134.395 4.388-14.898 6.342-30.516 5.55-46.213-.716-14.19-10.498-25.875-24.341-29.078-3.074-.711-6.166-1.3-9.267-1.795-24.34-37.11-60.929-63.558-103.65-74.921-9.839-17.301-21.758-24.016-29.848-31.535-9.49-7.98-23.267-7.98-32.757 0-7.81 7.259-20.042 14.297-29.842 31.524-16.119 4.293-31.557 10.838-45.937 19.476-3.55 2.133-4.699 6.741-2.566 10.291s6.74 4.699 10.291 2.567c9.763-5.865 20.057-10.676 30.74-14.374-4.984 18.175-2.797 25.652 2.438 77.743-23.912-15.296-51.835-22.94-79.006-22.503 6.617-8.607 14.085-16.555 22.313-23.742 3.12-2.724 3.44-7.462.716-10.582s-7.462-3.44-10.582-.716c-12.339 10.775-23.086 23.143-32.035 36.769-3.29.524-6.569 1.154-9.829 1.922-13.26 3.123-23.038 14.804-23.779 28.407-.865 15.891 1.081 31.701 5.519 46.773-.819 6.982-1.251 14.074-1.251 21.113 0 42.93 15.181 82.376 40.449 113.269-19.775-3.586-43.47-8.845-66.608-16.339-20.501-6.639-39.385 13.693-31.177 33.588 5.257 12.743 11.376 24.427 18.294 34.99v128.339c0 4.142 3.357 7.5 7.5 7.5h421.461c4.142 0 7.5-3.358 7.5-7.5v-128.338c6.919-10.564 13.038-22.248 18.294-34.991 8.218-19.919-10.702-40.22-31.177-33.588zm-151.66-252.129c30.452 10.483 56.946 29.599 76.592 55.254-28.407-.482-56.108 7.861-79.025 22.505l4.916-48.609c1.009-10.004.047-20.429-2.483-29.15zm-60.413-37.989c3.897-3.276 9.553-3.276 13.45 0 7.328 7.203 22.386 14.83 30.596 36.212 6.967 18.238 4.147 27.075-2.368 91.651-14.472 12.436-26.486 27.85-34.953 44.903-8.13-16.37-19.867-31.903-34.952-44.902-6.524-64.659-10.567-76.126.481-98.038 8.33-16.187 19.662-22.263 27.746-29.826zm-161.754 126.118c.382-7.002 5.415-13.015 12.24-14.622 65.732-15.479 111.713 27.861 110.18 26.615 18.672 15.63 31.771 35.527 38.965 56.505 2.309 6.733 11.876 6.742 14.189 0 20.984-61.196 85.793-97.777 148.669-83.231 7.245 1.676 12.366 7.792 12.74 15.22 3.626 71.838-55.33 133.582-127.856 133.179-6.392-.035-9.005-.462-10.219-.411-4.799.201-8.189 4.823-6.916 9.473l8.886 32.473c2.707 9.897-4.73 19.656-15.001 19.656-36.451-.035-34.994.082-36.609-.103-8.744-1.004-14.893-9.143-13.566-17.776.252-1.64.076-.539 9.265-34.25 1.398-5.109-2.763-9.855-7.825-9.456-77.133 6.092-141.214-58.487-137.142-133.272zm127.791 148.668-6.178 22.575c-5.337 19.506 9.346 38.615 29.468 38.615 37.239.096 38.091.349 43.512-1.249 15.355-4.528 25.284-20.804 20.752-37.366l-6.177-22.575c51.644.219 97.989-27.862 123.098-70.038-5.663 81.061-70.431 146.084-151.378 152.161-91.221 6.758-169.898-62.025-176.195-152.164 25.05 42.086 71.434 70.261 123.098 70.041zm-162.543 103.662c18.581 21.094 40.606 34.686 64.71 41.311-13.183 17.224-22.566 37.898-24.26 59.776h-40.45zm406.462 101.087h-40.45c-1.686-21.747-10.957-42.38-24.261-59.777 24.359-6.718 46.277-20.386 64.71-41.31v101.087zm19.428-161.549c-20.314 49.24-55.423 85.407-107.771 91.016-3.96.423-17.096 1.357-33.782 4.069-9.344 1.518-7.281 16.384 2.405 14.805 19.785-3.214 28.762-3.237 38.541-4.663 13.657 16.075 23.716 35.325 25.667 56.322h-295.437c1.956-21.115 12.102-40.352 25.667-56.322 13.603 1.969 72.724 4.77 103.453 26.675 11.124 7.928 26.071 7.929 37.197 0 10.457-7.453 24.359-12.537 36.695-15.96 9.119-2.53 5.467-17.081-4.01-14.454-17.227 4.78-31.152 10.903-41.39 18.199-2.933 2.089-6.39 3.163-9.893 3.163-12.071 0-12.261-11.232-54.412-22.249-51.695-13.51-72.494-3.576-109.188-25.942-21.86-13.426-43.524-37.005-59.059-74.658-3.334-8.082 4.322-16.313 12.689-13.598 32.127 10.405 65.17 16.611 87.982 20.054 67.868 63.121 174.474 64.641 243.975 0 22.811-3.442 55.852-9.648 87.982-20.054 8.334-2.7 16.038 5.482 12.689 13.597z"/></g></g></svg>