<svg id="Capa_1" enable-background="new 0 0 512 512" height="512" viewBox="0 0 512 512" width="512" xmlns="http://www.w3.org/2000/svg"><g><g><path d="m90.496 375.745-28.72 34.56-45.13-36.8c-9.62-7.84-11.05-22-3.21-31.61 7.84-9.62 22-11.06 31.61-3.21z" fill="#77718c"/><path d="m421.504 375.745 28.72 34.56 45.13-36.8c9.62-7.84 11.05-22 3.21-31.61-7.84-9.62-22-11.06-31.61-3.21z" fill="#77718c"/><path d="m177.776 446.925-28.4 34.82-87.6-71.44 28.72-34.56z" fill="#c7c5cb"/><g><path d="m78.738 428.355 31.253-38.324c7.842-9.617 6.404-23.77-3.212-31.612-9.617-7.843-23.77-6.404-31.613 3.212l-31.254 38.323c-7.843 9.617-6.404 23.77 3.212 31.613 9.619 7.843 23.772 6.405 31.614-3.212z" fill="#ff748f"/></g><path d="m334.224 446.925 28.4 34.82 87.6-71.44-28.72-34.56z" fill="#c7c5cb"/><g><path d="m433.262 428.355-31.253-38.324c-7.842-9.617-6.404-23.77 3.212-31.612 9.617-7.843 23.77-6.404 31.613 3.212l31.254 38.323c7.843 9.617 6.404 23.77-3.212 31.613-9.619 7.843-23.772 6.405-31.614-3.212z" fill="#ff748f"/></g><path d="m153.404 384.278 26.714 65.978-26.714 54.244h-56.351c0-63.761 32.065-101.088 56.351-120.222z" fill="#fdd0a3"/><path d="m414.947 504.5h-56.351l-26.917-52.793 26.917-67.429c24.286 19.134 56.351 56.461 56.351 120.222z" fill="#fdd0a3"/><path d="m104.88 453.321c-4.828 14.764-7.827 31.735-7.827 51.179h30c0-45.721 16.488-77.847 34.772-99.423l-8.421-20.799c-22.834 17.985-39.518 41.5-48.524 69.043z" fill="#ffbd86"/><path d="m358.596 384.278v120.222h-205.192v-120.222c14.799-11.664 26.703-16.557 26.703-16.557h151.787c0 .001 11.903 4.894 26.702 16.557z" fill="#77718c"/><path d="m153.404 416.048c9.575-13.772 20.393-24.201 30-31.77 14.799-11.664 26.703-16.557 26.703-16.557h-30c-.001-.003-4.659 1.888-11.75 6.193-.709.43-1.445.88-2.201 1.356-.757.476-1.536.976-2.335 1.501-1.199.787-2.443 1.63-3.725 2.529-.855.6-1.726 1.224-2.612 1.875-1.329.976-2.691 2.01-4.079 3.103v31.77z" fill="#5c586f"/><path d="m256 435.865-68.615-89.657h137.23z" fill="#fdd0a3"/><circle cx="256" cy="195.588" fill="#ff748f" r="188.088"/><path d="m97.912 195.588c0-98.829 76.224-179.849 173.088-187.493-4.949-.39-9.95-.595-15-.595-103.878 0-188.088 84.21-188.088 188.088s84.21 188.088 188.088 188.088c5.049 0 10.051-.205 15-.595-96.864-7.644-173.088-88.664-173.088-187.493z" fill="#fd5f7e"/><path d="m118.065 126.4c-17.252 223.484 65.721 107.652 137.935 107.652s155.187 115.832 137.935-107.652z" fill="#fdd0a3"/><path d="m442.107 130.726c-3.243-9.282-7.162-18.249-11.697-26.842-3.895-7.381-11.603-11.957-19.948-11.957h-308.923c-8.346 0-16.053 4.576-19.949 11.957-4.535 8.593-8.453 17.56-11.697 26.842-5.147 14.729 5.719 30.145 21.322 30.145h329.57c15.602 0 26.468-15.415 21.322-30.145z" fill="#77718c"/><path d="m99.893 130.726c3.243-9.282 7.162-18.249 11.697-26.842 3.895-7.381 11.603-11.957 19.949-11.957h-30c-8.346 0-16.053 4.576-19.949 11.957-4.535 8.593-8.453 17.56-11.697 26.842-5.147 14.729 5.719 30.145 21.322 30.145h30c-15.602 0-26.469-15.415-21.322-30.145z" fill="#5c586f"/><path d="m307.828 71.199h-103.656c-21.148 0-38.291 17.143-38.291 38.291v33.819c0 21.148 17.143 38.291 38.291 38.291h103.657c21.148 0 38.291-17.143 38.291-38.291v-33.819c-.001-21.147-17.144-38.291-38.292-38.291z" fill="#c7c5cb"/><path d="m195.881 143.309v-33.819c0-21.147 17.143-38.291 38.291-38.291h-30c-21.148 0-38.291 17.144-38.291 38.291v33.819c0 21.148 17.143 38.291 38.291 38.291h30c-21.148 0-38.291-17.143-38.291-38.291z" fill="#b2b0bc"/></g><g><path d="m168.069 201.885c-4.142 0-7.5 3.358-7.5 7.5v17.897c0 4.142 3.358 7.5 7.5 7.5s7.5-3.358 7.5-7.5v-17.897c0-4.142-3.358-7.5-7.5-7.5z"/><path d="m336.451 209.385v17.897c0 4.142 3.358 7.5 7.5 7.5s7.5-3.358 7.5-7.5v-17.897c0-4.142-3.358-7.5-7.5-7.5s-7.5 3.358-7.5 7.5z"/><path d="m504.382 337.155c-10.466-12.834-29.326-14.754-42.163-4.284l-24.025 19.593c-4.471-3.605-9.888-5.851-15.737-6.445-23.757-2.416-40.466 22.607-29.695 43.496l-9.437 7.696c-10.233-11.416-22.335-21.473-34.915-29.186 15.479-8.315 29.915-18.761 42.899-31.204 2.991-2.866 3.092-7.613.226-10.604-2.867-2.991-7.614-3.092-10.604-.226-44.87 42.997-107.34 59.109-166.019 45.465-90.961-21.25-153.145-110.252-136.951-206.126 1.012.496 2.053.936 3.12 1.314h.001c7.226 2.56 12.257 1.514 27.317 1.734-1.172 55.144 6.193 85.316 23.638 97.344 31.527 21.735 80.554-24.165 123.974-24.165 43.429 0 92.44 45.906 123.974 24.165 17.446-12.028 24.81-42.2 23.638-97.344 15.39-.015 22.288.945 30.438-3.048 8.143 48.228-3.099 98.508-34.189 139.417-2.506 3.298-1.865 8.003 1.433 10.509s8.002 1.865 10.509-1.433c35.918-47.262 47.226-106.018 35.126-160.678 4.271-7.528 5.143-16.618 2.254-24.885-3.333-9.536-7.419-18.912-12.144-27.867-4.081-7.733-11.248-13.148-19.563-15.121-52.99-77.454-150.846-104.412-233.655-71.503-3.849 1.53-5.73 5.89-4.2 9.739 1.529 3.85 5.891 5.732 9.739 4.2 73.775-29.317 159.165-7.041 208.96 56.728h-52.2c-8.19-12.471-22.292-20.729-38.294-20.729h-103.655c-16.002 0-30.105 8.257-38.294 20.729h-52.178c13.408-17.099 29.965-31.859 48.505-43.156 3.537-2.156 4.657-6.77 2.502-10.307s-6.77-4.657-10.307-2.502c-23.628 14.397-44.263 33.999-59.884 56.803-8.312 1.975-15.476 7.389-19.555 15.119-4.725 8.953-8.81 18.329-12.144 27.867-2.889 8.267-2.017 17.357 2.254 24.885-19.291 87.152 22.53 173.925 98.612 214.834-12.503 7.652-24.647 17.687-34.998 29.234l-9.437-7.696c6.307-12.231 3.518-27.737-7.726-36.906-11.255-9.179-27.006-8.774-37.706-.145l-24.026-19.594c-12.834-10.468-31.695-8.552-42.163 4.284-10.467 12.835-8.554 31.696 4.284 42.164l23.753 19.371c-7.58 12.562-4.967 29.156 6.725 38.691 11.654 9.503 28.415 8.799 39.247-1.2l16.491 13.449c-5.309 15.797-8.572 33.988-8.572 54.869 0 4.142 3.358 7.5 7.5 7.5h317.889c4.142 0 7.5-3.358 7.5-7.5 0-20.882-3.263-39.072-8.571-54.869l16.482-13.442c18.036 16.7 47.637 5.543 50.13-19.003.665-6.541-.8-12.972-4.146-18.498l23.75-19.369c12.806-10.442 14.727-29.357 4.283-42.164.001.001.001.001 0 0zm-132.913-83.783c-21.467 14.804-70.831-26.815-115.46-26.815-44.825 0-93.923 41.667-115.459 26.815-12.412-8.557-18.175-37.135-17.154-84.995h42.465c8.655 13.266 23.296 20.729 38.321 20.729 114.942.004 104.431.061 107.186-.15 14.384-1.103 27.115-8.841 34.79-20.579h42.465c1.022 47.86-4.742 76.438-17.154 84.995zm-18.966-153.937c62.158.014 58.366-.044 59.707.111 5.231.613 9.379 3.687 11.574 7.846 4.377 8.296 8.162 16.981 11.25 25.815 2.926 8.373-1.865 16.639-9.042 19.26-3.771 1.371-3.087.911-73.488.911.551-2.5.913-5.029 1.055-7.578.087-1.637.15-36.342-.029-39.168-.157-2.503-.545-5.106-1.027-7.197zm-148.321-20.728h103.655c16.913 0 30.79 13.752 30.79 30.79-.02 36.68.174 35.227-.412 38.818-1.819 11.109-9.729 20.587-20.717 24.23-6.648 2.191-2.262 1.533-113.317 1.561-16.987 0-30.79-13.838-30.79-30.79.02-36.594-.94-39.244 3.276-47.615 5.07-10.067 15.496-16.994 27.515-16.994zm-127.196 54.5c3.088-8.835 6.873-17.52 11.25-25.815 2.207-4.183 6.392-7.252 11.573-7.845 2.198-.254.302-.037 59.707-.111-.677 2.934-1.124 6.56-1.124 10.062.331 31.081-.783 35.614 1.124 43.881-69.736 0-69.669.468-73.489-.911-7.39-2.7-11.906-11.06-9.041-19.261zm274.118 254.77v109.023h-190.189v-109.023c8.432-6.305 15.592-10.192 19.316-12.036 8.992 3.786 18.188 6.872 27.554 9.252l42.269 55.231c2.995 3.914 8.907 3.926 11.912 0l42.269-55.231c9.021-2.291 18.52-5.432 27.577-9.241 3.729 1.849 10.877 5.732 19.292 12.025zm-69.015 1.472-26.079 34.077-26.079-34.077c17.173 2.284 34.843 2.303 52.158 0zm-262.828-42.813c5.225-6.408 14.648-7.369 21.059-2.14l23.517 19.179c-2.522 3.092-17.161 21.043-18.919 23.199l-23.517-19.179c-6.41-5.226-7.37-14.647-2.14-21.059zm27.186 69.034c-.804-7.912 4.517-12.117 5.355-13.503 0 0 0 0 0-.001.883-1.083-2.083 2.554 29.189-35.792 5.239-6.424 14.662-7.357 21.059-2.14 6.396 5.216 7.356 14.663 2.14 21.059l-.79.969c-4.724 5.793-19.727 24.19-30.463 37.354-8.47 10.387-25.156 5.181-26.49-7.946zm44.92 9.084c6.624-8.122 12.27-15.045 18.92-23.199l8.96 7.307c-5.632 7.686-10.865 16.368-15.324 26.131zm54.548-23.872v96.118h-41.194c1.615-38.424 15.981-71.226 41.194-96.118zm220.189 96.118v-96.119c24.999 24.679 39.567 57.398 41.194 96.119zm26.669-88.138 8.96-7.307c4.853 5.95 14.16 17.363 18.92 23.199l-12.556 10.239c-4.459-9.763-9.691-18.445-15.324-26.131zm72.799 6.808c-1.343 13.225-18.111 18.222-26.492 7.946l-2.063-2.53c-3.395-4.163-23.952-29.37-29.189-35.792-8.377-10.272-.118-25.694 13.113-24.352 7.335.746 10.549 6.172 11.048 6.61.258.316 30.419 37.3 30.292 37.145 2.527 3.098 3.696 6.995 3.291 10.973zm25.047-47.975-23.517 19.179c-4.759-5.836-14.065-17.247-18.92-23.199l23.517-19.179c6.395-5.217 15.844-4.256 21.059 2.14 5.217 6.396 4.257 15.843-2.139 21.059z"/></g></g></svg>