<svg id="Capa_1" enable-background="new 0 0 512 512" height="512" viewBox="0 0 512 512" width="512" xmlns="http://www.w3.org/2000/svg"><g><g><path d="m29.284 441.085v13.473c0 14.315 11.605 25.92 25.92 25.92h48.466v-39.393l-37.193-17.848z" fill="#fccb88"/><path d="m52.284 454.558v-13.473l25.693-12.329-11.5-5.518-37.193 17.848v13.473c0 14.315 11.605 25.92 25.92 25.92h23c-14.316-.001-25.92-11.606-25.92-25.921z" fill="#fab659"/><path d="m482.717 441.085v13.473c0 14.315-11.605 25.92-25.92 25.92h-48.467v-39.393l37.193-17.848z" fill="#fccb88"/><path d="m82.429 360.375c-29.351 0-53.145 23.794-53.145 53.145v27.564h74.386v-80.709z" fill="#77718c"/><path d="m103.67 360.42v-.045h-21.241c-29.351 0-53.145 23.794-53.145 53.145v27.564h23v-27.564c0-28.761 22.851-52.17 51.386-53.1z" fill="#5c586f"/><path d="m429.571 360.375c29.351 0 53.145 23.794 53.145 53.145v27.564h-74.386v-80.709z" fill="#77718c"/><path d="m175.778 323.706h-31.144c-37.03 0-67.049 30.019-67.049 67.049v113.745h35.245l101.5-126.831z" fill="#ff748f"/><path d="m174.634 323.706h-30c-37.03 0-67.049 30.019-67.049 67.049v113.745h30v-113.746c0-37.029 30.019-67.048 67.049-67.048z" fill="#fd5f7e"/><path d="m336.223 323.706h31.144c37.03 0 67.049 30.019 67.049 67.049v113.745h-35.246l-101.5-126.831z" fill="#ff748f"/><path d="m175.778 377.669 19.277 63.415-19.277 63.416h-62.948c0-88.626 62.948-126.831 62.948-126.831z" fill="#ffdcce"/><path d="m175.778 377.669s-62.947 38.204-62.947 126.831h30c0-51.698 21.417-86.232 39.267-106.041z" fill="#ffcabd"/><path d="m399.17 504.5h-62.947l-19.276-63.415 19.276-63.415c0-.001 62.947 38.204 62.947 126.83z" fill="#ffdcce"/><path d="m297.669 377.669 19.277 63.416-19.277 63.415h-83.338l-19.277-63.415 19.277-63.416z" fill="#76e6d5"/><path d="m175.778 377.669h38.553v126.831h-38.553z" fill="#c6ade3"/><path d="m297.669 377.669h38.553v126.831h-38.553z" fill="#c6ade3"/><path d="m43.914 219.586c0-116.944 95.141-212.086 212.086-212.086s212.086 95.142 212.086 212.086z" fill="#76e6d5"/><circle cx="434.233" cy="239.5" fill="#ffcabd" r="41.594"/><circle cx="256" cy="219.586" fill="#ffdcce" r="177.237"/><path d="m108.763 219.586c0-92.832 71.374-168.983 162.237-176.599-4.946-.415-9.947-.638-15-.638-90.569 0-165.262 67.935-175.923 155.626-.754-.043-1.522-.07-2.31-.07-22.972 0-41.594 18.622-41.594 41.594s18.622 41.594 41.594 41.594c4.249 0 8.004-.641 11.308-1.825 24.502 68.52 89.983 117.554 166.925 117.554 5.053 0 10.054-.223 15-.638-90.863-7.615-162.237-83.766-162.237-176.598z" fill="#ffcabd"/><circle cx="169.903" cy="71.506" fill="#c6ade3" r="63.431"/><circle cx="169.903" cy="71.506" fill="#e8e8e8" r="27.912"/><circle cx="342.097" cy="71.506" fill="#c6ade3" r="63.431"/><circle cx="342.097" cy="71.506" fill="#e8e8e8" r="27.912"/><g><g><g><ellipse cx="157.868" cy="255.765" fill="#ffb5ec" rx="36.209" ry="28.835"/></g><g><ellipse cx="354.132" cy="255.765" fill="#ffb5ec" rx="36.209" ry="28.835"/></g></g></g></g><g><path d="m169.903 106.918c19.526 0 35.412-15.886 35.412-35.412s-15.886-35.412-35.412-35.412-35.412 15.886-35.412 35.412 15.886 35.412 35.412 35.412zm0-55.824c11.255 0 20.412 9.157 20.412 20.412s-9.157 20.412-20.412 20.412-20.412-9.157-20.412-20.412 9.157-20.412 20.412-20.412z"/><path d="m306.685 71.506c0 19.526 15.886 35.412 35.412 35.412s35.412-15.886 35.412-35.412-15.886-35.412-35.412-35.412-35.412 15.886-35.412 35.412zm35.412-20.412c11.255 0 20.412 9.157 20.412 20.412s-9.157 20.412-20.412 20.412-20.412-9.157-20.412-20.412 9.157-20.412 20.412-20.412z"/><path d="m195.494 200.703-29.684-7.954c-3.996-1.072-8.113 1.302-9.186 5.304-1.072 4.001 1.303 8.113 5.304 9.186l9.677 2.593c-.254 1.343-.088 1.241-.135 17.168 0 4.142 3.358 7.5 7.5 7.5s7.5-3.358 7.5-7.5v-13.185c4.845 1.229 5.472 1.635 7.088 1.635 3.311 0 6.342-2.21 7.24-5.561 1.071-4.002-1.303-8.114-5.304-9.186z"/><path d="m346.189 192.749-29.684 7.954c-4.001 1.072-6.375 5.185-5.304 9.186 1.073 4.003 5.184 6.374 9.186 5.304l5.142-1.378v13.185c0 4.142 3.358 7.5 7.5 7.5s7.5-3.358 7.5-7.5c-.048-16.256.108-15.885-.135-17.168l9.676-2.593c4.001-1.072 6.375-5.185 5.304-9.186s-5.185-6.374-9.185-5.304z"/><path d="m281.236 231.869c-3.123-2.721-7.86-2.396-10.582.727-7.761 8.906-21.556 8.896-29.309 0-2.721-3.124-7.459-3.448-10.582-.727s-3.448 7.459-.727 10.582c13.739 15.767 38.201 15.75 51.926 0 2.722-3.123 2.397-7.861-.726-10.582z"/><path d="m431.56 352.926c-6.159-10.441-14.843-19.365-25.424-25.822 8.618-12 15.833-25.071 21.408-38.971 29.519 4.07 55.783-18.987 55.783-48.634 0-9.803-2.899-18.936-7.869-26.609-1.663-55.265-23.837-107.218-62.66-146.844-3.768-49.217-55.906-79.821-100.731-58.781-35.781-9.456-74.614-9.916-112.133 0-44.859-21.056-96.973 9.597-100.732 58.79-10.695 10.925-20.293 22.985-28.529 35.916-2.225 3.494-1.196 8.13 2.297 10.355 3.494 2.225 8.13 1.196 10.355-2.297 5.205-8.173 10.986-15.978 17.277-23.331 1.618 7.411 4.549 14.717 8.348 21.076-18.31 24.043-30.637 52.549-35.414 82.815-7.554.663-14.639 3.006-20.916 6.766 2.321-21.455 8.013-42.253 16.995-62.035 1.712-3.771.043-8.217-3.729-9.93-3.771-1.711-8.217-.044-9.93 3.729-12.023 26.479-18.539 54.653-19.414 83.77-22.671 34.999 6.341 80.977 47.913 75.244 5.574 13.9 12.79 26.971 21.408 38.971-10.582 6.457-19.265 15.381-25.424 25.822-32.521 1.055-58.656 27.822-58.656 60.594v41.037c0 18.428 14.992 33.42 33.42 33.42h14.881v16.523c0 4.14 3.358 7.5 7.5 7.5h356.829c4.142 0 7.5-3.358 7.5-7.5v-16.522h14.882c18.428 0 33.42-14.992 33.42-33.42 0-9.839 0-30.595 0-41.037.002-32.774-26.134-59.54-58.655-60.595zm-279.188 56.784c6.961-8.68 12.074-13.074 15.906-16.774v104.064h-47.785c1.403-33.539 12.45-63.063 31.879-87.29zm56.935-26.92c-111.521-31.954-160.507-166.294-90.905-262.541 12.905 13.614 31.288 22.188 51.5 22.188 47.812 0 81.682-46.402 67.866-91.607 12.234-1.295 24.406-1.284 36.463 0-13.503 44.178 18.454 89.186 64.221 91.514 21.081 1.074 41.177-7.351 55.145-22.095 16.854 23.298 27.022 50.102 30.567 76.387 16.619 121.146-97.144 219.731-214.857 186.154zm202.094-296.109c26.922 31.379 43.543 69.741 47.976 110.673-6.202-3.714-13.269-6.091-20.914-6.764-4.789-30.338-17.128-58.792-35.414-82.815 3.825-6.404 6.744-13.718 8.352-21.094zm21.316 186.879c6.63-21.712 9.199-44.682 7.517-67.616 6.045 1.09 11.733 3.812 16.389 7.874 24.375 21.219 8.003 61.193-23.906 59.742zm-34.688-202.054c0 30.833-25.115 55.931-55.932 55.931-44.183 0-71.529-49.576-46.513-86.952 5.123-7.647 12.062-13.96 20.156-18.294 36.962-19.836 82.289 7.042 82.289 49.315zm-180.818-52.812c25.476-4.909 52.103-4.909 77.579 0-5.493 4.93-10.546 11.092-14.353 17.763-16.034-2.118-33.007-2.095-48.873 0-3.793-6.648-8.875-12.848-14.353-17.763zm-20.323 3.841c51.154 28.313 29.782 104.902-26.985 104.902-30.034 0-56.662-24.334-55.881-57.92 1.467-41.709 46.622-66.989 82.866-46.982zm-117.605 251.025c-19.324.878-35.611-14.635-35.611-34.061 0-16.753 12.135-30.678 28.094-33.555-1.672 22.807.859 45.812 7.517 67.616zm-42.5 139.961c0-22.069 15.744-40.53 36.589-44.743-2.185 7.062-3.287 14.414-3.287 21.977v42.83h-33.302zm18.421 59.457c-10.157 0-18.42-8.263-18.42-18.42v-5.973h33.302v24.394h-14.882zm30.545-91.015c2.692-17.942 13.5-33.838 29.353-42.91 13.275 15.621 29.238 29.09 46.831 39.544-32.725 27.066-54.488 69.495-56.454 118.403h-20.394c0-118.095-.25-108.841.664-115.037zm97.529 7.484c7.498 3.211 16.265 6.238 23.553 8.245v99.308h-23.553zm38.552 11.708c22.522 4.212 45.814 4.212 68.339 0v95.845h-68.339zm83.339-3.463c7.205-1.985 15.899-4.967 23.553-8.245v107.553h-23.553zm121.745 99.308h-20.393c-.732-18.128-4.034-35.164-9.633-50.848-1.393-3.901-5.686-5.933-9.585-4.542-3.901 1.393-5.935 5.684-4.542 9.585 5.303 14.855 8.082 30.419 8.743 45.805h-47.782v-104.043c10.148 9.022 19.585 20.326 27.017 32.747 3.993 6.673 14.252 3.544 13.93-4.17-.099-2.372-1.071-3.681-3.717-7.802-8.9-13.853-19.638-25.835-30.882-35.136 17.592-10.454 33.554-23.923 46.828-39.542 18.261 10.45 30.016 30.107 30.016 51.701zm48.303-42.442c0 10.157-8.263 18.42-18.42 18.42h-14.882v-24.394h33.302zm0-20.973h-33.302v-42.83c0-7.563-1.102-14.916-3.287-21.977 20.845 4.213 36.589 22.674 36.589 44.743z"/></g></g></svg>