<svg id="Capa_1" enable-background="new 0 0 512 512" height="512" viewBox="0 0 512 512" width="512" xmlns="http://www.w3.org/2000/svg"><g><g><g><path d="m354.178 487.111v-40.341c26.981 0 52.065-12.131 68.818-33.283 15.409-19.455 21.764-43.672 17.898-68.187-3.868-24.514-17.37-45.597-38.019-59.364l-31.843-21.229 22.377-33.566 31.843 21.229c29.703 19.802 49.928 51.382 55.49 86.643 5.563 35.263-3.958 71.536-26.122 99.521-24.451 30.872-61.06 48.577-100.442 48.577z" fill="#c6ade3"/></g><path d="m405.475 430.264c-14.75 10.653-32.564 16.505-51.296 16.505v40.342c21.571 0 42.304-5.323 60.669-15.201-1.873-14.345-5.004-28.252-9.373-41.646z" fill="#b08bd7"/><path d="m370.661 422.899c9.45 21.795 16.288 48.884 16.288 81.601h-319.002c0-32.707 6.838-59.786 16.278-81.581z" fill="#76e6d5"/><path d="m114.226 422.917-30.001.002c-10.562 24.385-16.278 51.694-16.278 81.581h30c0-32.707 6.838-59.786 16.278-81.581 0-.001.001-.002.001-.002z" fill="#00d6bc"/><path d="m370.661 422.899c-37.558 22.137-87.904 35.682-143.233 35.682s-105.655-13.535-143.203-35.662c21.068-48.672 55.137-71.021 55.137-71.021h176.172s34.058 22.339 55.127 71.001z" fill="#e8e8e8"/><path d="m109.278 435.572c20.194-57.598 59.972-83.523 60.084-83.675h-30c-.092.101-34.074 22.362-55.137 71.021 7.818 4.608 16.197 8.837 25.053 12.654z" fill="#dadad8"/><circle cx="227.448" cy="195.162" fill="#c6ade3" r="187.662"/><path d="m79.786 195.162c0-96.886 73.424-176.615 167.662-186.6-6.572-.696-13.243-1.062-20-1.062-103.643 0-187.662 84.019-187.662 187.662s84.019 187.662 187.662 187.662c6.757 0 13.428-.365 20-1.062-94.238-9.985-167.662-89.714-167.662-186.6z" fill="#b08bd7"/><path d="m246.377 70.437c-11.532-8.289-26.374-8.289-37.906 0-39.687 28.527-65.947 77.983-65.947 134.253s26.259 105.726 65.947 134.253c11.532 8.289 26.374 8.289 37.906 0 39.687-28.527 65.947-77.983 65.947-134.253-.001-56.27-26.26-105.726-65.947-134.253z" fill="#76e6d5"/><path d="m425.252 252.37-31.843-21.229-22.377 33.566 31.843 21.229c7.895 5.264 14.736 11.604 20.402 18.79 6.235-6.663 11.347-14.516 14.964-23.33 1.928-4.697 3.68-9.445 5.281-14.232-5.589-5.45-11.696-10.412-18.27-14.794z" fill="#b08bd7"/><path d="m418.749 145.002c-6.049-23.05-28.833-37.575-52.355-33.754-70.249 11.41-108.016 38.548-125.757 55.99-7.302 7.178-19.076 7.178-26.377 0-17.742-17.442-55.508-44.58-125.757-55.99-23.522-3.821-46.306 10.704-52.355 33.754-4.205 16.022-6.443 32.832-6.443 50.158 0 26.473 5.227 51.748 14.705 74.845 8.29 20.202 29.615 31.957 51.096 28.031 65.806-12.026 101.648-37.954 118.781-54.808 7.29-7.172 19.035-7.172 26.325 0 17.133 16.855 52.975 42.782 118.781 54.808 21.481 3.926 42.805-7.829 51.096-28.031 9.478-23.097 14.705-48.372 14.705-74.845-.001-17.326-2.24-34.136-6.445-50.158z" fill="#e8e8e8"/><path d="m74.409 270.005c-9.478-23.097-14.705-48.372-14.705-74.845 0-17.326 2.239-34.136 6.443-50.158 4.153-15.823 16.192-27.628 30.943-32.239-2.814-.528-5.662-1.04-8.587-1.515-23.522-3.821-46.306 10.704-52.355 33.754-4.205 16.022-6.443 32.832-6.443 50.158 0 26.473 5.227 51.748 14.705 74.845 8.29 20.202 29.615 31.957 51.096 28.031 2.583-.472 5.104-.973 7.596-1.486-12.666-4.091-23.369-13.571-28.693-26.545z" fill="#dadad8"/><g fill="#76e6d5"><path d="m118.401 158.654c-25.438 0-35.974 20.622-35.974 46.06s10.536 46.06 35.974 46.06 66.231-20.622 66.231-46.06-40.793-46.06-66.231-46.06z"/><path d="m336.495 158.654c25.438 0 35.974 20.622 35.974 46.06s-10.536 46.06-35.974 46.06-66.231-20.622-66.231-46.06 40.792-46.06 66.231-46.06z"/><circle cx="227.424" cy="420.882" r="15.802"/><circle cx="151.163" cy="410.493" r="15.802"/><circle cx="303.685" cy="410.493" r="15.802"/></g></g><g><path d="m118.408 258.28c29.002 0 73.729-22.999 73.729-53.559s-44.727-53.559-73.729-53.559c-29.581 0-43.474 23.529-43.474 53.559 0 30.088 13.956 53.559 43.474 53.559zm0-92.118c22.092 0 58.73 18.676 58.73 38.559s-36.638 38.559-58.73 38.559c-24.775 0-28.474-24.159-28.474-38.559s3.699-38.559 28.474-38.559z"/><path d="m133.535 221.773c4.142 0 7.5-3.358 7.5-7.5v-19.104c0-4.142-3.358-7.5-7.5-7.5s-7.5 3.358-7.5 7.5v19.104c0 4.142 3.358 7.5 7.5 7.5z"/><path d="m336.496 258.28c29.578 0 43.474-23.528 43.474-53.559 0-30.089-13.955-53.559-43.474-53.559-29.002 0-73.729 22.999-73.729 53.559s44.726 53.559 73.729 53.559zm0-92.118c24.775 0 28.474 24.159 28.474 38.559 0 14.401-3.699 38.559-28.474 38.559-22.091 0-58.729-18.676-58.729-38.559s36.637-38.559 58.729-38.559z"/><path d="m321.368 221.773c4.142 0 7.5-3.358 7.5-7.5v-19.104c0-4.142-3.358-7.5-7.5-7.5s-7.5 3.358-7.5 7.5v19.104c0 4.142 3.358 7.5 7.5 7.5z"/><path d="m227.427 444.185c12.849 0 23.302-10.453 23.302-23.302 0-12.848-10.453-23.301-23.302-23.301-12.848 0-23.301 10.453-23.301 23.301 0 12.849 10.453 23.302 23.301 23.302zm0-31.603c4.578 0 8.302 3.724 8.302 8.302s-3.725 8.302-8.302 8.302-8.302-3.725-8.302-8.302c.001-4.578 3.725-8.302 8.302-8.302z"/><path d="m151.168 433.796c12.849 0 23.302-10.453 23.302-23.302 0-12.848-10.453-23.301-23.302-23.301-12.848 0-23.301 10.453-23.301 23.301 0 12.849 10.453 23.302 23.301 23.302zm0-31.603c4.578 0 8.302 3.724 8.302 8.302s-3.725 8.302-8.302 8.302-8.302-3.725-8.302-8.302c0-4.578 3.724-8.302 8.302-8.302z"/><path d="m303.687 433.796c12.848 0 23.301-10.453 23.301-23.302 0-12.848-10.453-23.301-23.301-23.301s-23.301 10.453-23.301 23.301c0 12.849 10.453 23.302 23.301 23.302zm0-31.603c4.578 0 8.302 3.724 8.302 8.302s-3.724 8.302-8.302 8.302-8.302-3.725-8.302-8.302c0-4.578 3.724-8.302 8.302-8.302z"/><path d="m429.411 246.136-2.668-1.779c7.968-32.25 8.14-67.411-.741-101.25-3.433-13.079-11.398-23.779-21.849-30.81-48.684-103.663-175.031-142.558-272.96-86.922-3.601 2.046-4.862 6.624-2.816 10.226 2.046 3.601 6.625 4.862 10.226 2.816 85.032-48.31 194.072-19.58 244.17 65.422-5.874-.954-12.006-.889-17.581.017-25.807 4.192-47.414 10.433-65.456 17.651-11.965-22.966-28.778-42.63-48.978-57.149-14.173-10.187-32.487-10.187-46.66 0-20.194 14.516-37.005 34.174-48.969 57.133-26.633-10.649-59.482-17.385-70.015-18.178-4.256-.333-8.692-.17-12.966.522 10.987-18.604 25.352-35.284 42.213-48.9 3.223-2.602 3.726-7.325 1.123-10.547-2.602-3.223-7.325-3.725-10.547-1.123-22.991 18.566-41.679 42.402-54.197 69.037-10.446 7.031-18.408 17.73-21.84 30.805-11.062 42.152-8.556 87.997 8.578 129.751 5.058 12.326 14.383 21.953 25.7 27.648 14.741 22.939 34.228 42.646 56.935 57.645-36.757 34.918-59.658 86.42-59.658 146.35 0 4.142 3.358 7.5 7.5 7.5h318.994c4.142 0 7.5-3.358 7.5-7.5 0-5.323-.186-10.587-.538-15.794 26.329-7.996 49.254-23.63 66.587-45.514 23.46-29.621 33.538-68.018 27.65-105.344-5.888-37.325-27.296-70.753-58.737-91.713zm-216.558-169.599c8.855-6.364 20.296-6.364 29.15 0 18.026 12.958 33.111 30.474 43.961 50.967-18.301 8.678-36.029 20.084-50.581 34.394-4.367 4.292-11.482 4.305-15.86 0-14.557-14.312-32.251-25.706-50.62-34.413 10.848-20.484 25.929-37.995 43.95-50.948zm-161.498 190.627c-15.866-38.664-18.195-81.193-7.946-120.249 5.218-19.88 24.773-31.356 43.897-28.254 42.978 6.981 90.782 23.537 121.699 53.934 9.209 9.054 23.916 10.027 34.269 2.249 6.291-4.726 37.764-42.122 124.323-56.183 19.281-3.126 38.718 8.519 43.897 28.254 8.503 32.4 8.211 67.019-.596 98.722-2.86 10.385-6.787 20.579-8.463 23.97-7.796 15.811-25.164 24.074-41.695 21.057-19.967-3.649-52.157-11.629-81.506-28.142-11.846-6.713-23.579-15.011-33.361-24.634-10.156-9.991-26.683-9.995-36.844 0-29.384 28.907-74.168 45.337-114.866 52.776-17.769 3.243-35.84-6.518-42.808-23.5zm168.194-18.584c4.338-4.268 11.428-4.305 15.805 0 14.334 14.099 31.839 25.444 50.137 34.173-10.818 20.126-25.74 37.345-43.489 50.103-8.854 6.366-20.296 6.364-29.15 0-17.744-12.754-32.663-29.967-43.48-50.085 18.293-8.721 35.838-20.085 50.177-34.191zm-133.939 57.692c16.976.51 54.026-11.034 70.004-17.462 11.936 22.574 28.579 41.92 48.484 56.226 14.17 10.187 32.485 10.189 46.66 0 19.909-14.31 36.555-33.661 48.492-56.243 16.552 6.662 53.185 17.988 70.044 17.478-72.016 92.17-211.929 91.839-283.684.001zm47.857 59.958c58.28 32.073 129.636 32.101 187.97 0 10.741 9.636 26.945 27.126 39.554 53.525-78.095 42.662-192.363 40.789-267.088.02 12.609-26.411 28.819-43.905 39.564-53.545zm204.716 130.77v-24.249c0-4.142-3.358-7.5-7.5-7.5s-7.5 3.358-7.5 7.5v24.249h-191.504v-24.249c0-4.142-3.358-7.5-7.5-7.5s-7.5 3.358-7.5 7.5v24.249h-41.099c.755-22.406 4.912-43.656 12.395-63.369 78.644 42.426 197.926 43.865 278.945-.021 7.801 20.532 11.689 42.206 12.403 63.39zm110.557-63.121c-14.798 18.684-34.164 32.255-56.385 39.6-1.166-8.521-2.821-16.862-4.962-25.003-.01-.04-.019-.08-.03-.12 10.952-4.043 20.963-10.045 29.837-17.898 3.102-2.745 3.392-7.485.646-10.587-2.745-3.102-7.485-3.392-10.587-.646-7.243 6.409-15.382 11.347-24.266 14.742-10.317-29.87-27.315-55.976-48.203-75.817 22.709-15 42.197-34.709 56.938-57.65 3.479-1.751 6.769-3.875 9.805-6.334 33.846 24.645 41.901 69.844 22.859 103.814-2.026 3.613-.739 8.184 2.874 10.209 3.613 2.026 8.184.738 10.209-2.874 10.453-18.647 14.196-39.802 10.824-61.18-3.89-24.653-16.756-46.109-36.453-61.014 4.743-6.831 7.675-15.024 10.524-23.639 27.264 18.689 45.803 48.015 50.96 80.704 5.239 33.198-3.724 67.348-24.59 93.693z"/></g></g></svg>